<?xml version="1.0"?>
<svg xmlns="http://www.w3.org/2000/svg" xmlns:xlink="http://www.w3.org/1999/xlink" width="1000" height="800">
  <g transform="scale(0.5)">
    <g transform="translate(0,0) scale(0.2)">
      <rect x="0" y="0" width="1024" height="1024" fill="rgb(106,92,64)" fill-opacity="1" stroke="black" stroke-width="1"/>
      <g transform="translate(-80,198)">
        <rect x="236" y="0" width="728" height="628" fill="rgb(106,92,64)" fill-opacity="0.3" stroke="black" stroke-width="0"/>
      </g>
      <g transform="translate(100,0) scale(0.9)">
        <image xlink:href="../original/46_INF_RGT_DUI.jpg" x="0" y="0" width="836" height="1042" preserveAspectRatio="xMidYMid meet"/>
      </g>
    </g>
    <g transform="translate(200,0) scale(0.2)">
      <rect x="0" y="0" width="1024" height="1024" fill="rgb(106,92,64)" fill-opacity="1" stroke="black" stroke-width="1"/>
      <g transform="translate(-80,198)">
        <rect x="236" y="0" width="728" height="628" fill="rgb(106,92,64)" fill-opacity="0.3" stroke="black" stroke-width="0"/>
      </g>
      <g transform="translate(100,0) scale(0.9)">
        <image xlink:href="../original/46_INF_RGT_DUI.jpg" x="0" y="0" width="836" height="1042" preserveAspectRatio="xMidYMid meet"/>
      </g>
    </g>
    <g transform="translate(400,0) scale(0.2)">
      <rect x="0" y="0" width="1024" height="1024" fill="rgb(106,92,64)" fill-opacity="1" stroke="black" stroke-width="1"/>
      <g transform="translate(-80,198)">
        <rect x="236" y="0" width="728" height="628" fill="rgb(106,92,64)" fill-opacity="0.3" stroke="black" stroke-width="0"/>
      </g>
      <g transform="translate(100,0) scale(0.9)">
        <image xlink:href="../original/46_INF_RGT_DUI.jpg" x="0" y="0" width="836" height="1042" preserveAspectRatio="xMidYMid meet"/>
      </g>
    </g>
    <g transform="translate(600,0) scale(0.2)">
      <rect x="0" y="0" width="1024" height="1024" fill="rgb(106,92,64)" fill-opacity="1" stroke="black" stroke-width="1"/>
      <g transform="translate(-80,198)">
        <rect x="236" y="0" width="728" height="628" fill="rgb(106,92,64)" fill-opacity="0.3" stroke="black" stroke-width="0"/>
      </g>
      <g transform="translate(100,0) scale(0.9)">
        <image xlink:href="../original/46_INF_RGT_DUI.jpg" x="0" y="0" width="836" height="1042" preserveAspectRatio="xMidYMid meet"/>
      </g>
    </g>
    <g transform="translate(800,0) scale(0.2)">
      <rect x="0" y="0" width="1024" height="1024" fill="rgb(106,92,64)" fill-opacity="1" stroke="black" stroke-width="1"/>
      <g transform="translate(-80,198)">
        <rect x="236" y="0" width="728" height="628" fill="rgb(106,92,64)" fill-opacity="0.3" stroke="black" stroke-width="0"/>
      </g>
      <g transform="translate(100,0) scale(0.9)">
        <image xlink:href="../original/46_INF_RGT_DUI.jpg" x="0" y="0" width="836" height="1042" preserveAspectRatio="xMidYMid meet"/>
      </g>
    </g>
    <g transform="translate(1000,0) scale(0.2)">
      <rect x="0" y="0" width="1024" height="1024" fill="rgb(106,92,64)" fill-opacity="1" stroke="black" stroke-width="1"/>
      <g transform="translate(-80,198)">
        <rect x="236" y="0" width="728" height="628" fill="rgb(106,92,64)" fill-opacity="0.3" stroke="black" stroke-width="0"/>
      </g>
      <g transform="translate(100,0) scale(0.9)">
        <image xlink:href="../original/46_INF_RGT_DUI.jpg" x="0" y="0" width="836" height="1042" preserveAspectRatio="xMidYMid meet"/>
      </g>
    </g>
    <g transform="translate(1200,0) scale(0.2)">
      <rect x="0" y="0" width="1024" height="1024" fill="rgb(106,92,64)" fill-opacity="1" stroke="black" stroke-width="1"/>
      <g transform="translate(-80,198)">
        <rect x="236" y="0" width="728" height="628" fill="rgb(106,92,64)" fill-opacity="0.3" stroke="black" stroke-width="0"/>
      </g>
      <g transform="translate(100,0) scale(0.9)">
        <image xlink:href="../original/46_INF_RGT_DUI.jpg" x="0" y="0" width="836" height="1042" preserveAspectRatio="xMidYMid meet"/>
      </g>
    </g>
    <g transform="translate(1400,0) scale(0.2)">
      <rect x="0" y="0" width="1024" height="1024" fill="rgb(106,92,64)" fill-opacity="1" stroke="black" stroke-width="1"/>
      <g transform="translate(-80,198)">
        <rect x="236" y="0" width="728" height="628" fill="rgb(106,92,64)" fill-opacity="0.3" stroke="black" stroke-width="0"/>
      </g>
      <g transform="translate(100,0) scale(0.9)">
        <image xlink:href="../original/46_INF_RGT_DUI.jpg" x="0" y="0" width="836" height="1042" preserveAspectRatio="xMidYMid meet"/>
      </g>
    </g>
    <g transform="translate(1600,0) scale(0.2)">
      <rect x="0" y="0" width="1024" height="1024" fill="rgb(106,92,64)" fill-opacity="1" stroke="black" stroke-width="1"/>
      <g transform="translate(-80,198)">
        <rect x="236" y="0" width="728" height="628" fill="rgb(106,92,64)" fill-opacity="0.3" stroke="black" stroke-width="0"/>
      </g>
      <g transform="translate(100,0) scale(0.9)">
        <image xlink:href="../original/46_INF_RGT_DUI.jpg" x="0" y="0" width="836" height="1042" preserveAspectRatio="xMidYMid meet"/>
      </g>
    </g>
    <g transform="translate(1800,0) scale(0.2)">
      <rect x="0" y="0" width="1024" height="1024" fill="rgb(106,92,64)" fill-opacity="1" stroke="black" stroke-width="1"/>
      <g transform="translate(-80,198)">
        <rect x="236" y="0" width="728" height="628" fill="rgb(106,92,64)" fill-opacity="0.3" stroke="black" stroke-width="0"/>
      </g>
      <g transform="translate(100,0) scale(0.9)">
        <image xlink:href="../original/46_INF_RGT_DUI.jpg" x="0" y="0" width="836" height="1042" preserveAspectRatio="xMidYMid meet"/>
      </g>
    </g>
    <g transform="translate(0,200) scale(0.2)">
      <rect x="0" y="0" width="1024" height="1024" fill="rgb(106,92,64)" fill-opacity="1" stroke="black" stroke-width="1"/>
      <g transform="translate(-80,198)">
        <rect x="236" y="0" width="728" height="628" fill="rgb(106,92,64)" fill-opacity="0.3" stroke="black" stroke-width="0"/>
      </g>
      <g transform="translate(100,0) scale(0.9)">
        <image xlink:href="../original/46_INF_RGT_DUI.jpg" x="0" y="0" width="836" height="1042" preserveAspectRatio="xMidYMid meet"/>
      </g>
    </g>
    <g transform="translate(200,200) scale(0.2)">
      <rect x="0" y="0" width="1024" height="1024" fill="rgb(106,92,64)" fill-opacity="1" stroke="black" stroke-width="1"/>
      <g transform="translate(-80,198)">
        <rect x="236" y="0" width="728" height="628" fill="rgb(106,92,64)" fill-opacity="0.3" stroke="black" stroke-width="0"/>
      </g>
      <g transform="translate(100,0) scale(0.9)">
        <image xlink:href="../original/46_INF_RGT_DUI.jpg" x="0" y="0" width="836" height="1042" preserveAspectRatio="xMidYMid meet"/>
      </g>
    </g>
    <g transform="translate(400,200) scale(0.2)">
      <rect x="0" y="0" width="1024" height="1024" fill="rgb(106,92,64)" fill-opacity="1" stroke="black" stroke-width="1"/>
      <g transform="translate(-80,198)">
        <rect x="236" y="0" width="728" height="628" fill="rgb(106,92,64)" fill-opacity="0.3" stroke="black" stroke-width="0"/>
      </g>
      <g transform="translate(100,0) scale(0.9)">
        <image xlink:href="../original/46_INF_RGT_DUI.jpg" x="0" y="0" width="836" height="1042" preserveAspectRatio="xMidYMid meet"/>
      </g>
    </g>
    <g transform="translate(600,200) scale(0.2)">
      <rect x="0" y="0" width="1024" height="1024" fill="rgb(106,92,64)" fill-opacity="1" stroke="black" stroke-width="1"/>
      <g transform="translate(-80,198)">
        <rect x="236" y="0" width="728" height="628" fill="rgb(106,92,64)" fill-opacity="0.3" stroke="black" stroke-width="0"/>
      </g>
      <g transform="translate(100,0) scale(0.9)">
        <image xlink:href="../original/46_INF_RGT_DUI.jpg" x="0" y="0" width="836" height="1042" preserveAspectRatio="xMidYMid meet"/>
      </g>
    </g>
    <g transform="translate(800,200) scale(0.2)">
      <rect x="0" y="0" width="1024" height="1024" fill="rgb(106,92,64)" fill-opacity="1" stroke="black" stroke-width="1"/>
      <g transform="translate(-80,198)">
        <rect x="236" y="0" width="728" height="628" fill="rgb(106,92,64)" fill-opacity="0.3" stroke="black" stroke-width="0"/>
      </g>
      <g transform="translate(100,0) scale(0.9)">
        <image xlink:href="../original/46_INF_RGT_DUI.jpg" x="0" y="0" width="836" height="1042" preserveAspectRatio="xMidYMid meet"/>
      </g>
    </g>
    <g transform="translate(1000,200) scale(0.2)">
      <rect x="0" y="0" width="1024" height="1024" fill="rgb(106,92,64)" fill-opacity="1" stroke="black" stroke-width="1"/>
      <g transform="translate(-80,198)">
        <rect x="236" y="0" width="728" height="628" fill="rgb(106,92,64)" fill-opacity="0.3" stroke="black" stroke-width="0"/>
      </g>
      <g transform="translate(100,0) scale(0.9)">
        <image xlink:href="../original/46_INF_RGT_DUI.jpg" x="0" y="0" width="836" height="1042" preserveAspectRatio="xMidYMid meet"/>
      </g>
    </g>
    <g transform="translate(1200,200) scale(0.2)">
      <rect x="0" y="0" width="1024" height="1024" fill="rgb(106,92,64)" fill-opacity="1" stroke="black" stroke-width="1"/>
      <g transform="translate(-80,198)">
        <rect x="236" y="0" width="728" height="628" fill="rgb(106,92,64)" fill-opacity="0.3" stroke="black" stroke-width="0"/>
      </g>
      <g transform="translate(100,0) scale(0.9)">
        <image xlink:href="../original/46_INF_RGT_DUI.jpg" x="0" y="0" width="836" height="1042" preserveAspectRatio="xMidYMid meet"/>
      </g>
    </g>
    <g transform="translate(1400,200) scale(0.2)">
      <rect x="0" y="0" width="1024" height="1024" fill="rgb(106,92,64)" fill-opacity="1" stroke="black" stroke-width="1"/>
      <g transform="translate(-80,198)">
        <rect x="236" y="0" width="728" height="628" fill="rgb(106,92,64)" fill-opacity="0.3" stroke="black" stroke-width="0"/>
      </g>
      <g transform="translate(100,0) scale(0.9)">
        <image xlink:href="../original/46_INF_RGT_DUI.jpg" x="0" y="0" width="836" height="1042" preserveAspectRatio="xMidYMid meet"/>
      </g>
    </g>
    <g transform="translate(1600,200) scale(0.2)">
      <rect x="0" y="0" width="1024" height="1024" fill="rgb(106,92,64)" fill-opacity="1" stroke="black" stroke-width="1"/>
      <g transform="translate(-80,198)">
        <rect x="236" y="0" width="728" height="628" fill="rgb(106,92,64)" fill-opacity="0.3" stroke="black" stroke-width="0"/>
      </g>
      <g transform="translate(100,0) scale(0.9)">
        <image xlink:href="../original/46_INF_RGT_DUI.jpg" x="0" y="0" width="836" height="1042" preserveAspectRatio="xMidYMid meet"/>
      </g>
    </g>
    <g transform="translate(1800,200) scale(0.2)">
      <rect x="0" y="0" width="1024" height="1024" fill="rgb(106,92,64)" fill-opacity="1" stroke="black" stroke-width="1"/>
      <g transform="translate(-80,198)">
        <rect x="236" y="0" width="728" height="628" fill="rgb(106,92,64)" fill-opacity="0.3" stroke="black" stroke-width="0"/>
      </g>
      <g transform="translate(100,0) scale(0.9)">
        <image xlink:href="../original/46_INF_RGT_DUI.jpg" x="0" y="0" width="836" height="1042" preserveAspectRatio="xMidYMid meet"/>
      </g>
    </g>
    <g transform="translate(0,400) scale(0.2)">
      <rect x="0" y="0" width="1024" height="1024" fill="rgb(106,92,64)" fill-opacity="1" stroke="black" stroke-width="1"/>
      <g transform="translate(-80,198)">
        <rect x="236" y="0" width="728" height="628" fill="rgb(106,92,64)" fill-opacity="0.3" stroke="black" stroke-width="0"/>
      </g>
      <g transform="translate(100,0) scale(0.9)">
        <image xlink:href="../original/46_INF_RGT_DUI.jpg" x="0" y="0" width="836" height="1042" preserveAspectRatio="xMidYMid meet"/>
      </g>
    </g>
    <g transform="translate(200,400) scale(0.2)">
      <rect x="0" y="0" width="1024" height="1024" fill="rgb(106,92,64)" fill-opacity="1" stroke="black" stroke-width="1"/>
      <g transform="translate(-80,198)">
        <rect x="236" y="0" width="728" height="628" fill="rgb(106,92,64)" fill-opacity="0.3" stroke="black" stroke-width="0"/>
      </g>
      <g transform="translate(100,0) scale(0.9)">
        <image xlink:href="../original/46_INF_RGT_DUI.jpg" x="0" y="0" width="836" height="1042" preserveAspectRatio="xMidYMid meet"/>
      </g>
    </g>
    <g transform="translate(400,400) scale(0.2)">
      <rect x="0" y="0" width="1024" height="1024" fill="rgb(106,92,64)" fill-opacity="1" stroke="black" stroke-width="1"/>
      <g transform="translate(-80,198)">
        <rect x="236" y="0" width="728" height="628" fill="rgb(106,92,64)" fill-opacity="0.3" stroke="black" stroke-width="0"/>
      </g>
      <g transform="translate(100,0) scale(0.9)">
        <image xlink:href="../original/46_INF_RGT_DUI.jpg" x="0" y="0" width="836" height="1042" preserveAspectRatio="xMidYMid meet"/>
      </g>
    </g>
    <g transform="translate(600,400) scale(0.2)">
      <rect x="0" y="0" width="1024" height="1024" fill="rgb(106,92,64)" fill-opacity="1" stroke="black" stroke-width="1"/>
      <g transform="translate(-80,198)">
        <rect x="236" y="0" width="728" height="628" fill="rgb(106,92,64)" fill-opacity="0.3" stroke="black" stroke-width="0"/>
      </g>
      <g transform="translate(100,0) scale(0.9)">
        <image xlink:href="../original/46_INF_RGT_DUI.jpg" x="0" y="0" width="836" height="1042" preserveAspectRatio="xMidYMid meet"/>
      </g>
    </g>
    <g transform="translate(800,400) scale(0.2)">
      <rect x="0" y="0" width="1024" height="1024" fill="rgb(106,92,64)" fill-opacity="1" stroke="black" stroke-width="1"/>
      <g transform="translate(-80,198)">
        <rect x="236" y="0" width="728" height="628" fill="rgb(106,92,64)" fill-opacity="0.3" stroke="black" stroke-width="0"/>
      </g>
      <g transform="translate(100,0) scale(0.9)">
        <image xlink:href="../original/46_INF_RGT_DUI.jpg" x="0" y="0" width="836" height="1042" preserveAspectRatio="xMidYMid meet"/>
      </g>
    </g>
    <g transform="translate(1000,400) scale(0.2)">
      <rect x="0" y="0" width="1024" height="1024" fill="rgb(106,92,64)" fill-opacity="1" stroke="black" stroke-width="1"/>
      <g transform="translate(-80,198)">
        <rect x="236" y="0" width="728" height="628" fill="rgb(106,92,64)" fill-opacity="0.3" stroke="black" stroke-width="0"/>
      </g>
      <g transform="translate(100,0) scale(0.9)">
        <image xlink:href="../original/46_INF_RGT_DUI.jpg" x="0" y="0" width="836" height="1042" preserveAspectRatio="xMidYMid meet"/>
      </g>
    </g>
    <g transform="translate(1200,400) scale(0.2)">
      <rect x="0" y="0" width="1024" height="1024" fill="rgb(106,92,64)" fill-opacity="1" stroke="black" stroke-width="1"/>
      <g transform="translate(-80,198)">
        <rect x="236" y="0" width="728" height="628" fill="rgb(106,92,64)" fill-opacity="0.3" stroke="black" stroke-width="0"/>
      </g>
      <g transform="translate(100,0) scale(0.9)">
        <image xlink:href="../original/46_INF_RGT_DUI.jpg" x="0" y="0" width="836" height="1042" preserveAspectRatio="xMidYMid meet"/>
      </g>
    </g>
    <g transform="translate(1400,400) scale(0.2)">
      <rect x="0" y="0" width="1024" height="1024" fill="rgb(106,92,64)" fill-opacity="1" stroke="black" stroke-width="1"/>
      <g transform="translate(-80,198)">
        <rect x="236" y="0" width="728" height="628" fill="rgb(106,92,64)" fill-opacity="0.3" stroke="black" stroke-width="0"/>
      </g>
      <g transform="translate(100,0) scale(0.9)">
        <image xlink:href="../original/46_INF_RGT_DUI.jpg" x="0" y="0" width="836" height="1042" preserveAspectRatio="xMidYMid meet"/>
      </g>
    </g>
    <g transform="translate(1600,400) scale(0.2)">
      <rect x="0" y="0" width="1024" height="1024" fill="rgb(106,92,64)" fill-opacity="1" stroke="black" stroke-width="1"/>
      <g transform="translate(-80,198)">
        <rect x="236" y="0" width="728" height="628" fill="rgb(106,92,64)" fill-opacity="0.3" stroke="black" stroke-width="0"/>
      </g>
      <g transform="translate(100,0) scale(0.9)">
        <image xlink:href="../original/46_INF_RGT_DUI.jpg" x="0" y="0" width="836" height="1042" preserveAspectRatio="xMidYMid meet"/>
      </g>
    </g>
    <g transform="translate(1800,400) scale(0.2)">
      <rect x="0" y="0" width="1024" height="1024" fill="rgb(106,92,64)" fill-opacity="1" stroke="black" stroke-width="1"/>
      <g transform="translate(-80,198)">
        <rect x="236" y="0" width="728" height="628" fill="rgb(106,92,64)" fill-opacity="0.3" stroke="black" stroke-width="0"/>
      </g>
      <g transform="translate(100,0) scale(0.9)">
        <image xlink:href="../original/46_INF_RGT_DUI.jpg" x="0" y="0" width="836" height="1042" preserveAspectRatio="xMidYMid meet"/>
      </g>
    </g>
    <g transform="translate(0,600) scale(0.2)">
      <rect x="0" y="0" width="1024" height="1024" fill="rgb(106,92,64)" fill-opacity="1" stroke="black" stroke-width="1"/>
      <g transform="translate(-80,198)">
        <rect x="236" y="0" width="728" height="628" fill="rgb(106,92,64)" fill-opacity="0.3" stroke="black" stroke-width="0"/>
      </g>
      <g transform="translate(100,0) scale(0.9)">
        <image xlink:href="../original/46_INF_RGT_DUI.jpg" x="0" y="0" width="836" height="1042" preserveAspectRatio="xMidYMid meet"/>
      </g>
    </g>
    <g transform="translate(200,600) scale(0.2)">
      <rect x="0" y="0" width="1024" height="1024" fill="rgb(106,92,64)" fill-opacity="1" stroke="black" stroke-width="1"/>
      <g transform="translate(-80,198)">
        <rect x="236" y="0" width="728" height="628" fill="rgb(106,92,64)" fill-opacity="0.3" stroke="black" stroke-width="0"/>
      </g>
      <g transform="translate(100,0) scale(0.9)">
        <image xlink:href="../original/46_INF_RGT_DUI.jpg" x="0" y="0" width="836" height="1042" preserveAspectRatio="xMidYMid meet"/>
      </g>
    </g>
    <g transform="translate(400,600) scale(0.2)">
      <rect x="0" y="0" width="1024" height="1024" fill="rgb(106,92,64)" fill-opacity="1" stroke="black" stroke-width="1"/>
      <g transform="translate(-80,198)">
        <rect x="236" y="0" width="728" height="628" fill="rgb(106,92,64)" fill-opacity="0.3" stroke="black" stroke-width="0"/>
      </g>
      <g transform="translate(100,0) scale(0.9)">
        <image xlink:href="../original/46_INF_RGT_DUI.jpg" x="0" y="0" width="836" height="1042" preserveAspectRatio="xMidYMid meet"/>
      </g>
    </g>
    <g transform="translate(600,600) scale(0.2)">
      <rect x="0" y="0" width="1024" height="1024" fill="rgb(106,92,64)" fill-opacity="1" stroke="black" stroke-width="1"/>
      <g transform="translate(-80,198)">
        <rect x="236" y="0" width="728" height="628" fill="rgb(106,92,64)" fill-opacity="0.3" stroke="black" stroke-width="0"/>
      </g>
      <g transform="translate(100,0) scale(0.9)">
        <image xlink:href="../original/46_INF_RGT_DUI.jpg" x="0" y="0" width="836" height="1042" preserveAspectRatio="xMidYMid meet"/>
      </g>
    </g>
    <g transform="translate(800,600) scale(0.2)">
      <rect x="0" y="0" width="1024" height="1024" fill="rgb(106,92,64)" fill-opacity="1" stroke="black" stroke-width="1"/>
      <g transform="translate(-80,198)">
        <rect x="236" y="0" width="728" height="628" fill="rgb(106,92,64)" fill-opacity="0.3" stroke="black" stroke-width="0"/>
      </g>
      <g transform="translate(100,0) scale(0.9)">
        <image xlink:href="../original/46_INF_RGT_DUI.jpg" x="0" y="0" width="836" height="1042" preserveAspectRatio="xMidYMid meet"/>
      </g>
    </g>
    <g transform="translate(1000,600) scale(0.2)">
      <rect x="0" y="0" width="1024" height="1024" fill="rgb(106,92,64)" fill-opacity="1" stroke="black" stroke-width="1"/>
      <g transform="translate(-80,198)">
        <rect x="236" y="0" width="728" height="628" fill="rgb(106,92,64)" fill-opacity="0.3" stroke="black" stroke-width="0"/>
      </g>
      <g transform="translate(100,0) scale(0.9)">
        <image xlink:href="../original/46_INF_RGT_DUI.jpg" x="0" y="0" width="836" height="1042" preserveAspectRatio="xMidYMid meet"/>
      </g>
    </g>
    <g transform="translate(1200,600) scale(0.2)">
      <rect x="0" y="0" width="1024" height="1024" fill="rgb(106,92,64)" fill-opacity="1" stroke="black" stroke-width="1"/>
      <g transform="translate(-80,198)">
        <rect x="236" y="0" width="728" height="628" fill="rgb(106,92,64)" fill-opacity="0.3" stroke="black" stroke-width="0"/>
      </g>
      <g transform="translate(100,0) scale(0.9)">
        <image xlink:href="../original/46_INF_RGT_DUI.jpg" x="0" y="0" width="836" height="1042" preserveAspectRatio="xMidYMid meet"/>
      </g>
    </g>
    <g transform="translate(1400,600) scale(0.2)">
      <rect x="0" y="0" width="1024" height="1024" fill="rgb(106,92,64)" fill-opacity="1" stroke="black" stroke-width="1"/>
      <g transform="translate(-80,198)">
        <rect x="236" y="0" width="728" height="628" fill="rgb(106,92,64)" fill-opacity="0.3" stroke="black" stroke-width="0"/>
      </g>
      <g transform="translate(100,0) scale(0.9)">
        <image xlink:href="../original/46_INF_RGT_DUI.jpg" x="0" y="0" width="836" height="1042" preserveAspectRatio="xMidYMid meet"/>
      </g>
    </g>
    <g transform="translate(1600,600) scale(0.2)">
      <rect x="0" y="0" width="1024" height="1024" fill="rgb(106,92,64)" fill-opacity="1" stroke="black" stroke-width="1"/>
      <g transform="translate(-80,198)">
        <rect x="236" y="0" width="728" height="628" fill="rgb(106,92,64)" fill-opacity="0.3" stroke="black" stroke-width="0"/>
      </g>
      <g transform="translate(100,0) scale(0.9)">
        <image xlink:href="../original/46_INF_RGT_DUI.jpg" x="0" y="0" width="836" height="1042" preserveAspectRatio="xMidYMid meet"/>
      </g>
    </g>
    <g transform="translate(1800,600) scale(0.2)">
      <rect x="0" y="0" width="1024" height="1024" fill="rgb(106,92,64)" fill-opacity="1" stroke="black" stroke-width="1"/>
      <g transform="translate(-80,198)">
        <rect x="236" y="0" width="728" height="628" fill="rgb(106,92,64)" fill-opacity="0.3" stroke="black" stroke-width="0"/>
      </g>
      <g transform="translate(100,0) scale(0.9)">
        <image xlink:href="../original/46_INF_RGT_DUI.jpg" x="0" y="0" width="836" height="1042" preserveAspectRatio="xMidYMid meet"/>
      </g>
    </g>
    <g transform="translate(0,800) scale(0.2)">
      <rect x="0" y="0" width="1024" height="1024" fill="rgb(106,92,64)" fill-opacity="1" stroke="black" stroke-width="1"/>
      <g transform="translate(-80,198)">
        <rect x="236" y="0" width="728" height="628" fill="rgb(106,92,64)" fill-opacity="0.3" stroke="black" stroke-width="0"/>
      </g>
      <g transform="translate(100,0) scale(0.9)">
        <image xlink:href="../original/46_INF_RGT_DUI.jpg" x="0" y="0" width="836" height="1042" preserveAspectRatio="xMidYMid meet"/>
      </g>
    </g>
    <g transform="translate(200,800) scale(0.2)">
      <rect x="0" y="0" width="1024" height="1024" fill="rgb(106,92,64)" fill-opacity="1" stroke="black" stroke-width="1"/>
      <g transform="translate(-80,198)">
        <rect x="236" y="0" width="728" height="628" fill="rgb(106,92,64)" fill-opacity="0.3" stroke="black" stroke-width="0"/>
      </g>
      <g transform="translate(100,0) scale(0.9)">
        <image xlink:href="../original/46_INF_RGT_DUI.jpg" x="0" y="0" width="836" height="1042" preserveAspectRatio="xMidYMid meet"/>
      </g>
    </g>
    <g transform="translate(400,800) scale(0.2)">
      <rect x="0" y="0" width="1024" height="1024" fill="rgb(106,92,64)" fill-opacity="1" stroke="black" stroke-width="1"/>
      <g transform="translate(-80,198)">
        <rect x="236" y="0" width="728" height="628" fill="rgb(106,92,64)" fill-opacity="0.3" stroke="black" stroke-width="0"/>
      </g>
      <g transform="translate(100,0) scale(0.9)">
        <image xlink:href="../original/46_INF_RGT_DUI.jpg" x="0" y="0" width="836" height="1042" preserveAspectRatio="xMidYMid meet"/>
      </g>
    </g>
    <g transform="translate(600,800) scale(0.2)">
      <rect x="0" y="0" width="1024" height="1024" fill="rgb(106,92,64)" fill-opacity="1" stroke="black" stroke-width="1"/>
      <g transform="translate(-80,198)">
        <rect x="236" y="0" width="728" height="628" fill="rgb(106,92,64)" fill-opacity="0.3" stroke="black" stroke-width="0"/>
      </g>
      <g transform="translate(100,0) scale(0.9)">
        <image xlink:href="../original/46_INF_RGT_DUI.jpg" x="0" y="0" width="836" height="1042" preserveAspectRatio="xMidYMid meet"/>
      </g>
    </g>
    <g transform="translate(800,800) scale(0.2)">
      <rect x="0" y="0" width="1024" height="1024" fill="rgb(106,92,64)" fill-opacity="1" stroke="black" stroke-width="1"/>
      <g transform="translate(-80,198)">
        <rect x="236" y="0" width="728" height="628" fill="rgb(106,92,64)" fill-opacity="0.3" stroke="black" stroke-width="0"/>
      </g>
      <g transform="translate(100,0) scale(0.9)">
        <image xlink:href="../original/46_INF_RGT_DUI.jpg" x="0" y="0" width="836" height="1042" preserveAspectRatio="xMidYMid meet"/>
      </g>
    </g>
    <g transform="translate(1000,800) scale(0.2)">
      <rect x="0" y="0" width="1024" height="1024" fill="rgb(106,92,64)" fill-opacity="1" stroke="black" stroke-width="1"/>
      <g transform="translate(-80,198)">
        <rect x="236" y="0" width="728" height="628" fill="rgb(106,92,64)" fill-opacity="0.3" stroke="black" stroke-width="0"/>
      </g>
      <g transform="translate(100,0) scale(0.9)">
        <image xlink:href="../original/46_INF_RGT_DUI.jpg" x="0" y="0" width="836" height="1042" preserveAspectRatio="xMidYMid meet"/>
      </g>
    </g>
    <g transform="translate(1200,800) scale(0.2)">
      <rect x="0" y="0" width="1024" height="1024" fill="rgb(106,92,64)" fill-opacity="1" stroke="black" stroke-width="1"/>
      <g transform="translate(-80,198)">
        <rect x="236" y="0" width="728" height="628" fill="rgb(106,92,64)" fill-opacity="0.3" stroke="black" stroke-width="0"/>
      </g>
      <g transform="translate(100,0) scale(0.9)">
        <image xlink:href="../original/46_INF_RGT_DUI.jpg" x="0" y="0" width="836" height="1042" preserveAspectRatio="xMidYMid meet"/>
      </g>
    </g>
    <g transform="translate(1400,800) scale(0.2)">
      <rect x="0" y="0" width="1024" height="1024" fill="rgb(106,92,64)" fill-opacity="1" stroke="black" stroke-width="1"/>
      <g transform="translate(-80,198)">
        <rect x="236" y="0" width="728" height="628" fill="rgb(106,92,64)" fill-opacity="0.3" stroke="black" stroke-width="0"/>
      </g>
      <g transform="translate(100,0) scale(0.9)">
        <image xlink:href="../original/46_INF_RGT_DUI.jpg" x="0" y="0" width="836" height="1042" preserveAspectRatio="xMidYMid meet"/>
      </g>
    </g>
    <g transform="translate(1600,800) scale(0.2)">
      <rect x="0" y="0" width="1024" height="1024" fill="rgb(106,92,64)" fill-opacity="1" stroke="black" stroke-width="1"/>
      <g transform="translate(-80,198)">
        <rect x="236" y="0" width="728" height="628" fill="rgb(106,92,64)" fill-opacity="0.3" stroke="black" stroke-width="0"/>
      </g>
      <g transform="translate(100,0) scale(0.9)">
        <image xlink:href="../original/46_INF_RGT_DUI.jpg" x="0" y="0" width="836" height="1042" preserveAspectRatio="xMidYMid meet"/>
      </g>
    </g>
    <g transform="translate(1800,800) scale(0.2)">
      <rect x="0" y="0" width="1024" height="1024" fill="rgb(106,92,64)" fill-opacity="1" stroke="black" stroke-width="1"/>
      <g transform="translate(-80,198)">
        <rect x="236" y="0" width="728" height="628" fill="rgb(106,92,64)" fill-opacity="0.3" stroke="black" stroke-width="0"/>
      </g>
      <g transform="translate(100,0) scale(0.9)">
        <image xlink:href="../original/46_INF_RGT_DUI.jpg" x="0" y="0" width="836" height="1042" preserveAspectRatio="xMidYMid meet"/>
      </g>
    </g>
    <g transform="translate(0,1000) scale(0.2)">
      <rect x="0" y="0" width="1024" height="1024" fill="rgb(106,92,64)" fill-opacity="1" stroke="black" stroke-width="1"/>
      <g transform="translate(-80,198)">
        <rect x="236" y="0" width="728" height="628" fill="rgb(106,92,64)" fill-opacity="0.3" stroke="black" stroke-width="0"/>
      </g>
      <g transform="translate(100,0) scale(0.9)">
        <image xlink:href="../original/46_INF_RGT_DUI.jpg" x="0" y="0" width="836" height="1042" preserveAspectRatio="xMidYMid meet"/>
      </g>
    </g>
    <g transform="translate(200,1000) scale(0.2)">
      <rect x="0" y="0" width="1024" height="1024" fill="rgb(106,92,64)" fill-opacity="1" stroke="black" stroke-width="1"/>
      <g transform="translate(-80,198)">
        <rect x="236" y="0" width="728" height="628" fill="rgb(106,92,64)" fill-opacity="0.3" stroke="black" stroke-width="0"/>
      </g>
      <g transform="translate(100,0) scale(0.9)">
        <image xlink:href="../original/46_INF_RGT_DUI.jpg" x="0" y="0" width="836" height="1042" preserveAspectRatio="xMidYMid meet"/>
      </g>
    </g>
    <g transform="translate(400,1000) scale(0.2)">
      <rect x="0" y="0" width="1024" height="1024" fill="rgb(106,92,64)" fill-opacity="1" stroke="black" stroke-width="1"/>
      <g transform="translate(-80,198)">
        <rect x="236" y="0" width="728" height="628" fill="rgb(106,92,64)" fill-opacity="0.3" stroke="black" stroke-width="0"/>
      </g>
      <g transform="translate(100,0) scale(0.9)">
        <image xlink:href="../original/46_INF_RGT_DUI.jpg" x="0" y="0" width="836" height="1042" preserveAspectRatio="xMidYMid meet"/>
      </g>
    </g>
    <g transform="translate(600,1000) scale(0.2)">
      <rect x="0" y="0" width="1024" height="1024" fill="rgb(106,92,64)" fill-opacity="1" stroke="black" stroke-width="1"/>
      <g transform="translate(-80,198)">
        <rect x="236" y="0" width="728" height="628" fill="rgb(106,92,64)" fill-opacity="0.3" stroke="black" stroke-width="0"/>
      </g>
      <g transform="translate(100,0) scale(0.9)">
        <image xlink:href="../original/46_INF_RGT_DUI.jpg" x="0" y="0" width="836" height="1042" preserveAspectRatio="xMidYMid meet"/>
      </g>
    </g>
    <g transform="translate(800,1000) scale(0.2)">
      <rect x="0" y="0" width="1024" height="1024" fill="rgb(106,92,64)" fill-opacity="1" stroke="black" stroke-width="1"/>
      <g transform="translate(-80,198)">
        <rect x="236" y="0" width="728" height="628" fill="rgb(106,92,64)" fill-opacity="0.3" stroke="black" stroke-width="0"/>
      </g>
      <g transform="translate(100,0) scale(0.9)">
        <image xlink:href="../original/46_INF_RGT_DUI.jpg" x="0" y="0" width="836" height="1042" preserveAspectRatio="xMidYMid meet"/>
      </g>
    </g>
    <g transform="translate(1000,1000) scale(0.2)">
      <rect x="0" y="0" width="1024" height="1024" fill="rgb(106,92,64)" fill-opacity="1" stroke="black" stroke-width="1"/>
      <g transform="translate(-80,198)">
        <rect x="236" y="0" width="728" height="628" fill="rgb(106,92,64)" fill-opacity="0.3" stroke="black" stroke-width="0"/>
      </g>
      <g transform="translate(100,0) scale(0.9)">
        <image xlink:href="../original/46_INF_RGT_DUI.jpg" x="0" y="0" width="836" height="1042" preserveAspectRatio="xMidYMid meet"/>
      </g>
    </g>
    <g transform="translate(1200,1000) scale(0.2)">
      <rect x="0" y="0" width="1024" height="1024" fill="rgb(106,92,64)" fill-opacity="1" stroke="black" stroke-width="1"/>
      <g transform="translate(-80,198)">
        <rect x="236" y="0" width="728" height="628" fill="rgb(106,92,64)" fill-opacity="0.3" stroke="black" stroke-width="0"/>
      </g>
      <g transform="translate(100,0) scale(0.9)">
        <image xlink:href="../original/46_INF_RGT_DUI.jpg" x="0" y="0" width="836" height="1042" preserveAspectRatio="xMidYMid meet"/>
      </g>
    </g>
    <g transform="translate(1400,1000) scale(0.2)">
      <rect x="0" y="0" width="1024" height="1024" fill="rgb(106,92,64)" fill-opacity="1" stroke="black" stroke-width="1"/>
      <g transform="translate(-80,198)">
        <rect x="236" y="0" width="728" height="628" fill="rgb(106,92,64)" fill-opacity="0.3" stroke="black" stroke-width="0"/>
      </g>
      <g transform="translate(100,0) scale(0.9)">
        <image xlink:href="../original/46_INF_RGT_DUI.jpg" x="0" y="0" width="836" height="1042" preserveAspectRatio="xMidYMid meet"/>
      </g>
    </g>
    <g transform="translate(1600,1000) scale(0.2)">
      <rect x="0" y="0" width="1024" height="1024" fill="rgb(106,92,64)" fill-opacity="1" stroke="black" stroke-width="1"/>
      <g transform="translate(-80,198)">
        <rect x="236" y="0" width="728" height="628" fill="rgb(106,92,64)" fill-opacity="0.3" stroke="black" stroke-width="0"/>
      </g>
      <g transform="translate(100,0) scale(0.9)">
        <image xlink:href="../original/46_INF_RGT_DUI.jpg" x="0" y="0" width="836" height="1042" preserveAspectRatio="xMidYMid meet"/>
      </g>
    </g>
    <g transform="translate(1800,1000) scale(0.2)">
      <rect x="0" y="0" width="1024" height="1024" fill="rgb(106,92,64)" fill-opacity="1" stroke="black" stroke-width="1"/>
      <g transform="translate(-80,198)">
        <rect x="236" y="0" width="728" height="628" fill="rgb(106,92,64)" fill-opacity="0.3" stroke="black" stroke-width="0"/>
      </g>
      <g transform="translate(100,0) scale(0.9)">
        <image xlink:href="../original/46_INF_RGT_DUI.jpg" x="0" y="0" width="836" height="1042" preserveAspectRatio="xMidYMid meet"/>
      </g>
    </g>
    <g transform="translate(0,1200) scale(0.2)">
      <rect x="0" y="0" width="1024" height="1024" fill="rgb(106,92,64)" fill-opacity="1" stroke="black" stroke-width="1"/>
      <g transform="translate(-80,198)">
        <rect x="236" y="0" width="728" height="628" fill="rgb(106,92,64)" fill-opacity="0.3" stroke="black" stroke-width="0"/>
      </g>
      <g transform="translate(100,0) scale(0.9)">
        <image xlink:href="../original/46_INF_RGT_DUI.jpg" x="0" y="0" width="836" height="1042" preserveAspectRatio="xMidYMid meet"/>
      </g>
    </g>
    <g transform="translate(200,1200) scale(0.2)">
      <rect x="0" y="0" width="1024" height="1024" fill="rgb(106,92,64)" fill-opacity="1" stroke="black" stroke-width="1"/>
      <g transform="translate(-80,198)">
        <rect x="236" y="0" width="728" height="628" fill="rgb(106,92,64)" fill-opacity="0.3" stroke="black" stroke-width="0"/>
      </g>
      <g transform="translate(100,0) scale(0.9)">
        <image xlink:href="../original/46_INF_RGT_DUI.jpg" x="0" y="0" width="836" height="1042" preserveAspectRatio="xMidYMid meet"/>
      </g>
    </g>
    <g transform="translate(400,1200) scale(0.2)">
      <rect x="0" y="0" width="1024" height="1024" fill="rgb(106,92,64)" fill-opacity="1" stroke="black" stroke-width="1"/>
      <g transform="translate(-80,198)">
        <rect x="236" y="0" width="728" height="628" fill="rgb(106,92,64)" fill-opacity="0.3" stroke="black" stroke-width="0"/>
      </g>
      <g transform="translate(100,0) scale(0.9)">
        <image xlink:href="../original/46_INF_RGT_DUI.jpg" x="0" y="0" width="836" height="1042" preserveAspectRatio="xMidYMid meet"/>
      </g>
    </g>
    <g transform="translate(600,1200) scale(0.2)">
      <rect x="0" y="0" width="1024" height="1024" fill="rgb(106,92,64)" fill-opacity="1" stroke="black" stroke-width="1"/>
      <g transform="translate(-80,198)">
        <rect x="236" y="0" width="728" height="628" fill="rgb(106,92,64)" fill-opacity="0.3" stroke="black" stroke-width="0"/>
      </g>
      <g transform="translate(100,0) scale(0.9)">
        <image xlink:href="../original/46_INF_RGT_DUI.jpg" x="0" y="0" width="836" height="1042" preserveAspectRatio="xMidYMid meet"/>
      </g>
    </g>
    <g transform="translate(800,1200) scale(0.2)">
      <rect x="0" y="0" width="1024" height="1024" fill="rgb(106,92,64)" fill-opacity="1" stroke="black" stroke-width="1"/>
      <g transform="translate(-80,198)">
        <rect x="236" y="0" width="728" height="628" fill="rgb(106,92,64)" fill-opacity="0.3" stroke="black" stroke-width="0"/>
      </g>
      <g transform="translate(100,0) scale(0.9)">
        <image xlink:href="../original/46_INF_RGT_DUI.jpg" x="0" y="0" width="836" height="1042" preserveAspectRatio="xMidYMid meet"/>
      </g>
    </g>
    <g transform="translate(1000,1200) scale(0.2)">
      <rect x="0" y="0" width="1024" height="1024" fill="rgb(106,92,64)" fill-opacity="1" stroke="black" stroke-width="1"/>
      <g transform="translate(-80,198)">
        <rect x="236" y="0" width="728" height="628" fill="rgb(106,92,64)" fill-opacity="0.3" stroke="black" stroke-width="0"/>
      </g>
      <g transform="translate(100,0) scale(0.9)">
        <image xlink:href="../original/46_INF_RGT_DUI.jpg" x="0" y="0" width="836" height="1042" preserveAspectRatio="xMidYMid meet"/>
      </g>
    </g>
    <g transform="translate(1200,1200) scale(0.2)">
      <rect x="0" y="0" width="1024" height="1024" fill="rgb(106,92,64)" fill-opacity="1" stroke="black" stroke-width="1"/>
      <g transform="translate(-80,198)">
        <rect x="236" y="0" width="728" height="628" fill="rgb(106,92,64)" fill-opacity="0.3" stroke="black" stroke-width="0"/>
      </g>
      <g transform="translate(100,0) scale(0.9)">
        <image xlink:href="../original/46_INF_RGT_DUI.jpg" x="0" y="0" width="836" height="1042" preserveAspectRatio="xMidYMid meet"/>
      </g>
    </g>
    <g transform="translate(1400,1200) scale(0.2)">
      <rect x="0" y="0" width="1024" height="1024" fill="rgb(106,92,64)" fill-opacity="1" stroke="black" stroke-width="1"/>
      <g transform="translate(-80,198)">
        <rect x="236" y="0" width="728" height="628" fill="rgb(106,92,64)" fill-opacity="0.3" stroke="black" stroke-width="0"/>
      </g>
      <g transform="translate(100,0) scale(0.9)">
        <image xlink:href="../original/46_INF_RGT_DUI.jpg" x="0" y="0" width="836" height="1042" preserveAspectRatio="xMidYMid meet"/>
      </g>
    </g>
    <g transform="translate(1600,1200) scale(0.2)">
      <rect x="0" y="0" width="1024" height="1024" fill="rgb(106,92,64)" fill-opacity="1" stroke="black" stroke-width="1"/>
      <g transform="translate(-80,198)">
        <rect x="236" y="0" width="728" height="628" fill="rgb(106,92,64)" fill-opacity="0.3" stroke="black" stroke-width="0"/>
      </g>
      <g transform="translate(100,0) scale(0.9)">
        <image xlink:href="../original/46_INF_RGT_DUI.jpg" x="0" y="0" width="836" height="1042" preserveAspectRatio="xMidYMid meet"/>
      </g>
    </g>
    <g transform="translate(1800,1200) scale(0.2)">
      <rect x="0" y="0" width="1024" height="1024" fill="rgb(106,92,64)" fill-opacity="1" stroke="black" stroke-width="1"/>
      <g transform="translate(-80,198)">
        <rect x="236" y="0" width="728" height="628" fill="rgb(106,92,64)" fill-opacity="0.3" stroke="black" stroke-width="0"/>
      </g>
      <g transform="translate(100,0) scale(0.9)">
        <image xlink:href="../original/46_INF_RGT_DUI.jpg" x="0" y="0" width="836" height="1042" preserveAspectRatio="xMidYMid meet"/>
      </g>
    </g>
    <g transform="translate(0,1400) scale(0.2)">
      <rect x="0" y="0" width="1024" height="1024" fill="rgb(106,92,64)" fill-opacity="1" stroke="black" stroke-width="1"/>
      <g transform="translate(-80,198)">
        <rect x="236" y="0" width="728" height="628" fill="rgb(106,92,64)" fill-opacity="0.3" stroke="black" stroke-width="0"/>
      </g>
      <g transform="translate(100,0) scale(0.9)">
        <image xlink:href="../original/46_INF_RGT_DUI.jpg" x="0" y="0" width="836" height="1042" preserveAspectRatio="xMidYMid meet"/>
      </g>
    </g>
    <g transform="translate(200,1400) scale(0.2)">
      <rect x="0" y="0" width="1024" height="1024" fill="rgb(106,92,64)" fill-opacity="1" stroke="black" stroke-width="1"/>
      <g transform="translate(-80,198)">
        <rect x="236" y="0" width="728" height="628" fill="rgb(106,92,64)" fill-opacity="0.3" stroke="black" stroke-width="0"/>
      </g>
      <g transform="translate(100,0) scale(0.9)">
        <image xlink:href="../original/46_INF_RGT_DUI.jpg" x="0" y="0" width="836" height="1042" preserveAspectRatio="xMidYMid meet"/>
      </g>
    </g>
    <g transform="translate(400,1400) scale(0.2)">
      <rect x="0" y="0" width="1024" height="1024" fill="rgb(106,92,64)" fill-opacity="1" stroke="black" stroke-width="1"/>
      <g transform="translate(-80,198)">
        <rect x="236" y="0" width="728" height="628" fill="rgb(106,92,64)" fill-opacity="0.3" stroke="black" stroke-width="0"/>
      </g>
      <g transform="translate(100,0) scale(0.9)">
        <image xlink:href="../original/46_INF_RGT_DUI.jpg" x="0" y="0" width="836" height="1042" preserveAspectRatio="xMidYMid meet"/>
      </g>
    </g>
    <g transform="translate(600,1400) scale(0.2)">
      <rect x="0" y="0" width="1024" height="1024" fill="rgb(106,92,64)" fill-opacity="1" stroke="black" stroke-width="1"/>
      <g transform="translate(-80,198)">
        <rect x="236" y="0" width="728" height="628" fill="rgb(106,92,64)" fill-opacity="0.3" stroke="black" stroke-width="0"/>
      </g>
      <g transform="translate(100,0) scale(0.9)">
        <image xlink:href="../original/46_INF_RGT_DUI.jpg" x="0" y="0" width="836" height="1042" preserveAspectRatio="xMidYMid meet"/>
      </g>
    </g>
    <g transform="translate(800,1400) scale(0.2)">
      <rect x="0" y="0" width="1024" height="1024" fill="rgb(106,92,64)" fill-opacity="1" stroke="black" stroke-width="1"/>
      <g transform="translate(-80,198)">
        <rect x="236" y="0" width="728" height="628" fill="rgb(106,92,64)" fill-opacity="0.3" stroke="black" stroke-width="0"/>
      </g>
      <g transform="translate(100,0) scale(0.9)">
        <image xlink:href="../original/46_INF_RGT_DUI.jpg" x="0" y="0" width="836" height="1042" preserveAspectRatio="xMidYMid meet"/>
      </g>
    </g>
    <g transform="translate(1000,1400) scale(0.2)">
      <rect x="0" y="0" width="1024" height="1024" fill="rgb(106,92,64)" fill-opacity="1" stroke="black" stroke-width="1"/>
      <g transform="translate(-80,198)">
        <rect x="236" y="0" width="728" height="628" fill="rgb(106,92,64)" fill-opacity="0.3" stroke="black" stroke-width="0"/>
      </g>
      <g transform="translate(100,0) scale(0.9)">
        <image xlink:href="../original/46_INF_RGT_DUI.jpg" x="0" y="0" width="836" height="1042" preserveAspectRatio="xMidYMid meet"/>
      </g>
    </g>
    <g transform="translate(1200,1400) scale(0.2)">
      <rect x="0" y="0" width="1024" height="1024" fill="rgb(106,92,64)" fill-opacity="1" stroke="black" stroke-width="1"/>
      <g transform="translate(-80,198)">
        <rect x="236" y="0" width="728" height="628" fill="rgb(106,92,64)" fill-opacity="0.3" stroke="black" stroke-width="0"/>
      </g>
      <g transform="translate(100,0) scale(0.9)">
        <image xlink:href="../original/46_INF_RGT_DUI.jpg" x="0" y="0" width="836" height="1042" preserveAspectRatio="xMidYMid meet"/>
      </g>
    </g>
    <g transform="translate(1400,1400) scale(0.2)">
      <rect x="0" y="0" width="1024" height="1024" fill="rgb(106,92,64)" fill-opacity="1" stroke="black" stroke-width="1"/>
      <g transform="translate(-80,198)">
        <rect x="236" y="0" width="728" height="628" fill="rgb(106,92,64)" fill-opacity="0.3" stroke="black" stroke-width="0"/>
      </g>
      <g transform="translate(100,0) scale(0.9)">
        <image xlink:href="../original/46_INF_RGT_DUI.jpg" x="0" y="0" width="836" height="1042" preserveAspectRatio="xMidYMid meet"/>
      </g>
    </g>
    <g transform="translate(1600,1400) scale(0.2)">
      <rect x="0" y="0" width="1024" height="1024" fill="rgb(106,92,64)" fill-opacity="1" stroke="black" stroke-width="1"/>
      <g transform="translate(-80,198)">
        <rect x="236" y="0" width="728" height="628" fill="rgb(106,92,64)" fill-opacity="0.3" stroke="black" stroke-width="0"/>
      </g>
      <g transform="translate(100,0) scale(0.9)">
        <image xlink:href="../original/46_INF_RGT_DUI.jpg" x="0" y="0" width="836" height="1042" preserveAspectRatio="xMidYMid meet"/>
      </g>
    </g>
    <g transform="translate(1800,1400) scale(0.2)">
      <rect x="0" y="0" width="1024" height="1024" fill="rgb(106,92,64)" fill-opacity="1" stroke="black" stroke-width="1"/>
      <g transform="translate(-80,198)">
        <rect x="236" y="0" width="728" height="628" fill="rgb(106,92,64)" fill-opacity="0.3" stroke="black" stroke-width="0"/>
      </g>
      <g transform="translate(100,0) scale(0.9)">
        <image xlink:href="../original/46_INF_RGT_DUI.jpg" x="0" y="0" width="836" height="1042" preserveAspectRatio="xMidYMid meet"/>
      </g>
    </g>
  </g>
</svg>
