<?xml version="1.0"?>
<svg xmlns="http://www.w3.org/2000/svg" width="1024" height="1024">
  <rect x="0" y="0" width="1024" height="1024" fill="rgb(106,92,64)" fill-opacity="1" stroke="black" stroke-width="1"/>
  <g transform="translate(-80,198)">
    <rect x="236" y="0" width="728" height="628" fill="rgb(106,92,64)" fill-opacity="0.3" stroke="black" stroke-width="0"/>
  </g>
  <g transform="translate(200,100) scale(0.04)">
    <path d="M6963 20825 c-7 -12 -58 -15 -303 -20 -534 -9 -725 -16 -734 -25 -6 -6 -89 -10 -192 -10 -111 0 -185 -4 -189 -10 -4 -6 -72 -10 -170 -10 -98 0 -166 -4 -170 -10 -4 -6 -67 -10 -155 -10 -88 0 -151 -4 -155 -10 -4 -6 -58 -10 -131 -10 -71 0 -124 -4 -124 -9 0 -6 -57 -12 -127 -15 -246 -11 -328 -17 -348 -26 -11 -5 -67 -12 -125 -15 -279 -14 -316 -17 -325 -26 -5 -5 -44 -9 -86 -9 -43 0 -81 -4 -84 -10 -3 -6 -48 -10 -100 -10 -52 0 -97 -4 -100 -10 -3 -5 -39 -10 -80 -10 -41 0 -77 -4 -80 -10 -3 -5 -46 -10 -94 -10 -48 0 -91 -4 -96 -9 -6 -5 -41 -12 -80 -15 -38 -3 -104 -10 -145 -16 -41 -6 -109 -15 -150 -20 -41 -5 -104 -14 -140 -20 -36 -6 -94 -14 -130 -16 -36 -3 -69 -10 -75 -15 -5 -5 -33 -9 -61 -9 -29 0 -56 -4 -59 -10 -3 -5 -35 -10 -70 -10 -35 0 -67 -4 -70 -10 -3 -5 -25 -10 -49 -10 -23 0 -46 -4 -51 -9 -6 -5 -32 -12 -60 -15 -27 -3 -69 -8 -92 -12 -35 -5 -43 -3 -52 15 -7 12 -21 21 -31 21 -11 0 -20 4 -20 9 0 4 -19 21 -43 37 -23 16 -58 41 -77 57 -19 15 -40 32 -47 37 -6 5 -46 26 -90 46 -43 21 -79 42 -81 46 -2 4 -17 8 -33 8 -16 0 -29 5 -29 10 0 6 -15 10 -34 10 -19 0 -38 5 -41 10 -3 6 -44 10 -90 10 -46 0 -87 -4 -90 -10 -3 -5 -20 -10 -37 -10 -55 0 -132 -47 -207 -126 -39 -41 -71 -81 -71 -89 0 -8 -4 -15 -10 -15 -5 0 -10 -9 -10 -20 0 -11 -4 -20 -10 -20 -12 0 -50 -77 -50 -102 0 -10 -4 -18 -10 -18 -5 0 -10 -9 -10 -20 0 -11 -4 -20 -10 -20 -5 0 -10 -13 -10 -30 0 -16 -4 -30 -10 -30 -5 0 -10 -11 -10 -24 0 -14 -4 -28 -10 -31 -5 -3 -10 -24 -10 -46 0 -21 -4 -39 -10 -39 -5 0 -10 -18 -10 -39 0 -22 -4 -43 -10 -46 -5 -3 -10 -21 -10 -40 0 -19 -4 -37 -10 -40 -5 -3 -10 -22 -10 -41 0 -19 -4 -34 -10 -34 -5 0 -10 -18 -10 -39 0 -22 -4 -43 -10 -46 -5 -3 -10 -21 -10 -40 0 -19 -4 -36 -9 -39 -5 -3 -11 -20 -14 -38 -9 -55 -18 -92 -27 -113 -10 -23 -19 -68 -27 -135 -3 -25 -9 -49 -14 -55 -5 -5 -9 -24 -9 -41 0 -18 -4 -36 -10 -39 -5 -3 -10 -24 -10 -45 0 -21 -4 -42 -10 -45 -5 -3 -10 -28 -10 -56 0 -27 -4 -49 -10 -49 -5 0 -10 -20 -10 -44 0 -25 -4 -48 -10 -51 -5 -3 -10 -32 -10 -64 0 -31 -4 -61 -9 -66 -9 -10 -15 -47 -27 -145 -3 -25 -9 -54 -14 -65 -9 -19 -14 -56 -26 -190 -3 -33 -10 -64 -15 -70 -5 -5 -9 -37 -9 -71 0 -35 -4 -66 -10 -69 -5 -3 -10 -42 -10 -86 0 -46 -4 -79 -10 -79 -6 0 -10 -31 -10 -74 0 -41 -4 -78 -10 -81 -6 -3 -10 -50 -10 -105 0 -55 -4 -102 -10 -105 -5 -3 -10 -46 -10 -95 0 -49 -4 -92 -10 -95 -6 -4 -10 -58 -10 -130 0 -72 -4 -126 -10 -130 -6 -4 -10 -73 -10 -175 0 -140 -2 -169 -15 -174 -13 -5 -15 -105 -15 -816 0 -711 2 -811 15 -816 13 -5 15 -35 15 -179 0 -105 4 -176 10 -180 6 -4 10 -63 10 -145 0 -82 4 -141 10 -145 6 -4 10 -55 10 -120 0 -65 4 -116 10 -120 6 -3 10 -48 10 -100 0 -52 4 -97 10 -100 6 -3 10 -44 10 -91 0 -49 4 -84 10 -84 6 0 10 -33 10 -78 0 -43 4 -82 9 -87 5 -6 12 -46 15 -90 3 -44 10 -114 16 -155 6 -41 13 -102 16 -135 3 -33 9 -69 14 -80 5 -11 11 -45 14 -75 3 -30 10 -84 16 -120 6 -36 13 -90 16 -120 3 -30 10 -59 15 -65 5 -5 9 -30 9 -56 0 -26 5 -51 10 -54 6 -3 10 -33 10 -66 0 -33 4 -59 10 -59 6 0 10 -26 10 -59 0 -33 4 -63 10 -66 5 -3 10 -26 10 -51 0 -24 5 -44 10 -44 6 0 10 -19 10 -43 0 -24 4 -47 9 -52 5 -6 11 -30 14 -55 3 -25 11 -69 16 -97 6 -29 16 -77 22 -105 6 -29 13 -74 16 -100 3 -27 9 -48 14 -48 5 0 9 -20 9 -44 0 -25 4 -47 9 -50 5 -3 12 -24 15 -46 3 -22 9 -58 12 -80 3 -22 10 -43 15 -46 5 -3 9 -23 9 -44 0 -21 5 -42 10 -45 6 -3 10 -24 10 -46 0 -21 4 -39 9 -39 5 0 11 -17 14 -37 3 -21 11 -58 17 -83 6 -25 14 -58 16 -75 3 -16 9 -39 14 -50 10 -23 20 -65 27 -118 3 -20 9 -40 14 -43 5 -3 9 -21 9 -40 0 -19 5 -34 10 -34 6 0 10 -18 10 -40 0 -22 4 -40 9 -40 5 0 11 -17 14 -37 11 -72 19 -103 28 -103 5 0 9 -18 9 -39 0 -22 5 -43 10 -46 6 -3 10 -19 10 -35 0 -16 5 -32 10 -35 6 -3 10 -19 10 -35 0 -16 4 -31 9 -34 5 -3 11 -20 14 -38 13 -76 20 -98 28 -98 5 0 9 -12 9 -26 0 -26 34 -142 51 -176 5 -10 9 -27 9 -38 0 -11 5 -20 10 -20 6 0 10 -14 10 -30 0 -17 4 -38 9 -48 5 -9 14 -37 21 -62 7 -25 16 -53 21 -62 5 -10 9 -25 9 -33 0 -8 5 -24 10 -35 6 -11 15 -29 20 -40 6 -11 10 -31 10 -44 0 -14 4 -28 10 -31 5 -3 10 -17 10 -31 0 -13 4 -32 9 -42 5 -9 14 -37 21 -62 7 -25 21 -61 31 -81 11 -20 19 -46 19 -57 0 -12 5 -24 10 -27 6 -3 10 -15 10 -26 0 -10 5 -28 10 -39 6 -11 15 -29 20 -40 6 -11 10 -30 10 -43 0 -13 3 -27 7 -30 4 -4 16 -35 29 -70 41 -118 47 -132 55 -149 5 -10 9 -27 9 -37 0 -11 5 -23 10 -26 6 -3 10 -15 10 -25 0 -11 9 -34 20 -52 11 -18 20 -43 20 -55 0 -13 5 -23 10 -23 6 0 10 -9 10 -20 0 -11 10 -42 21 -68 12 -26 30 -66 40 -89 11 -24 19 -52 19 -63 0 -11 5 -20 10 -20 6 0 10 -13 10 -30 0 -16 5 -30 10 -30 6 0 10 -7 10 -15 0 -8 4 -23 9 -33 5 -9 19 -42 31 -72 12 -30 35 -83 51 -118 16 -34 29 -69 29 -77 0 -8 9 -29 20 -47 11 -18 20 -43 20 -55 0 -13 5 -23 10 -23 6 0 10 -8 10 -17 0 -10 9 -29 20 -43 11 -14 20 -37 20 -52 0 -16 5 -28 10 -28 6 0 10 -9 10 -20 0 -11 5 -20 10 -20 6 0 10 -7 10 -15 0 -8 4 -23 9 -33 47 -93 91 -192 91 -205 0 -9 9 -32 19 -50 33 -60 39 -71 70 -135 17 -34 31 -71 31 -80 0 -10 4 -22 9 -27 17 -18 51 -85 51 -100 0 -8 5 -15 10 -15 6 0 10 -4 10 -10 0 -10 61 -142 70 -150 3 -3 11 -18 19 -35 7 -16 17 -38 22 -47 5 -10 9 -27 9 -38 0 -11 3 -20 8 -20 4 0 13 -15 21 -32 8 -18 20 -40 27 -48 19 -22 84 -152 84 -167 0 -7 3 -13 8 -13 4 0 13 -15 20 -32 7 -18 17 -41 23 -50 19 -37 107 -215 123 -250 9 -21 22 -41 29 -45 7 -4 17 -19 23 -33 42 -92 81 -167 94 -180 21 -21 40 -57 40 -75 0 -8 5 -15 10 -15 6 0 10 -9 10 -20 0 -11 5 -20 10 -20 6 0 10 -8 10 -18 0 -11 9 -27 20 -37 11 -10 20 -24 20 -32 0 -7 3 -13 8 -13 4 0 15 -17 25 -37 26 -54 78 -144 105 -180 12 -17 22 -38 22 -46 0 -9 8 -22 18 -29 10 -7 26 -31 36 -53 11 -22 25 -44 32 -48 8 -4 14 -17 14 -27 0 -11 5 -20 10 -20 6 0 10 -9 10 -20 0 -11 9 -25 20 -32 11 -7 20 -21 20 -30 0 -10 5 -18 10 -18 6 0 10 -7 10 -16 0 -9 15 -34 34 -57 18 -23 41 -58 51 -77 27 -55 78 -130 87 -130 4 0 8 -9 8 -19 0 -10 6 -21 13 -24 7 -2 25 -30 40 -61 15 -31 32 -56 37 -56 6 0 10 -8 10 -17 0 -9 7 -25 17 -35 9 -10 21 -27 27 -37 14 -26 138 -205 145 -211 3 -3 11 -12 16 -22 38 -62 120 -178 127 -178 4 0 8 -5 8 -11 0 -6 12 -26 27 -44 16 -18 43 -58 62 -89 19 -32 42 -61 53 -67 10 -5 18 -15 18 -21 0 -14 64 -110 84 -127 9 -8 16 -19 16 -27 0 -7 6 -17 13 -21 7 -4 36 -39 64 -78 29 -38 63 -83 77 -98 14 -16 26 -32 26 -38 0 -5 16 -24 36 -43 20 -19 41 -43 48 -54 28 -52 89 -134 102 -139 8 -3 21 -18 29 -33 8 -15 30 -44 50 -64 19 -20 35 -42 35 -49 0 -6 18 -29 40 -50 22 -20 40 -43 40 -50 0 -7 20 -30 45 -51 24 -21 47 -48 51 -60 4 -11 33 -47 65 -79 33 -32 59 -62 59 -68 0 -5 23 -32 51 -61 28 -28 63 -70 79 -92 16 -23 56 -65 89 -95 34 -30 61 -60 61 -68 0 -8 50 -64 110 -125 61 -61 110 -115 110 -120 0 -13 775 -788 788 -788 5 0 51 -42 103 -93 52 -52 101 -98 111 -103 9 -5 53 -44 97 -87 45 -42 86 -77 91 -77 5 0 33 -24 62 -53 29 -29 72 -65 95 -81 23 -15 44 -34 47 -41 3 -8 22 -25 43 -38 21 -13 52 -36 68 -50 102 -87 164 -137 170 -137 4 0 42 -30 86 -68 92 -79 132 -111 164 -132 38 -25 75 -53 115 -88 20 -17 43 -32 49 -32 7 0 24 -13 38 -30 13 -16 32 -30 40 -30 8 0 24 -11 34 -24 11 -14 30 -28 42 -32 12 -4 24 -9 27 -13 9 -10 89 -71 94 -71 3 0 35 -23 72 -50 37 -28 72 -50 78 -50 6 0 17 -9 24 -20 7 -11 20 -20 30 -20 9 0 23 -9 30 -20 7 -11 19 -20 28 -20 8 0 33 -13 55 -30 21 -16 57 -43 78 -60 22 -16 47 -30 55 -30 8 0 19 -6 23 -13 12 -18 156 -109 206 -129 9 -4 17 -12 17 -18 0 -16 37 -12 44 5 3 8 11 15 19 15 18 0 67 23 67 33 0 4 6 7 13 7 8 0 42 18 76 40 34 22 67 40 74 40 7 1 28 14 47 30 19 17 42 30 52 30 10 0 18 4 18 8 0 5 24 22 53 37 28 16 80 48 114 72 34 24 69 43 77 43 9 0 16 4 16 9 0 4 31 28 70 52 38 24 70 47 70 52 0 4 9 7 19 7 11 0 26 8 33 18 17 23 99 82 113 82 7 0 20 9 30 20 10 11 22 20 28 20 5 0 27 15 48 33 63 54 99 82 112 86 6 2 25 17 40 33 16 15 33 28 39 28 11 0 64 42 130 102 22 21 45 38 50 38 10 0 99 74 171 142 22 21 43 38 46 38 4 0 32 22 62 50 30 27 57 50 61 50 5 0 30 22 57 48 27 27 66 61 88 77 21 16 71 61 111 99 40 39 79 74 88 79 9 5 81 74 161 153 81 79 150 144 155 144 12 0 308 295 308 307 0 5 75 85 168 179 92 93 179 185 194 204 14 20 59 70 99 113 103 107 182 196 194 217 6 9 40 50 78 91 37 40 67 77 67 82 0 5 21 31 48 57 86 89 152 166 152 181 0 8 12 23 26 34 15 11 37 36 49 56 13 19 37 49 54 66 17 18 31 36 31 42 0 6 18 29 40 52 22 23 40 46 40 51 0 5 14 21 30 35 17 13 30 31 30 39 0 8 15 29 34 47 19 18 40 43 46 57 7 13 24 33 37 43 12 10 23 27 23 37 0 11 11 27 25 36 13 9 27 25 31 37 3 11 19 31 35 45 16 13 29 29 29 36 0 7 9 21 21 32 12 10 30 36 40 56 11 21 24 38 29 38 6 0 10 6 10 14 0 8 14 28 30 44 17 17 30 37 30 44 0 7 9 20 20 28 11 8 20 22 20 31 0 10 14 29 30 42 17 14 30 33 30 41 0 9 5 16 11 16 5 0 16 15 24 34 8 18 26 41 40 50 14 9 25 20 25 25 0 5 24 44 53 86 28 42 57 84 62 93 31 50 69 108 74 112 3 3 12 17 20 33 8 15 18 27 23 27 4 0 8 8 8 18 0 9 9 23 20 30 11 7 20 21 20 32 0 11 4 20 8 20 7 0 38 43 154 219 10 14 29 50 43 79 14 28 30 52 36 52 5 0 14 10 20 23 5 12 27 51 49 87 22 36 48 81 58 100 9 19 21 37 25 38 4 2 21 30 37 63 17 32 35 59 40 59 6 0 10 9 10 20 0 11 5 20 10 20 6 0 10 9 10 20 0 10 9 24 20 30 11 6 20 20 20 30 0 11 5 20 10 20 6 0 10 9 10 20 0 11 4 20 10 20 5 0 21 22 34 48 13 27 32 54 40 61 9 8 16 22 16 32 0 11 5 19 10 19 6 0 10 7 10 16 0 9 18 43 40 75 22 32 40 66 40 74 0 8 5 15 10 15 6 0 10 6 10 13 0 8 9 22 20 32 11 10 20 26 20 37 0 10 3 18 8 18 4 0 13 15 20 33 26 63 37 82 55 95 9 7 17 22 17 33 0 10 5 19 10 19 6 0 10 6 10 13 0 21 104 221 123 235 9 7 17 18 17 25 0 13 137 287 151 302 5 5 9 17 9 27 0 10 5 18 10 18 6 0 10 7 10 15 0 8 8 29 18 47 31 55 139 271 153 306 8 17 17 32 21 32 5 0 8 8 8 18 0 9 7 25 15 36 7 10 21 42 31 72 9 30 21 54 25 54 5 0 9 6 9 13 0 15 62 141 73 145 4 2 7 11 7 21 0 9 4 21 8 26 4 6 14 28 21 49 8 22 26 61 42 88 16 27 29 57 29 66 0 9 17 51 38 92 21 41 44 94 52 117 7 24 17 43 22 43 4 0 8 9 8 20 0 11 5 20 10 20 6 0 10 12 10 28 0 15 9 38 20 52 11 14 20 33 20 43 0 9 5 17 10 17 6 0 10 14 10 30 0 17 5 30 10 30 6 0 10 9 10 20 0 11 5 20 10 20 6 0 10 9 10 20 0 17 22 75 51 132 5 10 9 25 9 33 0 8 5 15 10 15 6 0 10 9 10 20 0 11 9 42 21 68 24 54 39 88 49 117 4 11 13 33 19 48 6 15 11 37 11 47 0 11 5 20 10 20 6 0 10 9 10 20 0 11 5 20 10 20 6 0 10 9 10 20 0 12 7 34 15 49 20 40 45 112 45 134 0 9 5 17 10 17 6 0 10 9 10 20 0 12 9 40 20 62 11 23 20 48 20 55 0 13 5 24 28 70 7 13 12 32 12 42 0 11 5 23 10 26 6 3 10 17 10 31 0 13 5 33 10 44 6 11 15 29 20 40 6 11 10 27 10 35 0 8 5 15 10 15 6 0 10 14 10 30 0 17 5 30 10 30 6 0 10 8 10 17 0 16 15 67 31 108 4 11 13 38 20 60 6 22 15 48 20 57 5 10 9 31 9 48 0 16 5 30 10 30 6 0 10 11 10 24 0 14 5 28 10 31 6 3 10 17 10 30 0 13 5 27 10 30 6 3 10 17 10 30 0 13 5 27 10 30 6 3 10 15 10 26 0 10 4 27 9 37 16 31 31 88 31 115 0 15 5 27 10 27 6 0 10 11 10 24 0 14 5 28 10 31 6 3 10 21 10 40 0 19 5 37 10 40 6 3 10 17 10 30 0 13 5 27 10 30 6 3 10 19 10 35 0 16 5 32 10 35 6 3 10 19 10 35 0 16 5 32 10 35 6 3 10 18 10 32 0 27 16 84 31 115 5 10 9 29 9 42 0 14 4 28 10 31 5 3 10 24 10 45 0 21 5 42 10 45 6 3 10 17 10 30 0 13 4 26 9 29 5 3 12 23 15 43 16 91 19 103 27 109 5 3 9 20 9 39 0 19 5 37 10 40 6 3 10 21 10 40 0 19 5 37 10 40 6 3 10 24 10 45 0 21 5 42 10 45 6 3 10 24 10 45 0 21 4 41 9 44 8 6 11 20 27 124 3 23 10 42 14 42 4 0 10 21 13 48 3 26 10 67 17 92 6 25 14 65 17 90 3 25 9 49 14 55 5 5 9 28 9 52 0 24 4 43 9 43 5 0 12 21 15 48 11 100 18 137 27 147 5 5 9 31 9 57 0 26 4 48 9 48 9 0 14 32 27 160 3 30 10 59 15 65 5 5 9 33 9 61 0 29 5 56 10 59 6 3 10 28 10 54 0 26 4 51 9 57 9 8 13 38 27 189 3 33 10 64 15 70 5 5 9 33 9 61 0 29 5 56 10 59 6 3 10 39 10 80 0 41 5 77 10 80 6 3 10 34 10 69 0 34 4 66 9 72 5 5 12 50 15 99 4 50 9 129 12 178 3 48 10 87 15 87 5 0 9 41 9 90 0 50 4 90 9 90 6 0 12 48 15 108 3 59 10 172 16 252 6 80 13 219 16 310 4 130 8 166 19 173 22 12 22 1662 0 1674 -11 7 -15 44 -19 173 -11 315 -17 425 -27 435 -5 5 -9 52 -9 105 0 53 -4 100 -9 105 -5 6 -12 48 -15 95 -15 224 -18 256 -27 265 -5 5 -9 37 -9 71 0 35 -4 66 -10 69 -5 3 -10 39 -10 79 0 39 -4 76 -9 81 -5 6 -12 39 -15 75 -10 123 -18 175 -27 185 -5 5 -9 35 -9 66 0 32 -4 61 -10 64 -5 3 -10 31 -10 61 0 30 -4 54 -10 54 -6 0 -10 26 -10 58 0 32 -4 62 -9 67 -5 6 -11 28 -14 50 -4 22 -11 63 -16 90 -25 124 -33 163 -38 205 -3 25 -9 49 -14 55 -5 5 -9 28 -9 52 0 24 -4 43 -10 43 -5 0 -10 18 -10 39 0 22 -4 43 -10 46 -5 3 -10 26 -10 51 0 24 -4 44 -10 44 -5 0 -10 18 -10 40 0 22 -4 40 -9 40 -9 0 -16 35 -27 133 -3 26 -10 47 -15 47 -5 0 -9 11 -9 24 0 14 -4 27 -9 30 -5 3 -11 23 -14 43 -3 21 -11 58 -17 83 -6 25 -14 62 -17 83 -3 20 -9 37 -14 37 -5 0 -9 18 -9 39 0 22 -4 43 -10 46 -5 3 -10 17 -10 31 0 13 -3 24 -7 24 -10 0 -33 49 -33 71 0 9 -7 22 -15 29 -9 7 -26 36 -39 64 -22 48 -112 146 -133 146 -6 0 -20 9 -33 20 -13 11 -33 20 -46 20 -13 0 -26 5 -29 10 -3 6 -19 10 -34 10 -15 0 -32 5 -38 11 -20 20 -294 -4 -343 -30 -14 -8 -49 -38 -79 -67 -30 -30 -60 -54 -66 -54 -7 0 -20 -9 -30 -20 -10 -11 -23 -20 -29 -20 -7 0 -18 -9 -26 -20 -8 -11 -23 -20 -34 -20 -11 0 -49 -14 -85 -31 -118 -56 -178 -74 -223 -65 -18 4 -51 10 -73 13 -22 3 -44 9 -49 14 -6 5 -34 9 -62 9 -29 0 -56 5 -59 10 -3 6 -30 10 -60 10 -30 0 -57 5 -60 10 -3 6 -33 10 -65 10 -32 0 -62 5 -65 10 -3 6 -30 10 -60 10 -30 0 -57 5 -60 10 -3 6 -31 10 -61 10 -30 0 -54 5 -54 10 0 6 -30 10 -69 10 -39 0 -73 5 -76 10 -3 6 -35 10 -70 10 -35 0 -67 5 -70 10 -3 6 -33 10 -65 10 -32 0 -62 5 -65 10 -3 6 -39 10 -80 10 -41 0 -77 5 -80 10 -3 6 -37 10 -75 10 -38 0 -72 5 -75 10 -3 6 -42 10 -85 10 -43 0 -82 5 -85 10 -3 6 -42 10 -86 10 -46 0 -79 4 -79 10 0 6 -35 10 -84 10 -47 0 -88 5 -91 10 -3 6 -48 10 -99 10 -50 0 -96 4 -101 9 -6 5 -55 12 -110 15 -55 4 -145 9 -200 12 -55 3 -104 10 -110 15 -5 5 -62 9 -127 9 -72 0 -118 4 -118 10 0 6 -47 10 -120 10 -73 0 -120 4 -120 10 0 6 -51 10 -134 10 -79 0 -137 4 -141 10 -4 6 -68 10 -160 10 -92 0 -156 4 -160 10 -4 6 -74 10 -179 10 -96 0 -176 4 -182 10 -9 9 -197 16 -717 25 -241 5 -289 8 -293 20 -5 13 -184 15 -1415 15 -1228 0 -1409 -2 -1416 -15z m2744 -94 c10 -5 145 -10 302 -10 157 -1 289 -5 295 -10 6 -5 105 -9 219 -9 140 0 211 -3 221 -11 9 -7 69 -11 179 -10 91 1 171 -2 178 -7 7 -4 78 -8 158 -9 80 0 155 -6 166 -11 11 -6 76 -12 145 -13 68 -1 129 -5 135 -9 5 -4 62 -8 125 -9 63 -2 126 -7 140 -12 14 -5 81 -12 150 -15 188 -9 283 -16 300 -23 8 -3 53 -7 100 -7 47 -1 90 -4 95 -8 6 -3 51 -9 100 -13 50 -3 106 -10 125 -14 19 -5 62 -9 94 -10 33 -1 64 -5 70 -10 6 -4 46 -8 88 -9 42 0 83 -4 90 -8 7 -5 40 -9 73 -11 33 -1 105 -9 160 -18 55 -9 109 -16 120 -16 11 -1 45 -5 76 -10 30 -5 84 -12 119 -15 35 -3 67 -7 71 -10 4 -2 31 -6 59 -9 28 -3 56 -8 61 -11 5 -3 37 -7 70 -9 34 -3 66 -8 73 -13 6 -5 34 -9 61 -10 28 -1 86 -9 130 -18 44 -9 101 -17 126 -19 26 -1 52 -5 57 -9 6 -4 35 -9 64 -12 29 -3 58 -9 63 -14 10 -7 49 -14 159 -25 27 -3 54 -10 61 -15 16 -13 121 -6 139 9 9 7 22 11 30 8 8 -3 20 1 27 9 6 8 20 12 29 9 9 -3 23 1 30 10 7 8 16 12 22 9 12 -8 141 58 198 101 25 18 50 34 55 34 6 1 31 22 55 47 56 57 90 75 149 78 25 2 53 5 61 9 40 15 122 17 143 2 12 -8 31 -15 43 -15 34 0 114 -45 161 -92 39 -37 135 -207 139 -243 1 -5 6 -21 11 -35 6 -14 9 -28 6 -32 -2 -4 3 -21 12 -39 9 -17 14 -37 11 -45 -3 -8 1 -26 10 -39 9 -13 13 -29 9 -35 -4 -6 1 -27 10 -46 9 -19 13 -39 10 -45 -4 -5 -2 -16 4 -23 6 -7 12 -26 14 -42 2 -17 6 -34 9 -40 4 -5 12 -38 18 -74 7 -36 19 -77 26 -92 8 -14 11 -33 8 -42 -3 -9 0 -24 7 -32 7 -9 15 -33 16 -53 3 -56 13 -103 29 -138 8 -18 12 -43 8 -57 -3 -13 -1 -27 5 -30 6 -4 11 -22 11 -39 0 -18 7 -51 15 -74 8 -23 12 -49 9 -57 -3 -8 1 -25 9 -38 8 -13 13 -36 13 -53 -1 -16 2 -36 8 -43 5 -7 9 -34 9 -60 0 -26 4 -53 10 -60 6 -8 11 -30 12 -50 1 -21 6 -46 12 -57 6 -11 9 -33 6 -48 -3 -15 0 -39 6 -55 6 -15 13 -48 15 -74 3 -26 7 -52 10 -56 3 -5 6 -34 7 -63 1 -30 5 -61 10 -70 5 -9 10 -43 13 -75 2 -33 6 -66 9 -74 3 -8 8 -40 11 -70 3 -30 9 -68 14 -85 4 -16 7 -52 5 -79 -1 -28 2 -56 8 -62 6 -7 12 -48 14 -91 2 -43 8 -98 13 -123 5 -25 9 -63 7 -85 -1 -22 4 -52 11 -67 10 -18 12 -53 10 -109 -3 -49 0 -92 6 -104 6 -11 12 -72 13 -136 2 -64 6 -123 11 -130 4 -7 7 -85 7 -173 -1 -89 3 -168 8 -177 10 -20 14 -1552 4 -1570 -5 -7 -9 -88 -10 -179 -1 -92 -6 -173 -10 -180 -4 -7 -7 -62 -7 -123 1 -71 -3 -119 -12 -136 -7 -15 -14 -70 -15 -130 -1 -58 -4 -109 -8 -114 -3 -5 -7 -48 -9 -95 -3 -48 -7 -94 -11 -102 -3 -8 -7 -48 -9 -89 -1 -40 -6 -81 -9 -90 -4 -9 -9 -47 -11 -85 -3 -39 -8 -75 -13 -80 -4 -6 -7 -38 -6 -71 0 -33 -3 -68 -8 -79 -5 -10 -11 -46 -14 -80 -3 -33 -9 -67 -15 -73 -6 -7 -8 -23 -6 -36 2 -13 -1 -61 -8 -108 -6 -46 -10 -87 -8 -91 3 -4 -2 -21 -11 -37 -8 -17 -15 -50 -15 -75 0 -25 -4 -47 -8 -50 -5 -3 -9 -28 -9 -56 -1 -28 -6 -57 -11 -63 -5 -7 -9 -33 -9 -59 0 -26 -6 -54 -13 -63 -7 -9 -10 -25 -6 -41 4 -16 1 -35 -8 -48 -7 -12 -17 -49 -20 -82 -11 -117 -14 -135 -25 -148 -7 -8 -9 -25 -6 -39 4 -15 0 -37 -9 -55 -9 -17 -16 -47 -16 -66 0 -19 -5 -38 -11 -42 -6 -3 -8 -16 -5 -27 5 -21 -9 -93 -27 -137 -5 -14 -12 -41 -14 -60 -2 -19 -8 -47 -14 -62 -6 -16 -9 -37 -6 -47 3 -11 -1 -28 -8 -39 -8 -10 -12 -27 -10 -38 1 -10 -3 -29 -11 -40 -7 -12 -10 -31 -7 -43 3 -12 1 -27 -5 -34 -5 -6 -13 -28 -17 -47 -4 -19 -11 -39 -15 -45 -4 -5 -10 -30 -13 -55 -3 -25 -10 -65 -17 -90 -6 -25 -14 -60 -17 -78 -3 -18 -9 -35 -14 -38 -5 -3 -9 -18 -9 -34 0 -17 -9 -53 -20 -82 -11 -29 -20 -63 -20 -75 0 -12 -5 -25 -11 -28 -6 -4 -8 -14 -5 -22 6 -14 -5 -57 -45 -174 -10 -30 -19 -65 -19 -77 0 -11 -4 -23 -9 -26 -5 -3 -12 -26 -15 -50 -7 -46 -38 -141 -49 -153 -4 -3 -7 -19 -7 -34 0 -16 -5 -41 -11 -56 -6 -15 -15 -37 -20 -48 -4 -11 -13 -45 -20 -75 -6 -30 -15 -60 -20 -66 -5 -6 -6 -13 -3 -17 3 -3 0 -16 -7 -29 -7 -12 -12 -27 -11 -31 1 -4 -3 -18 -10 -30 -7 -12 -11 -29 -10 -38 2 -9 -4 -21 -12 -28 -8 -7 -12 -19 -9 -27 3 -8 1 -20 -5 -27 -14 -17 -42 -99 -37 -108 3 -4 -2 -12 -10 -19 -8 -7 -15 -27 -15 -46 0 -18 -5 -36 -10 -39 -6 -4 -8 -15 -5 -25 3 -10 1 -21 -5 -25 -13 -8 -34 -56 -31 -69 1 -4 -5 -19 -14 -32 -8 -13 -15 -32 -15 -43 0 -11 -5 -23 -10 -26 -6 -4 -9 -12 -8 -18 2 -11 -4 -32 -32 -102 -4 -11 -13 -40 -20 -63 -6 -24 -20 -59 -31 -78 -10 -19 -19 -43 -19 -54 0 -10 -4 -22 -10 -25 -6 -3 -10 -17 -10 -30 0 -13 -5 -27 -10 -30 -6 -3 -10 -16 -10 -29 0 -12 -4 -26 -9 -31 -5 -6 -19 -39 -31 -75 -27 -83 -28 -84 -26 -91 0 -4 -7 -16 -17 -26 -9 -11 -14 -22 -11 -26 4 -4 -1 -18 -10 -31 -9 -14 -16 -32 -16 -40 0 -9 -9 -31 -19 -50 -11 -19 -17 -36 -15 -39 5 -4 -17 -55 -67 -162 -11 -22 -19 -46 -19 -53 0 -8 -13 -39 -30 -69 -16 -30 -30 -62 -30 -71 0 -9 -9 -32 -20 -50 -11 -18 -20 -39 -20 -47 0 -8 -9 -30 -19 -49 -11 -19 -18 -36 -15 -39 2 -2 -2 -10 -11 -17 -8 -7 -15 -20 -15 -30 0 -9 -11 -39 -25 -66 -14 -27 -25 -54 -25 -60 0 -6 -20 -52 -45 -102 -25 -50 -45 -97 -45 -105 0 -7 -5 -18 -12 -25 -7 -7 -9 -12 -5 -12 4 0 -4 -18 -17 -39 -14 -22 -28 -51 -32 -65 -3 -14 -44 -102 -90 -196 -46 -93 -84 -176 -84 -182 0 -7 -9 -28 -20 -46 -11 -17 -17 -32 -13 -32 3 0 -1 -8 -9 -17 -8 -10 -81 -152 -162 -315 -81 -164 -151 -300 -155 -302 -4 -3 -39 -67 -76 -143 -38 -76 -74 -145 -81 -153 -6 -8 -30 -52 -54 -97 -23 -46 -46 -85 -51 -89 -10 -6 -54 -96 -51 -106 1 -3 -5 -12 -13 -18 -8 -7 -15 -18 -15 -25 0 -7 -7 -18 -15 -25 -9 -7 -25 -32 -36 -54 -11 -23 -28 -54 -39 -71 -22 -33 -40 -72 -40 -84 0 -4 -9 -16 -21 -27 -11 -10 -27 -34 -35 -54 -8 -19 -23 -44 -32 -55 -10 -11 -24 -33 -32 -50 -8 -16 -27 -49 -42 -71 -16 -23 -28 -46 -28 -52 0 -5 -7 -15 -15 -22 -9 -7 -25 -33 -35 -56 -11 -24 -25 -46 -31 -49 -5 -4 -15 -17 -20 -28 -17 -38 -63 -114 -83 -136 -11 -12 -15 -21 -11 -21 5 0 -3 -12 -17 -28 -13 -15 -32 -43 -41 -63 -9 -20 -23 -42 -32 -49 -8 -7 -13 -16 -10 -20 2 -4 -7 -18 -20 -30 -14 -13 -25 -29 -25 -35 0 -7 -9 -20 -20 -30 -11 -10 -20 -23 -20 -30 0 -7 -9 -20 -20 -30 -11 -10 -18 -21 -15 -25 2 -4 -7 -18 -20 -30 -14 -13 -25 -29 -25 -35 0 -7 -9 -20 -20 -30 -11 -10 -20 -22 -20 -27 0 -4 -16 -31 -35 -58 -19 -27 -35 -54 -35 -58 0 -5 -11 -19 -25 -32 -13 -12 -22 -26 -20 -30 2 -4 -7 -18 -20 -30 -14 -13 -25 -27 -25 -32 0 -9 -29 -53 -70 -105 -34 -43 -65 -87 -65 -93 0 -8 -37 -58 -72 -100 -18 -20 -33 -42 -33 -47 0 -6 -7 -17 -16 -24 -9 -8 -28 -31 -43 -53 -66 -100 -85 -125 -128 -176 -18 -20 -33 -41 -33 -45 0 -7 -26 -41 -87 -114 -18 -21 -33 -42 -33 -46 0 -4 -17 -27 -37 -51 -80 -92 -103 -122 -103 -131 0 -5 -18 -27 -40 -48 -22 -21 -40 -44 -40 -50 0 -6 -16 -26 -35 -45 -19 -19 -35 -39 -35 -45 0 -6 -20 -31 -45 -55 -24 -24 -42 -46 -40 -50 2 -4 -20 -31 -50 -60 -30 -30 -55 -59 -55 -64 0 -5 -21 -33 -47 -62 -27 -30 -75 -86 -108 -124 -33 -39 -88 -101 -122 -139 -35 -37 -63 -72 -63 -77 0 -5 -38 -47 -85 -94 -47 -47 -85 -89 -85 -95 0 -6 -70 -80 -155 -165 -85 -85 -155 -159 -155 -165 0 -13 -422 -435 -435 -435 -6 0 -69 -58 -140 -130 -71 -71 -134 -130 -140 -130 -6 0 -46 -36 -90 -80 -44 -44 -84 -80 -89 -80 -5 0 -45 -33 -88 -72 -125 -117 -184 -168 -194 -168 -6 0 -28 -18 -49 -40 -21 -22 -44 -40 -50 -40 -6 0 -29 -18 -50 -40 -21 -22 -43 -40 -48 -40 -6 0 -32 -19 -58 -42 -72 -64 -116 -98 -126 -98 -5 0 -22 -13 -38 -30 -16 -16 -33 -30 -38 -30 -5 0 -27 -15 -48 -32 -77 -66 -107 -88 -116 -88 -6 0 -18 -10 -29 -21 -10 -12 -28 -25 -39 -31 -38 -17 -66 -35 -93 -59 -36 -33 -89 -69 -100 -69 -5 0 -17 -9 -27 -20 -10 -11 -24 -20 -30 -20 -7 0 -18 -7 -25 -15 -7 -9 -32 -25 -55 -35 -23 -10 -48 -26 -55 -35 -7 -8 -18 -15 -25 -15 -7 0 -18 -7 -25 -15 -7 -9 -33 -25 -56 -35 -24 -11 -46 -25 -50 -31 -3 -6 -26 -20 -50 -30 -24 -11 -46 -24 -49 -30 -4 -5 -37 -25 -73 -45 -37 -19 -91 -48 -121 -65 -49 -26 -56 -28 -71 -14 -9 8 -21 15 -27 15 -5 0 -18 9 -29 21 -10 11 -34 27 -54 35 -19 8 -45 25 -57 36 -13 12 -23 18 -23 13 0 -5 -10 0 -22 11 -13 11 -36 29 -52 40 -16 10 -41 27 -55 36 -14 10 -35 22 -46 27 -11 5 -29 18 -39 30 -11 11 -24 21 -31 21 -7 0 -20 9 -30 20 -10 11 -23 20 -29 21 -6 0 -31 16 -56 35 -25 18 -54 38 -65 43 -11 5 -31 21 -44 35 -14 14 -30 26 -36 26 -7 0 -20 9 -30 20 -10 11 -21 18 -25 15 -4 -2 -22 11 -40 30 -19 19 -39 35 -45 35 -6 0 -22 12 -36 26 -13 14 -33 30 -44 35 -44 21 -69 39 -109 78 -23 23 -45 41 -50 41 -8 0 -40 24 -115 88 -21 17 -43 32 -48 32 -5 0 -27 18 -48 40 -21 22 -44 40 -50 40 -6 0 -29 18 -50 40 -21 22 -44 40 -50 40 -6 0 -33 22 -60 50 -27 27 -54 50 -59 50 -9 0 -58 42 -184 157 -38 35 -72 63 -77 63 -9 0 -89 72 -263 238 -60 56 -112 102 -118 102 -12 0 -834 822 -834 834 0 6 -46 58 -102 118 -191 201 -258 274 -258 283 0 5 -28 39 -63 76 -34 38 -84 95 -112 129 -27 33 -74 87 -102 119 -29 32 -53 62 -53 67 0 6 -16 25 -35 44 -19 19 -35 39 -35 45 0 6 -18 29 -40 50 -22 21 -40 44 -40 50 0 6 -18 29 -40 50 -22 21 -40 43 -40 48 0 6 -19 32 -42 58 -61 68 -98 116 -98 124 0 4 -15 25 -32 46 -62 73 -88 107 -88 114 0 4 -15 25 -33 46 -64 77 -87 107 -87 116 0 5 -11 20 -25 33 -13 12 -22 26 -20 30 3 4 -5 16 -16 26 -12 11 -41 48 -64 84 -24 36 -50 72 -59 79 -9 7 -16 19 -16 26 0 6 -9 20 -20 30 -11 10 -20 23 -20 30 0 7 -9 20 -20 30 -11 10 -20 23 -20 30 0 6 -14 24 -30 40 -17 16 -30 34 -30 40 0 7 -9 20 -20 30 -11 10 -20 23 -20 30 0 7 -9 20 -20 30 -11 10 -20 23 -20 30 0 7 -9 20 -20 30 -11 10 -20 23 -20 30 0 7 -10 20 -21 31 -12 10 -25 28 -31 39 -14 31 -33 63 -49 82 -8 10 -21 32 -29 48 -8 17 -21 38 -29 48 -8 9 -19 26 -25 36 -6 11 -26 40 -43 66 -18 25 -33 48 -33 52 0 3 -13 25 -30 50 -16 24 -30 47 -30 52 0 4 -11 18 -25 31 -13 12 -24 25 -23 29 2 11 -21 59 -31 66 -6 3 -20 26 -31 50 -11 24 -24 47 -30 50 -6 3 -19 25 -30 49 -10 23 -25 48 -33 55 -8 6 -21 26 -28 44 -6 18 -22 43 -34 57 -13 14 -26 36 -30 50 -4 14 -19 43 -34 65 -15 22 -39 66 -54 97 -16 32 -32 60 -37 63 -5 3 -27 42 -50 88 -23 45 -48 89 -56 98 -8 8 -14 19 -14 22 0 4 -11 24 -24 45 -12 20 -23 39 -23 42 1 11 -64 140 -73 145 -5 3 -82 151 -171 328 -88 177 -165 329 -169 337 -41 74 -129 264 -125 268 3 3 -2 14 -12 24 -9 10 -12 18 -8 18 4 0 0 9 -10 20 -10 11 -15 20 -12 20 4 0 -5 21 -20 47 -45 81 -53 97 -53 112 0 8 -20 56 -44 105 -24 50 -52 111 -62 136 -10 25 -23 52 -30 60 -6 8 -9 21 -7 28 3 7 -2 21 -10 30 -9 9 -15 19 -15 22 1 3 -6 21 -14 40 -9 19 -22 51 -29 70 -7 19 -23 51 -35 71 -13 20 -21 39 -18 42 3 3 -4 24 -15 48 -12 23 -21 49 -21 56 0 7 -11 32 -25 56 -13 25 -22 47 -19 50 3 2 -4 21 -16 41 -11 20 -20 43 -20 51 0 8 -11 34 -25 59 -14 25 -25 50 -25 56 0 7 -6 26 -14 43 -8 18 -22 54 -30 80 -9 27 -23 61 -31 77 -8 16 -15 37 -15 48 0 10 -6 24 -12 30 -7 7 -13 16 -13 20 -1 4 -6 17 -13 29 -7 12 -11 26 -10 30 1 4 -3 18 -10 31 -7 12 -10 27 -7 32 3 5 1 11 -5 15 -5 3 -10 17 -10 30 0 13 -4 27 -10 30 -5 3 -10 15 -10 25 0 11 -11 40 -25 65 -14 25 -23 49 -21 54 3 5 -1 14 -9 21 -9 7 -13 21 -10 31 3 9 1 20 -5 24 -5 3 -10 16 -10 28 0 12 -7 31 -15 41 -8 10 -12 23 -9 28 3 5 1 15 -5 22 -6 7 -12 22 -14 34 -2 12 -6 25 -10 28 -4 4 -7 18 -7 30 0 13 -4 26 -10 29 -5 3 -10 17 -10 30 0 13 -4 27 -10 30 -9 5 -33 76 -35 100 0 6 -5 17 -10 25 -5 8 -8 22 -7 32 2 9 -2 19 -8 23 -5 3 -10 16 -10 28 0 12 -7 30 -15 40 -7 11 -11 25 -9 32 3 7 1 16 -5 20 -6 3 -11 16 -11 28 0 12 -7 31 -15 41 -8 10 -12 23 -9 28 3 5 0 16 -7 24 -6 8 -12 28 -11 44 0 16 -6 34 -13 40 -8 6 -11 18 -9 25 3 7 -2 25 -11 39 -9 14 -14 30 -11 35 4 5 2 12 -2 15 -5 3 -15 34 -22 68 -7 35 -17 67 -21 72 -5 6 -9 20 -9 32 0 13 -4 26 -10 29 -5 3 -10 21 -10 40 0 19 -4 37 -10 40 -5 3 -10 21 -10 40 0 19 -4 37 -10 40 -5 3 -10 17 -10 29 0 13 -6 29 -14 35 -7 6 -11 22 -9 35 3 13 -3 36 -12 50 -10 15 -15 29 -11 33 3 3 1 11 -4 18 -5 7 -11 25 -13 41 -2 17 -6 34 -9 39 -3 6 -15 55 -28 110 -12 55 -28 114 -35 131 -7 17 -16 57 -20 90 -4 32 -11 64 -16 70 -5 6 -10 25 -12 42 -2 18 -7 35 -10 39 -4 3 -7 20 -7 37 0 17 -7 40 -15 50 -8 11 -12 28 -9 38 3 11 0 25 -6 33 -7 8 -12 31 -13 52 0 21 -5 44 -10 51 -10 13 -12 24 -23 117 -4 28 -10 55 -15 61 -5 6 -11 24 -13 40 -2 16 -6 36 -10 44 -4 9 -8 31 -11 50 -2 19 -8 55 -14 80 -5 25 -7 48 -5 52 2 4 0 9 -6 13 -5 3 -10 21 -10 38 0 18 -7 45 -16 62 -8 16 -13 39 -10 50 3 11 -1 39 -9 62 -8 23 -12 49 -9 58 4 8 1 22 -6 30 -7 8 -13 35 -14 60 -1 25 -5 48 -9 51 -4 4 -7 25 -7 46 0 22 -7 52 -15 69 -9 16 -13 34 -10 39 3 5 0 30 -6 57 -6 26 -11 61 -10 78 1 16 -3 41 -8 55 -6 14 -12 45 -14 70 -1 25 -6 51 -11 58 -4 7 -9 40 -10 72 -1 32 -5 62 -9 66 -4 4 -7 23 -7 43 0 20 -7 57 -14 83 -8 25 -13 68 -11 95 2 26 0 53 -5 58 -8 11 -15 66 -26 205 -3 47 -10 90 -15 96 -11 13 -29 176 -29 262 0 35 -5 72 -10 82 -6 11 -12 62 -14 114 -2 52 -7 100 -11 106 -4 6 -7 59 -7 118 -1 59 -5 112 -9 117 -8 12 -18 175 -25 455 -4 127 -10 200 -17 209 -17 20 -21 1439 -5 1496 6 22 13 111 14 197 2 87 8 167 14 178 6 11 10 70 9 139 -1 66 2 126 7 133 6 7 11 54 12 103 2 50 5 103 9 119 7 39 10 72 18 216 4 69 12 131 18 138 5 6 11 40 14 74 2 34 8 67 12 72 5 6 11 56 15 111 10 138 11 147 24 172 6 11 11 44 11 72 -1 28 3 56 8 63 5 7 10 34 11 59 1 25 6 58 12 73 5 15 10 40 10 56 0 16 4 32 10 35 5 3 8 25 6 48 -2 23 2 56 9 72 13 29 21 69 29 147 2 21 8 43 13 50 10 12 17 43 28 132 2 21 9 44 14 50 9 11 17 57 25 128 2 21 8 43 13 50 9 12 20 63 27 125 1 12 8 29 15 37 8 9 11 25 8 35 -3 11 2 29 10 40 8 12 12 25 9 30 -6 8 25 106 37 118 4 3 7 26 7 49 0 24 5 46 10 49 6 3 10 21 10 40 0 19 4 36 10 40 5 3 7 11 4 19 -3 7 1 26 7 42 7 16 13 34 13 39 2 18 27 78 78 185 40 83 64 120 117 173 73 76 106 97 149 97 15 0 33 5 38 10 17 17 126 20 149 4 11 -8 31 -14 45 -14 14 0 40 -9 58 -20 18 -11 40 -20 50 -20 10 0 46 -18 80 -40 33 -22 65 -40 70 -40 5 0 17 -9 27 -20 10 -11 23 -20 28 -20 9 0 25 -13 139 -111 29 -25 52 -38 59 -33 7 4 27 9 43 10 17 2 60 6 96 10 36 3 69 10 75 15 5 5 27 9 50 9 22 0 60 7 84 15 24 9 52 13 62 10 10 -3 28 -1 40 6 13 6 43 12 68 13 25 1 51 5 58 9 6 4 38 9 70 12 92 8 202 23 214 30 5 4 37 8 70 9 32 2 62 6 66 9 3 4 38 7 78 7 39 0 75 4 81 10 5 5 41 11 79 14 39 2 77 7 85 10 8 3 47 8 85 11 39 4 109 10 156 14 48 5 91 11 97 15 6 3 46 7 89 7 43 1 84 6 90 12 7 5 52 10 100 11 49 0 94 5 101 10 8 4 54 8 103 9 49 0 92 4 95 8 3 5 52 9 110 9 58 0 115 5 126 11 11 6 64 12 118 13 53 2 102 6 109 10 6 4 62 7 123 7 62 1 120 5 130 10 10 5 48 10 86 10 37 0 110 5 162 10 52 5 147 12 210 14 63 3 153 9 200 15 47 5 99 7 115 4 17 -2 62 0 100 6 39 6 149 11 245 13 96 1 182 6 190 12 8 5 107 10 225 11 116 0 221 4 235 8 14 3 160 8 325 10 165 2 318 7 339 12 54 12 2581 8 2603 -5z" fill="#000000" style="fill-opacity:1;stroke:none"/>
    <path d="M7975 20470 c-4 -6 -215 -10 -600 -10 -385 0 -596 -4 -600 -10 -4 -6 -103 -10 -266 -10 -258 0 -281 -3 -314 -35 -20 -20 -35 -55 -35 -80 0 -14 -4 -25 -10 -25 -5 0 -10 -13 -10 -29 0 -17 5 -33 10 -36 7 -4 10 -1141 10 -3379 0 -3673 4 -3411 -55 -3442 -22 -11 -112 -14 -486 -14 -299 0 -459 -3 -459 -10 0 -7 -743 -10 -2209 -10 -1463 0 -2212 -3 -2216 -10 -3 -5 -21 -10 -39 -10 -34 0 -76 -36 -76 -65 0 -8 -4 -15 -10 -15 -13 0 -13 -177 0 -185 6 -3 10 -26 10 -50 0 -24 5 -47 10 -50 6 -3 10 -35 10 -70 0 -35 5 -67 10 -70 6 -3 10 -26 10 -51 0 -24 5 -44 10 -44 6 0 10 -27 10 -60 0 -33 4 -60 10 -60 6 0 10 -26 10 -59 0 -33 4 -63 10 -66 5 -3 10 -26 10 -51 0 -24 5 -44 10 -44 6 0 10 -22 10 -49 0 -28 5 -53 10 -56 6 -3 10 -26 10 -50 0 -24 5 -47 10 -50 6 -3 10 -26 10 -50 0 -24 5 -47 10 -50 6 -3 10 -26 10 -50 0 -24 5 -47 10 -50 6 -3 10 -22 10 -41 0 -19 5 -34 10 -34 6 0 10 -22 10 -49 0 -28 5 -53 10 -56 6 -3 10 -22 10 -41 0 -19 5 -34 10 -34 6 0 10 -22 10 -49 0 -28 5 -53 10 -56 6 -3 10 -21 10 -40 0 -19 5 -37 10 -40 6 -3 10 -21 10 -40 0 -19 5 -37 10 -40 6 -3 10 -21 10 -40 0 -19 5 -37 10 -40 6 -3 10 -21 10 -40 0 -19 5 -37 10 -40 6 -3 10 -21 10 -40 0 -19 5 -37 10 -40 6 -3 10 -22 10 -41 0 -19 5 -34 10 -34 6 0 10 -18 10 -39 0 -22 5 -43 10 -46 6 -3 10 -21 10 -40 0 -19 4 -37 10 -40 5 -3 10 -21 10 -40 0 -19 5 -37 10 -40 6 -3 10 -17 10 -30 0 -13 5 -27 10 -30 6 -3 10 -21 10 -40 0 -19 5 -37 10 -40 6 -3 10 -17 10 -30 0 -13 5 -27 10 -30 6 -3 10 -22 10 -41 0 -19 5 -34 10 -34 6 0 10 -13 10 -30 0 -16 5 -30 10 -30 6 0 10 -18 10 -39 0 -22 5 -43 10 -46 6 -3 10 -17 10 -30 0 -13 5 -27 10 -30 6 -3 10 -21 10 -40 0 -19 5 -37 10 -40 6 -3 10 -17 10 -30 0 -13 5 -27 10 -30 6 -3 10 -17 10 -30 0 -13 5 -27 10 -30 6 -3 10 -17 10 -30 0 -13 4 -27 10 -30 5 -3 10 -22 10 -41 0 -19 5 -34 10 -34 6 0 10 -13 10 -29 0 -17 5 -33 10 -36 6 -3 10 -17 10 -30 0 -13 5 -27 10 -30 6 -3 10 -17 10 -30 0 -13 5 -27 10 -30 6 -3 10 -17 10 -30 0 -13 5 -27 10 -30 6 -3 10 -17 10 -30 0 -13 5 -27 10 -30 6 -3 10 -17 10 -31 0 -13 5 -24 10 -24 6 0 10 -13 10 -29 0 -17 5 -33 10 -36 6 -3 10 -17 10 -31 0 -13 5 -24 10 -24 6 0 10 -13 10 -29 0 -17 5 -33 10 -36 6 -3 10 -15 10 -25 0 -11 9 -35 20 -55 11 -20 20 -44 20 -55 0 -10 5 -22 10 -25 6 -3 10 -17 10 -30 0 -13 4 -27 10 -30 5 -3 10 -15 10 -25 0 -11 9 -35 20 -55 11 -20 20 -44 20 -55 0 -10 5 -22 10 -25 6 -3 10 -17 10 -30 0 -13 5 -27 10 -30 6 -3 10 -14 10 -24 0 -21 22 -71 33 -71 4 0 7 -11 7 -25 0 -13 9 -40 20 -60 11 -20 20 -44 20 -55 0 -10 5 -22 10 -25 6 -3 10 -17 10 -31 0 -13 5 -24 10 -24 6 0 10 -9 10 -20 0 -11 5 -20 10 -20 6 0 10 -11 10 -25 0 -13 9 -40 20 -60 11 -20 20 -42 20 -49 0 -8 14 -40 30 -71 17 -31 30 -62 30 -69 0 -18 24 -66 33 -66 4 0 7 -10 7 -23 0 -26 21 -77 33 -77 4 0 7 -9 7 -20 0 -11 5 -20 10 -20 6 0 10 -11 10 -24 0 -24 39 -108 53 -114 4 -2 7 -14 7 -26 0 -24 59 -148 73 -154 4 -2 7 -14 7 -26 0 -26 21 -76 33 -76 4 0 7 -6 7 -14 0 -8 14 -40 30 -71 17 -31 30 -62 30 -69 0 -18 24 -66 33 -66 4 0 7 -6 7 -14 0 -17 42 -100 53 -104 4 -2 7 -12 7 -23 0 -10 5 -19 10 -19 6 0 10 -6 10 -14 0 -16 62 -140 73 -144 4 -2 7 -10 7 -17 0 -16 42 -99 53 -103 4 -2 7 -12 7 -23 0 -10 5 -19 10 -19 6 0 10 -6 10 -14 0 -16 62 -140 73 -144 4 -2 7 -10 7 -17 0 -16 42 -99 53 -103 4 -2 7 -12 7 -23 0 -10 5 -19 10 -19 6 0 10 -6 10 -14 0 -16 60 -136 78 -155 7 -7 21 -31 30 -52 9 -22 20 -39 24 -39 5 0 8 -6 8 -13 0 -19 48 -113 65 -127 8 -7 15 -19 15 -26 0 -8 5 -14 10 -14 6 0 10 -7 10 -15 0 -16 18 -51 37 -72 6 -7 24 -39 39 -70 16 -32 34 -64 40 -70 7 -7 25 -39 40 -70 16 -32 34 -64 41 -71 7 -8 22 -33 33 -57 11 -24 24 -47 30 -50 6 -3 19 -25 30 -49 10 -23 26 -49 35 -56 8 -7 15 -19 15 -26 0 -8 5 -14 10 -14 6 0 10 -9 10 -20 0 -11 4 -20 9 -20 5 0 16 -16 26 -36 9 -19 23 -38 31 -41 8 -3 14 -11 14 -18 0 -18 28 -71 45 -85 8 -7 15 -18 15 -25 0 -7 7 -18 15 -25 9 -7 23 -29 32 -49 10 -20 25 -45 35 -55 10 -11 18 -25 18 -31 0 -7 9 -20 20 -30 11 -10 20 -23 20 -30 0 -7 9 -20 20 -30 11 -10 20 -24 20 -31 0 -8 9 -19 20 -26 11 -7 20 -20 20 -29 0 -9 9 -24 20 -34 11 -10 20 -23 20 -30 0 -7 9 -20 20 -30 11 -10 20 -24 20 -31 0 -8 9 -19 20 -26 11 -7 20 -20 20 -29 0 -9 9 -24 20 -34 11 -10 20 -24 20 -32 0 -7 4 -13 9 -13 5 0 16 -15 25 -34 8 -18 22 -39 31 -46 8 -7 15 -18 15 -25 0 -7 13 -23 30 -36 16 -13 30 -32 30 -41 0 -10 4 -18 9 -18 5 0 16 -15 24 -33 9 -18 27 -43 41 -56 14 -14 26 -30 26 -36 0 -7 9 -20 20 -30 11 -10 20 -23 20 -30 0 -6 13 -24 30 -40 17 -16 30 -34 30 -40 0 -6 14 -24 30 -40 17 -16 30 -34 30 -40 0 -7 9 -20 20 -30 11 -10 20 -23 20 -28 0 -6 18 -28 40 -49 22 -22 40 -44 40 -49 0 -6 13 -24 30 -42 16 -18 30 -37 30 -43 0 -5 14 -23 30 -39 17 -16 30 -34 30 -39 1 -6 19 -29 40 -51 22 -22 40 -44 40 -48 0 -4 13 -22 30 -40 16 -18 30 -37 30 -42 0 -6 18 -29 40 -50 22 -21 40 -44 40 -50 0 -6 23 -33 50 -60 28 -27 50 -54 50 -60 0 -6 22 -33 50 -60 27 -27 50 -54 50 -61 0 -6 22 -31 50 -56 27 -25 50 -52 50 -60 0 -8 27 -40 60 -72 33 -32 60 -63 60 -70 0 -6 36 -47 80 -90 44 -44 80 -84 80 -90 0 -6 45 -56 100 -110 55 -54 100 -104 100 -110 0 -13 922 -936 936 -936 5 0 54 -45 109 -100 55 -55 105 -100 111 -100 7 0 43 -31 82 -70 38 -38 74 -70 80 -70 5 0 40 -32 78 -70 37 -39 73 -70 79 -70 6 0 34 -23 62 -50 28 -28 56 -50 60 -50 5 0 27 -18 48 -40 21 -22 44 -40 50 -40 6 0 33 -22 60 -50 27 -27 55 -50 61 -50 7 0 29 -18 50 -40 21 -22 43 -40 49 -40 6 0 24 -14 40 -30 16 -17 34 -30 41 -30 7 0 30 -18 52 -40 21 -22 44 -40 50 -40 5 0 23 -14 39 -30 15 -17 32 -30 38 -30 5 0 24 -14 42 -30 18 -17 36 -30 41 -30 4 0 21 -14 37 -30 16 -17 34 -30 40 -30 6 0 24 -14 40 -30 16 -17 34 -30 40 -30 7 0 20 -9 30 -20 10 -11 24 -20 31 -20 6 0 22 -11 35 -25 13 -14 39 -33 57 -41 17 -9 32 -20 32 -25 0 -5 6 -9 14 -9 7 0 27 -14 44 -30 18 -17 38 -30 45 -30 6 0 18 -9 25 -20 7 -11 18 -20 26 -20 7 0 21 -9 31 -20 10 -11 23 -20 30 -20 7 0 20 -9 30 -20 23 -26 67 -26 90 0 10 11 24 20 30 20 7 0 18 7 25 15 7 9 32 25 55 35 23 10 48 26 55 35 7 8 19 15 26 15 8 0 19 9 26 20 7 11 20 20 29 20 9 0 24 9 34 20 10 11 23 20 30 20 7 0 20 9 30 20 10 11 23 20 30 20 7 0 20 9 30 20 10 11 24 20 32 20 7 0 13 4 13 9 0 5 15 16 34 25 18 8 39 22 46 31 7 8 18 15 25 15 6 0 20 9 30 20 10 11 23 20 30 20 6 0 24 14 40 30 16 17 35 30 42 30 7 0 13 4 13 9 0 5 15 16 33 24 18 9 43 27 56 41 14 14 29 26 34 26 5 0 22 13 37 30 15 16 34 30 42 30 8 0 27 13 43 30 16 16 34 30 41 30 6 0 22 13 35 30 13 16 31 30 39 30 9 0 34 18 55 40 21 22 44 40 50 40 6 0 28 18 49 40 21 22 42 40 48 40 5 0 27 18 49 40 22 22 45 40 52 40 7 0 35 22 61 50 26 27 54 50 60 50 7 0 39 27 70 60 32 33 62 60 67 60 5 0 46 36 91 80 45 44 85 80 90 80 5 0 68 58 141 130 72 71 136 130 141 130 13 0 516 503 516 516 0 7 63 74 140 150 77 77 140 144 140 150 0 7 36 47 80 90 44 42 80 83 80 90 0 6 31 43 70 80 38 38 70 74 70 81 0 6 27 37 60 69 33 31 60 62 60 68 0 6 23 35 50 63 28 28 50 57 50 62 0 6 18 27 40 47 22 20 40 42 40 49 0 7 23 35 50 61 28 26 50 54 50 62 0 7 14 25 30 39 17 13 30 30 30 37 0 7 18 30 40 51 22 21 40 44 40 50 0 6 14 24 30 40 17 16 30 34 30 40 0 6 18 29 40 50 22 21 40 44 40 50 0 6 14 24 30 40 17 16 30 35 30 43 0 7 13 25 30 39 16 13 30 32 30 41 0 10 9 23 20 30 11 7 20 18 20 25 0 7 14 26 30 42 17 16 30 34 30 41 0 6 11 22 25 35 14 13 33 39 41 57 9 17 20 32 25 32 5 0 9 6 9 14 0 8 14 27 30 43 17 15 30 33 30 39 0 6 9 19 20 29 11 10 20 23 20 30 0 7 9 20 20 30 11 10 20 23 20 29 0 6 14 25 30 43 17 18 30 36 30 41 0 5 9 17 20 27 11 10 20 26 20 35 0 10 6 20 14 23 8 3 22 22 31 41 10 20 21 36 26 36 5 0 9 8 9 18 0 9 9 23 20 30 11 7 20 18 20 26 0 7 9 21 20 31 11 10 20 23 20 30 0 7 9 20 20 30 11 10 20 24 20 30 0 7 7 18 15 25 9 7 25 33 35 56 11 24 24 46 30 49 5 3 17 21 26 40 9 19 20 35 25 35 5 0 9 6 9 14 0 7 7 19 15 26 9 7 25 32 35 55 10 23 26 48 35 55 8 7 15 18 15 25 0 7 7 18 15 25 17 14 45 67 45 85 0 7 7 15 15 18 8 3 23 26 34 51 12 25 25 48 31 51 6 3 19 26 30 50 11 24 26 49 33 57 7 7 21 30 30 50 10 20 23 43 30 50 7 7 21 30 30 50 10 20 23 43 30 50 7 7 25 39 40 70 16 32 32 60 37 63 5 3 27 44 50 90 23 46 45 87 50 90 4 3 25 40 46 83 21 42 44 85 52 94 19 23 122 229 122 245 0 7 5 13 10 13 6 0 10 6 10 14 0 7 7 19 15 26 17 14 45 67 45 86 0 7 3 14 8 16 10 4 52 87 52 104 0 8 5 14 10 14 6 0 10 9 10 20 0 11 3 20 8 20 8 0 32 49 32 67 0 7 3 13 8 13 8 0 32 48 32 66 0 7 3 14 8 16 9 4 132 249 132 264 0 5 32 73 70 149 39 76 70 144 70 150 0 7 18 47 40 90 22 43 40 84 40 91 0 8 5 14 10 14 6 0 10 9 10 19 0 10 14 45 30 76 16 31 30 63 30 71 0 7 9 29 20 49 11 20 20 42 20 50 0 8 5 15 10 15 6 0 10 11 10 24 0 14 4 28 10 31 5 3 10 15 10 26 0 10 3 19 8 19 11 0 32 50 32 76 0 12 3 24 8 26 10 4 52 87 52 104 0 7 9 29 20 49 11 20 20 47 20 60 0 14 5 25 10 25 6 0 10 9 10 20 0 11 5 20 10 20 6 0 10 9 10 20 0 11 9 35 20 55 11 20 20 42 20 50 0 8 9 30 20 50 11 20 20 44 20 55 0 10 5 22 10 25 6 3 10 19 10 36 0 16 3 29 8 29 10 0 32 50 32 71 0 10 5 21 10 24 6 3 10 15 10 25 0 11 9 35 20 55 11 20 20 44 20 55 0 10 5 22 10 25 6 3 10 15 10 25 0 11 9 35 20 55 11 20 20 44 20 55 0 10 5 22 10 25 6 3 10 17 10 30 0 13 5 27 10 30 6 3 10 17 10 30 0 13 4 27 10 30 5 3 10 17 10 30 0 13 4 27 10 30 6 3 10 17 10 30 0 13 5 27 10 30 6 3 10 17 10 30 0 13 5 27 10 30 6 3 10 17 10 30 0 13 5 27 10 30 6 3 10 19 10 36 0 16 5 29 10 29 6 0 10 11 10 24 0 14 5 28 10 31 6 3 10 17 10 30 0 13 5 27 10 30 5 3 10 17 10 30 0 13 5 27 10 30 6 3 10 17 10 30 0 13 5 27 10 30 6 3 10 17 10 30 0 13 5 27 10 30 6 3 10 17 10 30 0 13 5 27 10 30 6 3 10 17 10 30 0 13 5 27 10 30 6 3 10 24 10 46 0 21 5 39 10 39 6 0 10 11 10 24 0 14 5 28 10 31 6 3 10 17 10 30 0 13 5 27 10 30 6 3 10 21 10 40 0 19 5 37 10 40 6 3 10 17 10 30 0 13 5 27 10 30 6 3 10 17 10 30 0 13 5 27 10 30 6 3 10 21 10 40 0 19 5 37 10 40 6 3 10 19 10 36 0 16 5 29 10 29 6 0 10 15 10 34 0 19 5 38 10 41 6 3 10 21 10 40 0 19 5 37 10 40 6 3 10 17 10 30 0 13 5 27 10 30 6 3 10 21 10 40 0 19 5 37 10 40 6 3 10 21 10 40 0 19 5 37 10 40 5 3 10 24 10 46 0 21 5 39 10 39 6 0 10 15 10 34 0 19 5 38 10 41 6 3 10 21 10 40 0 19 5 37 10 40 6 3 10 24 10 46 0 21 5 39 10 39 6 0 10 18 10 40 0 22 5 40 10 40 6 0 10 15 10 34 0 19 5 38 10 41 6 3 10 26 10 50 0 24 5 47 10 50 6 3 10 24 10 46 0 21 5 39 10 39 6 0 10 20 10 44 0 25 5 48 10 51 6 3 10 21 10 40 0 19 5 37 10 40 6 3 10 26 10 50 0 24 5 47 10 50 6 3 10 26 10 50 0 24 5 47 10 50 5 3 10 28 10 56 0 27 5 49 10 49 6 0 10 20 10 44 0 25 5 48 10 51 6 3 10 26 10 50 0 24 5 47 10 50 6 3 10 28 10 56 0 27 5 49 10 49 6 0 10 24 10 54 0 30 5 58 10 61 6 3 10 30 10 60 0 30 5 57 10 60 6 3 10 30 10 60 0 30 5 57 10 60 6 3 10 30 10 60 0 30 5 57 10 60 6 3 10 37 10 76 0 39 4 69 10 69 6 0 10 28 10 64 0 36 5 68 10 71 6 3 10 35 10 70 0 35 5 67 10 70 6 3 10 39 10 80 0 41 5 77 10 80 6 3 10 39 10 80 0 41 5 77 10 80 6 3 10 46 10 96 0 53 4 89 10 89 6 0 10 40 10 100 0 60 4 100 10 100 6 0 10 41 10 104 0 59 4 108 10 111 6 4 10 62 10 140 0 78 4 136 10 140 6 4 10 73 10 176 0 106 4 169 10 169 6 0 10 128 10 364 0 233 4 367 10 371 6 3 10 50 10 105 0 55 -4 102 -10 105 -6 4 -10 135 -10 360 0 225 -4 356 -10 360 -6 4 -10 72 -10 170 0 98 -4 166 -10 170 -6 4 -10 58 -10 131 0 76 -4 124 -10 124 -6 0 -10 43 -10 109 0 63 -4 112 -10 116 -6 3 -10 48 -10 100 0 52 -4 97 -10 100 -5 3 -10 40 -10 81 0 43 -4 74 -10 74 -6 0 -10 33 -10 79 0 44 -4 83 -10 86 -5 3 -10 35 -10 71 0 36 -4 64 -10 64 -6 0 -10 30 -10 69 0 39 -4 73 -10 76 -5 3 -10 30 -10 60 0 30 -4 57 -10 60 -5 3 -10 35 -10 70 0 35 -4 67 -10 70 -5 3 -10 26 -10 50 0 24 -4 47 -10 50 -5 3 -10 31 -10 61 0 30 -4 54 -10 54 -5 0 -10 23 -10 50 0 28 -4 50 -10 50 -6 0 -10 26 -10 59 0 33 -4 63 -10 66 -5 3 -10 26 -10 50 0 24 -4 47 -10 50 -5 3 -10 22 -10 41 0 19 -4 34 -10 34 -5 0 -10 22 -10 49 0 28 -4 53 -10 56 -5 3 -10 21 -10 40 0 19 -4 37 -10 40 -5 3 -10 26 -10 50 0 24 -4 47 -10 50 -5 3 -10 21 -10 40 0 19 -4 37 -10 40 -5 3 -10 21 -10 40 0 19 -4 37 -10 40 -5 3 -10 21 -10 40 0 19 -4 37 -10 40 -5 3 -10 22 -10 41 0 19 -4 34 -10 34 -5 0 -10 22 -10 49 0 28 -4 53 -10 56 -5 3 -10 14 -10 25 0 24 -38 97 -69 132 -50 57 -195 103 -216 68 -3 -5 -14 -10 -24 -10 -31 0 -69 -25 -128 -84 -31 -31 -62 -56 -70 -56 -7 0 -13 -4 -13 -9 0 -5 -15 -16 -34 -25 -18 -8 -39 -22 -46 -31 -7 -8 -19 -15 -26 -15 -8 0 -14 -4 -14 -10 0 -5 -13 -10 -29 -10 -17 0 -33 -4 -36 -10 -3 -5 -17 -10 -30 -10 -13 0 -27 -4 -30 -10 -3 -5 -21 -10 -40 -10 -19 0 -37 -4 -40 -10 -4 -6 -63 -10 -145 -10 -82 0 -141 4 -145 10 -3 6 -28 10 -56 10 -27 0 -49 5 -49 10 0 6 -24 10 -54 10 -30 0 -58 5 -61 10 -3 6 -37 10 -76 10 -39 0 -69 4 -69 10 0 6 -24 10 -54 10 -30 0 -58 5 -61 10 -3 6 -37 10 -76 10 -39 0 -69 4 -69 10 0 6 -28 10 -64 10 -36 0 -68 5 -71 10 -3 6 -35 10 -70 10 -35 0 -67 5 -70 10 -3 6 -37 10 -76 10 -39 0 -69 4 -69 10 0 6 -31 10 -74 10 -41 0 -78 5 -81 10 -3 6 -42 10 -86 10 -46 0 -79 4 -79 10 0 6 -31 10 -74 10 -41 0 -78 5 -81 10 -3 6 -39 10 -80 10 -41 0 -77 5 -80 10 -3 6 -44 10 -90 10 -46 0 -87 5 -90 10 -3 6 -44 10 -90 10 -46 0 -87 5 -90 10 -3 6 -50 10 -106 10 -59 0 -99 4 -99 10 0 6 -38 10 -94 10 -53 0 -98 4 -101 10 -3 6 -52 10 -110 10 -58 0 -107 4 -110 10 -4 6 -55 10 -120 10 -65 0 -116 4 -120 10 -4 6 -55 10 -120 10 -65 0 -116 4 -120 10 -4 6 -62 10 -140 10 -78 0 -136 4 -140 10 -4 6 -67 10 -156 10 -93 0 -149 4 -149 10 0 6 -61 10 -164 10 -99 0 -167 4 -171 10 -4 6 -87 10 -216 10 -133 0 -209 4 -209 10 0 6 -95 10 -264 10 -166 0 -267 4 -271 10 -4 6 -205 10 -570 10 -365 0 -566 4 -570 10 -4 6 -107 10 -275 10 -168 0 -271 -4 -275 -10z m405 -780 c0 -5 15 -10 33 -10 23 0 41 -8 60 -28 15 -15 27 -33 27 -38 0 -6 9 -19 20 -29 11 -10 20 -28 20 -41 0 -13 5 -26 10 -29 6 -3 10 -17 10 -30 0 -13 5 -27 10 -30 6 -3 10 -17 10 -30 0 -13 5 -27 10 -30 6 -3 10 -17 10 -30 0 -13 5 -27 10 -30 6 -3 10 -21 10 -40 0 -19 5 -37 10 -40 6 -3 10 -17 10 -30 0 -13 5 -27 10 -30 6 -3 10 -17 10 -30 0 -13 5 -27 10 -30 6 -3 10 -17 10 -31 0 -13 5 -24 10 -24 6 0 10 -13 10 -29 0 -17 5 -33 10 -36 6 -3 10 -17 10 -30 0 -13 5 -27 10 -30 6 -3 10 -17 10 -30 0 -13 5 -27 10 -30 6 -3 10 -17 10 -30 0 -13 5 -27 10 -30 6 -3 10 -21 10 -40 0 -19 5 -37 10 -40 6 -3 10 -17 10 -30 0 -13 5 -27 10 -30 6 -3 10 -17 10 -30 0 -13 5 -27 10 -30 6 -3 10 -17 10 -31 0 -13 5 -24 10 -24 6 0 10 -13 10 -30 0 -16 5 -30 10 -30 6 0 10 -10 10 -23 0 -13 6 -35 13 -50 l12 -27 651 0 c586 0 653 -2 665 -16 7 -9 23 -20 36 -25 21 -8 23 -15 23 -74 0 -37 -4 -65 -10 -65 -5 0 -10 -5 -10 -12 0 -15 -70 -88 -85 -88 -6 0 -24 -13 -40 -30 -16 -16 -33 -30 -37 -30 -5 0 -23 -13 -41 -30 -18 -16 -37 -30 -43 -30 -5 0 -23 -13 -39 -30 -16 -16 -34 -30 -41 -30 -7 0 -24 -13 -37 -30 -14 -16 -31 -30 -38 -30 -7 0 -30 -18 -51 -40 -22 -22 -45 -40 -52 -40 -7 0 -25 -13 -41 -30 -16 -16 -32 -30 -37 -30 -4 0 -22 -13 -40 -30 -17 -16 -36 -30 -43 -30 -6 0 -24 -13 -40 -30 -16 -16 -34 -30 -40 -30 -6 0 -24 -13 -40 -30 -16 -16 -34 -30 -40 -30 -6 0 -24 -13 -40 -30 -16 -16 -34 -30 -41 -30 -7 0 -19 -9 -26 -19 -7 -10 -29 -28 -48 -38 -29 -16 -36 -26 -38 -58 -2 -21 1 -42 7 -48 6 -6 11 -19 11 -29 0 -9 9 -33 20 -53 11 -20 20 -44 20 -55 0 -10 5 -22 10 -25 6 -3 10 -17 10 -31 0 -13 5 -24 10 -24 6 0 10 -13 10 -29 0 -17 5 -33 10 -36 6 -3 10 -17 10 -30 0 -13 5 -27 10 -30 6 -3 10 -17 10 -30 0 -13 5 -27 10 -30 6 -3 10 -17 10 -30 0 -13 5 -27 10 -30 6 -3 10 -15 10 -25 0 -11 9 -35 20 -55 11 -20 20 -44 20 -55 0 -10 5 -22 10 -25 6 -3 10 -17 10 -31 0 -13 5 -24 10 -24 6 0 10 -13 10 -29 0 -17 5 -33 10 -36 6 -3 10 -17 10 -30 0 -13 5 -27 10 -30 6 -3 10 -17 10 -30 0 -13 5 -27 10 -30 6 -3 10 -17 10 -30 0 -13 5 -27 10 -30 6 -3 10 -15 10 -25 0 -11 9 -35 20 -55 11 -20 20 -44 20 -55 0 -10 5 -22 10 -25 6 -3 10 -17 10 -31 0 -13 5 -24 10 -24 6 0 10 -17 10 -38 0 -21 5 -43 12 -50 9 -9 9 -15 0 -24 -7 -7 -12 -21 -12 -33 0 -11 -16 -37 -36 -58 -31 -31 -43 -37 -79 -37 -48 0 -91 19 -125 55 -13 14 -28 25 -34 25 -6 0 -25 14 -43 30 -18 17 -38 30 -45 30 -7 0 -19 9 -26 20 -7 11 -18 20 -25 20 -6 0 -26 14 -44 30 -18 17 -36 30 -41 30 -5 0 -17 9 -27 20 -10 11 -25 20 -34 20 -9 0 -27 14 -40 30 -13 17 -29 30 -36 30 -6 0 -20 9 -30 20 -10 11 -23 20 -29 20 -6 0 -24 12 -41 28 -16 15 -42 33 -57 41 -16 8 -28 18 -28 23 0 4 -6 8 -14 8 -8 0 -27 14 -43 30 -15 17 -33 30 -39 30 -6 0 -19 9 -29 20 -10 11 -23 20 -29 20 -6 0 -24 12 -41 28 -16 15 -42 33 -57 41 -16 8 -28 18 -28 23 0 4 -6 8 -13 8 -7 0 -26 14 -42 30 -16 17 -35 30 -43 30 -7 0 -25 14 -39 30 -29 35 -53 38 -78 10 -10 -11 -23 -20 -30 -20 -6 0 -24 -13 -40 -30 -16 -16 -34 -30 -40 -30 -6 0 -24 -13 -40 -30 -16 -16 -34 -30 -40 -30 -6 0 -24 -13 -40 -30 -16 -16 -34 -30 -39 -30 -6 0 -24 -13 -39 -30 -16 -16 -33 -30 -38 -30 -5 0 -23 -13 -41 -30 -17 -16 -36 -30 -43 -30 -6 0 -24 -13 -40 -30 -16 -16 -34 -30 -40 -30 -6 0 -24 -13 -40 -30 -16 -16 -32 -30 -37 -30 -4 0 -22 -13 -40 -30 -17 -16 -36 -30 -43 -30 -6 0 -24 -13 -40 -30 -16 -16 -34 -30 -40 -30 -6 0 -24 -13 -40 -30 -16 -16 -33 -30 -37 -30 -5 0 -23 -13 -41 -30 -18 -16 -37 -30 -42 -30 -6 0 -23 -13 -38 -30 -16 -16 -35 -30 -42 -30 -7 0 -18 -7 -25 -15 -21 -25 -71 -45 -114 -45 -35 0 -47 7 -88 47 -46 46 -48 49 -48 105 0 31 5 60 10 63 6 3 10 17 10 30 0 13 5 27 10 30 6 3 10 17 10 30 0 13 5 27 10 30 6 3 10 19 10 36 0 16 5 29 10 29 6 0 10 11 10 24 0 14 5 28 10 31 6 3 10 15 10 25 0 11 9 35 20 55 11 20 20 44 20 55 0 10 5 22 10 25 6 3 10 17 10 30 0 13 5 27 10 30 6 3 10 17 10 30 0 13 5 27 10 30 6 3 10 17 10 30 0 13 5 27 10 30 6 3 10 19 10 36 0 16 5 29 10 29 6 0 10 11 10 24 0 14 5 28 10 31 6 3 10 17 10 30 0 13 5 27 10 30 6 3 10 17 10 30 0 13 5 27 10 30 6 3 10 17 10 30 0 13 5 27 10 30 6 3 10 17 10 30 0 13 5 27 10 30 6 3 10 17 10 30 0 13 5 27 10 30 6 3 10 19 10 36 0 16 5 29 10 29 6 0 10 14 10 30 0 17 5 30 10 30 6 0 10 10 10 23 0 13 5 28 11 34 6 6 9 27 7 48 -2 32 -9 42 -38 58 -19 10 -36 23 -38 28 -2 5 -9 9 -16 9 -7 0 -25 14 -41 30 -16 17 -34 30 -39 30 -6 0 -25 14 -43 30 -18 17 -37 30 -43 30 -6 0 -23 14 -37 30 -13 17 -31 30 -38 30 -7 0 -30 18 -51 40 -21 22 -44 40 -52 40 -7 0 -25 14 -39 30 -13 17 -30 30 -36 30 -7 0 -26 14 -44 30 -18 17 -36 30 -42 30 -5 0 -22 14 -38 30 -15 17 -34 30 -41 30 -7 0 -25 14 -39 30 -13 17 -30 30 -37 30 -7 0 -25 14 -41 30 -16 17 -34 30 -40 30 -7 0 -20 9 -30 20 -10 11 -23 20 -30 20 -6 0 -22 12 -36 26 -13 14 -38 32 -56 41 -19 8 -33 23 -33 33 0 9 -9 25 -20 35 -19 18 -29 85 -12 85 4 0 12 10 17 22 6 12 24 30 40 39 26 15 62 18 292 18 163 1 264 5 268 11 4 6 144 10 389 10 404 0 406 0 406 46 0 13 5 26 10 29 6 3 10 17 10 30 0 13 5 27 10 30 6 3 10 17 10 30 0 13 5 27 10 30 6 3 10 17 10 30 0 13 5 27 10 30 6 3 10 19 10 36 0 16 5 29 10 29 6 0 10 11 10 24 0 14 5 28 10 31 6 3 10 17 10 30 0 13 5 27 10 30 6 3 10 17 10 30 0 13 5 27 10 30 6 3 10 17 10 30 0 13 5 27 10 30 6 3 10 17 10 30 0 13 5 27 10 30 6 3 10 17 10 30 0 13 5 27 10 30 6 3 10 19 10 36 0 16 5 29 10 29 6 0 10 14 10 30 0 17 5 30 10 30 6 0 10 11 10 24 0 14 5 28 10 31 6 3 10 17 10 30 0 13 5 27 10 30 6 3 10 17 10 30 0 13 5 27 10 30 6 3 10 17 10 30 0 13 5 27 10 30 6 3 10 17 10 30 0 13 5 27 10 30 6 3 10 16 10 27 0 12 7 30 17 40 9 10 21 28 27 41 6 12 21 26 34 32 12 5 22 13 22 17 0 5 9 8 20 8 11 0 20 5 20 10 0 6 5 10 10 10 6 0 10 -4 10 -10z m195 -5000 c3 -5 21 -10 40 -10 19 0 37 -4 40 -10 3 -5 15 -10 25 -10 10 0 20 -3 22 -7 2 -5 26 -19 53 -32 88 -43 149 -115 115 -136 -5 -3 -10 -17 -10 -30 0 -13 -4 -27 -10 -30 -5 -3 -10 -19 -10 -36 0 -16 -4 -29 -10 -29 -6 0 -10 -56 -10 -149 0 -89 4 -152 10 -156 6 -3 10 -14 10 -24 0 -21 22 -71 33 -71 4 0 7 -7 7 -15 0 -18 18 -51 43 -79 9 -11 17 -24 17 -29 0 -14 222 -237 235 -237 6 0 20 -8 31 -18 11 -11 25 -21 32 -23 19 -6 242 -231 242 -244 0 -6 14 -24 30 -40 17 -16 30 -35 30 -42 0 -7 9 -18 20 -25 11 -7 20 -20 20 -29 0 -9 9 -24 20 -34 11 -10 20 -24 20 -32 0 -7 5 -13 10 -13 6 0 10 -7 10 -15 0 -8 9 -30 20 -50 11 -20 20 -42 20 -50 0 -8 9 -30 20 -50 11 -20 20 -44 20 -55 0 -10 5 -22 10 -25 6 -3 10 -22 10 -41 0 -19 5 -34 10 -34 6 0 10 -30 10 -70 0 -40 4 -70 10 -70 6 0 10 -38 10 -94 0 -53 -4 -98 -10 -101 -5 -3 -10 -35 -10 -70 0 -35 -4 -67 -10 -70 -5 -3 -10 -24 -10 -46 0 -21 -4 -39 -10 -39 -5 0 -10 -15 -10 -34 0 -19 -4 -38 -10 -41 -5 -3 -10 -15 -10 -25 0 -11 -9 -35 -20 -55 -11 -20 -20 -42 -20 -50 0 -8 -9 -30 -20 -50 -25 -45 -25 -65 -1 -65 10 0 31 -7 47 -15 36 -18 154 -133 154 -149 0 -7 9 -21 20 -31 11 -10 20 -28 20 -41 0 -13 5 -26 10 -29 6 -3 10 -21 10 -40 0 -19 5 -37 10 -40 13 -8 13 -142 0 -150 -5 -3 -10 -18 -10 -33 0 -15 -16 -58 -35 -97 -40 -82 -145 -193 -215 -228 -38 -19 -46 -27 -48 -55 -2 -18 1 -32 7 -32 6 0 11 -18 11 -39 0 -22 5 -43 10 -46 6 -3 10 -17 10 -30 0 -13 5 -27 10 -30 6 -3 10 -30 10 -60 0 -30 5 -57 10 -60 6 -4 10 -85 10 -211 0 -129 -4 -204 -10 -204 -5 0 -10 -20 -10 -44 0 -25 -4 -48 -10 -51 -5 -3 -10 -17 -10 -30 0 -13 -4 -27 -10 -30 -5 -3 -10 -17 -10 -30 0 -13 -4 -27 -10 -30 -5 -3 -10 -23 -10 -43 0 -32 8 -45 60 -96 33 -33 60 -63 60 -68 0 -5 9 -18 20 -30 11 -12 20 -32 20 -45 0 -13 5 -23 10 -23 6 0 10 -47 10 -120 0 -73 -4 -120 -10 -120 -5 0 -10 -8 -10 -18 0 -24 -26 -76 -45 -92 -8 -7 -15 -19 -15 -26 0 -18 -86 -104 -104 -104 -7 0 -19 -7 -26 -15 -16 -19 -109 -65 -132 -65 -14 0 -18 -8 -18 -40 0 -22 -4 -40 -10 -40 -6 0 -10 -40 -10 -100 0 -60 -4 -100 -10 -100 -6 0 -10 -41 -10 -104 0 -59 -4 -108 -10 -111 -6 -3 -10 -52 -10 -110 0 -58 -4 -107 -10 -110 -6 -3 -10 -52 -10 -110 0 -58 -4 -107 -10 -110 -6 -3 -10 -48 -10 -100 0 -52 -4 -97 -10 -100 -6 -3 -10 -52 -10 -110 0 -58 -4 -107 -10 -110 -6 -4 -10 -53 -10 -116 0 -66 -4 -109 -10 -109 -6 0 -10 -38 -10 -94 0 -53 -4 -98 -10 -101 -6 -4 -10 -53 -10 -116 0 -66 -4 -109 -10 -109 -6 0 -10 -41 -10 -104 0 -59 -4 -108 -10 -111 -6 -3 -10 -52 -10 -110 0 -58 -4 -107 -10 -110 -6 -3 -10 -50 -10 -106 0 -59 -4 -99 -10 -99 -6 0 -10 -41 -10 -104 0 -59 -4 -108 -10 -111 -6 -3 -10 -52 -10 -110 0 -58 -4 -107 -10 -110 -6 -3 -10 -48 -10 -100 0 -52 -4 -97 -10 -100 -6 -3 -10 -52 -10 -110 0 -58 -4 -107 -10 -110 -6 -3 -10 -52 -10 -110 0 -58 -4 -107 -10 -110 -6 -3 -10 -50 -10 -106 0 -59 -4 -99 -10 -99 -6 0 -10 -41 -10 -104 0 -59 -4 -108 -10 -111 -6 -3 -10 -52 -10 -110 0 -58 -4 -107 -10 -110 -6 -4 -10 -53 -10 -116 0 -66 -4 -109 -10 -109 -6 0 -10 -40 -10 -100 0 -60 -4 -100 -10 -100 -6 0 -10 -41 -10 -104 0 -59 -4 -108 -10 -111 -6 -4 -10 -53 -10 -116 0 -66 -4 -109 -10 -109 -6 0 -10 -38 -10 -94 0 -53 -4 -98 -10 -101 -6 -4 -10 -53 -10 -116 0 -66 -4 -109 -10 -109 -6 0 -10 -43 -10 -110 0 -67 -4 -110 -10 -110 -6 0 -10 -41 -10 -104 0 -59 -4 -108 -10 -111 -6 -3 -10 -48 -10 -100 0 -52 -4 -97 -10 -100 -14 -9 -12 -148 3 -177 7 -14 27 -41 45 -59 40 -43 142 -244 142 -281 0 -15 5 -30 10 -33 6 -4 10 -57 10 -125 0 -68 -4 -121 -10 -125 -5 -3 -10 -24 -10 -45 0 -21 -4 -40 -8 -42 -4 -2 -25 -37 -45 -80 -21 -42 -44 -82 -52 -88 -8 -7 -15 -18 -15 -24 0 -7 -16 -28 -36 -47 -19 -18 -42 -49 -51 -67 -8 -17 -19 -32 -24 -32 -12 0 -11 -57 1 -65 13 -8 13 -222 0 -230 -5 -3 -10 -39 -10 -80 0 -41 -4 -77 -10 -80 -5 -3 -10 -17 -10 -30 0 -13 -5 -27 -10 -30 -5 -3 -10 -15 -10 -26 0 -10 -4 -19 -10 -19 -5 0 -10 -6 -10 -13 0 -8 -9 -22 -20 -32 -11 -10 -20 -23 -20 -29 0 -13 -87 -106 -99 -106 -5 0 -35 -13 -66 -30 -31 -16 -65 -30 -75 -30 -11 0 -22 -4 -25 -10 -8 -13 -162 -13 -170 0 -3 6 -24 10 -46 10 -21 0 -39 5 -39 10 0 6 -6 10 -13 10 -8 0 -22 9 -32 20 -10 11 -23 20 -30 20 -16 0 -125 110 -125 126 0 8 -9 19 -20 26 -11 7 -20 20 -20 30 0 9 -4 20 -10 23 -5 3 -10 17 -10 30 0 13 -4 27 -10 30 -5 3 -10 17 -10 30 0 13 -4 27 -10 30 -13 8 -13 342 0 350 15 9 13 105 -2 105 -16 1 -88 66 -88 80 0 6 -12 23 -26 39 -31 35 -74 117 -74 142 0 10 -4 21 -10 24 -5 3 -10 17 -10 30 0 13 -4 27 -10 30 -13 8 -13 302 0 310 6 3 10 21 10 40 0 19 4 37 10 40 6 3 10 15 10 25 0 11 9 35 20 55 11 20 20 42 20 50 0 8 5 15 10 15 6 0 10 6 10 14 0 8 14 27 30 43 27 25 30 35 30 85 0 31 -4 60 -10 63 -6 4 -10 55 -10 120 0 65 -4 116 -10 120 -6 4 -10 55 -10 120 0 65 -4 116 -10 120 -6 3 -10 52 -10 111 0 63 -4 104 -10 104 -6 0 -10 46 -10 119 0 69 -4 122 -10 126 -6 4 -10 55 -10 120 0 65 -4 116 -10 120 -6 4 -10 55 -10 121 0 69 -4 114 -10 114 -6 0 -10 50 -10 129 0 76 -4 132 -10 136 -6 4 -10 55 -10 120 0 65 -4 116 -10 120 -6 4 -10 55 -10 120 0 65 -4 116 -10 120 -6 4 -10 55 -10 120 0 65 -4 116 -10 120 -6 4 -10 58 -10 131 0 76 -4 124 -10 124 -6 0 -10 47 -10 120 0 73 -4 120 -10 120 -6 0 -10 46 -10 119 0 69 -4 122 -10 126 -6 4 -10 58 -10 130 0 72 -4 126 -10 130 -6 4 -10 55 -10 120 0 65 -4 116 -10 120 -6 4 -10 55 -10 121 0 69 -4 114 -10 114 -6 0 -10 46 -10 119 0 69 -4 122 -10 126 -6 4 -10 58 -10 131 0 76 -4 124 -10 124 -6 0 -10 46 -10 119 0 69 -4 122 -10 126 -6 4 -10 55 -10 121 0 69 -4 114 -10 114 -6 0 -10 46 -10 119 0 69 -4 122 -10 126 -6 4 -10 55 -10 120 0 65 -4 116 -10 120 -6 4 -10 55 -10 120 0 65 -4 116 -10 120 -6 4 -10 55 -10 120 0 65 -4 116 -10 120 -6 4 -10 55 -10 120 0 65 -4 116 -10 120 -6 3 -10 52 -10 111 0 63 -4 104 -10 104 -5 0 -10 17 -10 38 0 36 -2 38 -78 74 -135 65 -262 214 -262 309 0 21 -4 39 -10 39 -5 0 -10 15 -10 34 0 19 5 38 10 41 6 3 10 28 10 55 0 26 3 50 8 52 4 2 22 33 41 71 19 37 38 67 42 67 5 0 9 6 9 13 0 6 23 36 50 64 49 52 60 76 40 88 -5 3 -10 17 -10 31 0 13 -4 24 -10 24 -5 0 -10 9 -10 19 0 11 -4 23 -10 26 -5 3 -10 17 -10 31 0 13 -4 24 -10 24 -5 0 -10 18 -10 39 0 22 -4 43 -10 46 -5 3 -10 22 -10 41 0 19 -4 34 -10 34 -6 0 -10 33 -10 79 0 44 -4 83 -10 86 -5 3 -10 42 -10 85 0 43 5 82 10 85 6 3 10 37 10 76 0 39 4 69 10 69 6 0 10 20 10 44 0 25 5 48 10 51 6 3 10 17 10 30 0 13 5 27 10 30 18 11 11 45 -8 45 -71 0 -212 124 -267 233 -32 67 -35 79 -35 164 0 51 5 95 10 98 6 3 10 21 10 40 0 19 5 37 10 40 6 3 10 15 10 26 0 10 5 19 10 19 6 0 10 6 10 13 0 8 9 22 20 32 11 10 20 24 20 31 0 16 128 144 144 144 6 0 18 9 26 20 8 12 26 20 42 20 15 0 30 5 33 10 3 6 17 10 31 10 31 0 33 34 4 85 -11 20 -20 44 -20 55 0 10 -4 22 -10 25 -5 3 -10 17 -10 30 0 13 -4 27 -10 30 -5 3 -10 21 -10 40 0 19 -4 37 -10 40 -5 3 -10 30 -10 60 0 30 -4 57 -10 60 -6 4 -10 58 -10 131 0 76 4 124 10 124 6 0 10 28 10 64 0 36 5 68 10 71 6 3 10 21 10 40 0 19 5 37 10 40 6 3 10 24 10 46 0 21 5 39 10 39 6 0 10 9 10 20 0 11 5 20 10 20 6 0 10 9 10 20 0 11 9 35 20 55 11 20 20 42 20 50 0 8 3 15 8 15 4 0 15 17 24 39 9 21 23 45 30 52 8 8 21 30 30 49 10 19 29 47 43 62 14 15 25 31 25 36 0 14 210 222 223 222 7 1 30 19 52 40 22 22 45 40 51 40 6 0 17 7 24 15 7 9 29 23 49 32 54 24 81 53 81 84 0 15 -4 31 -10 34 -6 4 -10 67 -10 155 0 88 4 151 10 155 6 3 10 21 10 40 0 19 5 37 10 40 6 3 10 14 10 24 0 23 60 141 72 141 4 0 8 8 8 18 0 9 14 28 30 41 17 13 30 29 30 35 0 13 51 66 64 66 4 0 21 13 39 30 18 16 37 30 43 30 6 0 19 9 29 20 10 11 24 20 32 20 7 0 13 5 13 10 0 6 9 10 19 10 11 0 23 5 26 10 3 6 17 10 30 10 13 0 27 5 30 10 3 6 22 10 41 10 19 0 34 5 34 10 0 6 41 10 104 10 59 0 108 -4 111 -10z" fill="#000000" style="fill-opacity:1;stroke:none"/>
    <path d="M8359 19323 c-21 -25 -37 -62 -44 -103 -4 -19 -13 -44 -19 -55 -7 -11 -16 -38 -20 -60 -4 -21 -19 -59 -32 -83 -14 -24 -23 -49 -22 -55 1 -7 -3 -22 -10 -34 -7 -12 -11 -26 -11 -30 1 -4 -1 -15 -4 -23 -3 -8 -13 -37 -22 -65 -9 -27 -25 -65 -36 -83 -10 -18 -19 -42 -19 -52 0 -10 -4 -22 -10 -25 -5 -3 -10 -17 -10 -30 0 -13 -4 -26 -9 -29 -5 -3 -12 -20 -15 -38 -4 -18 -8 -40 -9 -48 -2 -8 -12 -31 -22 -50 -11 -19 -18 -39 -17 -43 1 -4 -3 -18 -10 -30 -7 -12 -14 -29 -15 -37 -21 -116 -10 -112 -260 -114 -114 0 -213 -4 -219 -8 -7 -5 -160 -9 -340 -10 l-329 -2 -13 -26 c-12 -22 -11 -26 4 -35 10 -5 34 -25 54 -42 21 -18 42 -33 47 -33 5 0 22 -13 38 -30 16 -16 34 -30 40 -30 6 0 24 -13 40 -30 15 -16 31 -27 35 -25 4 2 22 -11 40 -30 19 -19 39 -35 44 -36 6 0 31 -16 56 -35 25 -18 61 -45 80 -59 19 -14 55 -41 80 -60 25 -19 61 -46 80 -59 19 -13 44 -33 54 -45 11 -11 24 -21 31 -21 6 0 24 -13 40 -30 16 -16 32 -30 36 -30 5 0 28 -14 53 -31 37 -24 46 -36 46 -59 0 -16 -5 -32 -11 -36 -6 -3 -8 -15 -6 -26 3 -11 0 -34 -8 -52 -21 -48 -28 -70 -26 -79 0 -4 -6 -21 -14 -38 -9 -16 -13 -33 -11 -38 3 -5 -1 -14 -9 -21 -9 -7 -15 -20 -14 -29 2 -16 -3 -35 -24 -81 -6 -14 -10 -28 -9 -32 2 -10 -26 -98 -38 -120 -6 -10 -10 -27 -10 -37 0 -11 -4 -23 -10 -26 -5 -3 -10 -17 -10 -30 0 -13 -5 -27 -10 -30 -6 -4 -8 -10 -5 -15 3 -5 -1 -24 -9 -42 -22 -51 -29 -72 -27 -82 1 -4 -5 -19 -13 -32 -9 -12 -13 -30 -10 -39 4 -8 -1 -26 -10 -40 -9 -14 -16 -31 -15 -38 2 -13 -14 -60 -31 -89 -6 -10 -10 -26 -10 -36 0 -10 -5 -23 -11 -29 -7 -7 -2 -15 17 -27 25 -17 27 -17 53 8 15 14 32 26 37 26 6 0 19 9 30 21 21 23 101 79 113 79 4 0 22 16 41 35 18 19 36 33 38 30 3 -3 22 10 43 28 77 65 107 87 116 87 6 0 18 9 28 20 10 11 23 20 30 20 6 0 24 14 40 30 16 17 34 30 40 30 6 0 26 16 45 35 19 19 39 35 45 35 6 0 22 11 35 25 13 14 29 25 35 25 6 0 24 14 40 30 16 17 34 30 40 30 7 0 20 9 30 20 10 11 23 20 29 20 5 0 25 14 43 32 l33 32 27 -25 c25 -23 56 -45 102 -74 69 -44 99 -65 115 -84 11 -11 24 -21 31 -21 7 0 20 -9 30 -20 10 -11 22 -20 28 -20 5 0 24 -12 43 -27 61 -51 92 -73 102 -73 5 0 17 -9 27 -20 10 -11 23 -20 30 -20 6 0 24 -13 40 -30 16 -16 34 -30 40 -30 7 0 20 -9 30 -20 10 -11 21 -18 25 -15 4 2 18 -7 30 -20 13 -14 29 -25 35 -25 6 0 24 -13 40 -30 16 -16 34 -30 39 -31 6 0 31 -16 56 -35 25 -18 55 -38 67 -43 11 -6 24 -15 28 -20 8 -14 38 -14 52 0 10 10 3 49 -18 91 -5 10 -9 27 -9 37 0 11 -4 23 -10 26 -5 3 -10 16 -10 29 0 12 -4 26 -8 32 -5 5 -32 83 -61 174 -30 91 -59 179 -67 195 -18 43 -27 68 -30 85 -1 8 -14 49 -29 90 -14 41 -28 83 -29 92 -1 10 -5 21 -9 24 -4 4 -7 18 -7 30 0 13 -4 26 -10 29 -5 3 -10 15 -10 26 0 10 -4 27 -9 37 -21 41 -34 78 -32 90 1 8 -4 20 -11 29 -10 13 -5 21 32 54 25 21 68 59 96 84 28 25 55 45 60 45 6 0 28 18 49 40 21 22 44 40 50 40 6 0 33 23 60 50 27 28 54 50 60 50 6 0 29 18 50 40 21 22 43 40 49 40 5 0 35 24 67 53 97 87 146 127 155 127 5 0 34 26 66 57 56 56 71 86 46 95 -7 3 -258 6 -558 7 -299 1 -547 5 -550 7 -3 3 -5 9 -5 12 -1 4 -6 17 -13 28 -6 12 -14 40 -18 63 -4 23 -11 44 -15 47 -5 3 -9 14 -9 25 0 10 -4 27 -9 37 -23 45 -41 95 -37 99 2 3 -4 20 -15 39 -10 19 -19 42 -19 52 0 9 -7 25 -15 35 -7 11 -17 38 -21 60 -3 23 -12 50 -19 61 -8 10 -11 24 -9 31 3 7 1 16 -5 20 -6 3 -11 17 -11 30 0 13 -4 27 -10 30 -5 3 -10 17 -10 30 0 13 -4 27 -10 30 -5 3 -10 17 -10 30 0 13 -4 26 -9 29 -4 3 -14 27 -21 53 -6 27 -16 57 -20 68 -23 53 -39 97 -38 103 1 4 -2 14 -5 22 -3 8 -7 24 -9 35 -4 26 -40 31 -59 8z m-19 -260 c1 -86 2 -1239 1 -1250 -1 -16 -21 -17 -21 -2 0 6 -15 29 -32 50 -18 21 -51 61 -73 89 -22 28 -55 68 -72 89 -18 21 -33 43 -33 48 0 5 -11 20 -25 33 -14 13 -25 29 -25 35 0 7 -9 20 -19 29 -20 19 -33 63 -20 71 14 9 38 66 33 79 -3 7 2 19 10 26 9 7 13 16 10 21 -3 5 1 19 8 31 6 13 12 28 13 33 1 17 27 88 45 125 10 19 24 55 31 80 7 25 17 50 21 57 5 6 8 17 7 25 -3 13 9 44 42 111 11 22 16 43 13 49 -3 5 1 17 9 26 8 9 18 38 22 64 4 26 13 53 21 59 8 6 14 22 14 35 0 13 5 24 10 24 6 0 10 -17 10 -37z m100 -7 c0 -14 5 -28 10 -31 6 -3 10 -13 10 -21 0 -8 11 -39 24 -67 26 -56 38 -86 41 -102 4 -30 18 -73 31 -98 8 -15 13 -31 9 -36 -3 -5 -1 -12 4 -15 5 -4 17 -32 26 -64 9 -31 21 -62 26 -68 5 -6 7 -18 3 -27 -3 -8 -1 -18 5 -22 6 -3 11 -17 11 -29 0 -13 6 -29 14 -35 8 -7 17 -34 21 -61 4 -28 11 -52 16 -56 5 -3 9 -16 9 -29 0 -13 5 -27 10 -30 6 -3 10 -23 10 -44 0 -28 -7 -44 -30 -66 -16 -16 -30 -34 -30 -40 0 -7 -9 -20 -20 -30 -11 -10 -18 -21 -15 -25 2 -4 -11 -22 -30 -40 -19 -19 -35 -39 -35 -45 0 -7 -9 -20 -20 -30 -11 -10 -18 -21 -15 -25 2 -4 -11 -22 -30 -40 -19 -19 -35 -39 -35 -46 0 -13 -28 -39 -35 -32 -4 4 -9 1139 -6 1256 1 30 21 28 21 -2z m-441 -904 c70 -85 86 -106 84 -112 -1 -4 11 -20 27 -35 17 -16 30 -34 30 -40 0 -6 16 -26 35 -45 19 -19 35 -39 35 -45 0 -6 14 -24 30 -40 17 -16 30 -33 30 -39 0 -5 7 -18 17 -28 20 -22 12 -33 -14 -20 -10 6 -38 16 -63 23 -25 7 -49 16 -54 21 -6 4 -20 8 -32 8 -13 0 -26 5 -29 10 -3 6 -15 10 -26 10 -10 0 -27 4 -37 9 -9 5 -37 15 -62 22 -25 7 -49 16 -54 20 -5 4 -15 5 -22 2 -8 -3 -21 1 -30 8 -9 7 -26 15 -37 16 -12 2 -26 8 -31 13 -6 6 -20 10 -32 10 -13 0 -25 4 -29 10 -3 5 -12 7 -20 3 -9 -3 -22 1 -31 8 -8 7 -28 14 -44 16 -36 3 -210 62 -227 75 -7 5 -17 7 -23 3 -6 -4 -18 -1 -27 6 -9 8 -21 14 -27 14 -24 1 -96 26 -101 35 -3 6 -17 10 -30 10 -13 0 -27 5 -30 10 -3 6 -17 10 -30 10 -13 0 -27 5 -30 10 -3 6 -18 10 -31 10 -14 0 -24 5 -22 11 2 7 81 10 243 10 168 -1 251 3 276 11 23 9 95 13 213 13 l178 -1 27 -32z m1698 25 c9 -10 1 -16 -25 -20 -12 -2 -25 -6 -28 -10 -4 -4 -17 -7 -28 -7 -12 0 -30 -7 -40 -15 -10 -8 -23 -12 -28 -9 -5 3 -18 -2 -28 -11 -11 -10 -26 -15 -33 -12 -8 3 -18 2 -23 -2 -5 -4 -29 -13 -54 -20 -25 -7 -53 -17 -62 -22 -10 -5 -25 -9 -33 -9 -9 0 -27 -7 -41 -16 -13 -9 -27 -14 -31 -10 -3 3 -11 1 -18 -4 -6 -5 -20 -11 -31 -13 -10 -2 -28 -8 -39 -14 -11 -6 -38 -14 -60 -18 -22 -4 -44 -11 -50 -15 -5 -3 -30 -12 -55 -19 -25 -7 -54 -17 -65 -21 -63 -25 -91 -35 -100 -35 -5 0 -21 -6 -33 -13 -13 -8 -26 -11 -29 -8 -4 3 -11 1 -18 -4 -6 -5 -20 -11 -31 -13 -10 -2 -29 -8 -40 -15 -12 -6 -24 -9 -27 -6 -3 3 -13 1 -24 -4 -67 -34 -143 -59 -143 -48 0 17 45 82 108 155 17 21 32 43 32 48 0 6 9 18 20 28 11 10 18 21 15 25 -2 4 11 22 30 40 19 19 35 39 35 45 0 7 9 20 20 30 11 10 20 24 20 31 0 7 12 14 28 16 53 6 902 1 909 -5z m23 -66 c0 -5 -18 -24 -40 -42 -22 -19 -60 -51 -84 -71 -24 -21 -47 -38 -52 -38 -6 0 -32 -22 -59 -50 -27 -27 -54 -50 -60 -50 -6 0 -29 -18 -50 -40 -21 -22 -44 -40 -50 -40 -6 0 -33 -22 -60 -50 -27 -27 -54 -50 -60 -50 -6 0 -29 -18 -50 -40 -21 -22 -44 -40 -50 -40 -6 0 -29 -18 -50 -40 -40 -41 -64 -48 -107 -31 -50 20 -64 24 -76 22 -8 -1 -19 2 -25 7 -7 5 -21 12 -32 15 -11 3 -44 15 -74 26 -30 11 -57 18 -61 16 -4 -3 -13 1 -19 9 -6 7 -28 16 -49 20 -20 3 -50 13 -66 21 -15 8 -37 15 -47 15 -11 0 -19 5 -19 10 0 6 6 10 14 10 7 0 19 6 26 14 6 8 18 12 26 9 8 -3 20 -1 27 4 6 5 32 15 57 22 25 8 59 19 75 27 17 7 44 15 60 19 28 6 54 16 117 46 16 7 31 9 35 6 3 -4 11 -3 17 1 6 5 34 16 61 26 28 10 59 22 70 27 44 19 111 41 127 41 10 -1 20 3 23 9 4 5 16 9 28 9 12 0 30 7 40 15 11 7 37 17 60 21 23 3 52 13 65 22 12 8 25 12 29 8 4 -3 14 1 24 10 10 9 25 14 33 11 8 -3 20 1 27 9 7 8 19 12 27 9 8 -3 21 0 28 6 8 7 22 13 32 14 17 1 36 8 77 25 27 12 35 12 35 1z m-2672 -20 c9 -5 37 -15 62 -22 25 -7 50 -16 56 -21 6 -4 14 -5 17 -1 4 3 19 1 35 -6 72 -34 91 -41 144 -51 32 -6 60 -16 64 -21 3 -5 10 -7 15 -3 5 3 21 -2 35 -11 13 -9 29 -13 35 -9 6 3 18 -1 27 -9 9 -8 35 -18 57 -22 22 -4 51 -13 65 -20 14 -7 52 -21 85 -30 33 -9 71 -21 85 -27 14 -6 31 -10 38 -9 8 1 22 -5 33 -15 10 -9 25 -14 33 -11 8 3 20 -1 26 -9 7 -8 19 -14 28 -14 9 0 29 -4 46 -9 17 -5 51 -15 76 -22 25 -7 49 -16 55 -21 5 -4 16 -8 25 -8 21 0 70 -23 70 -32 0 -5 -11 -8 -24 -8 -13 0 -29 -6 -35 -14 -6 -8 -32 -17 -58 -21 -25 -4 -53 -10 -62 -15 -39 -19 -77 -33 -85 -31 -5 1 -28 -7 -50 -18 -23 -12 -67 -29 -100 -40 l-58 -19 -42 28 c-23 16 -50 38 -60 49 -11 12 -25 21 -31 21 -7 0 -19 7 -26 16 -7 9 -43 35 -79 59 -36 23 -74 52 -84 64 -11 11 -24 21 -31 21 -6 0 -24 14 -40 30 -16 17 -34 30 -40 30 -6 0 -24 14 -40 30 -16 17 -33 30 -38 30 -9 0 -39 23 -116 88 -21 17 -41 32 -44 32 -12 0 -97 62 -97 71 0 11 6 11 28 0z m1252 -469 c0 -11 -9 -27 -20 -37 -11 -10 -20 -22 -20 -28 0 -5 -12 -24 -27 -43 -51 -61 -73 -92 -73 -101 0 -5 -13 -22 -30 -38 -16 -16 -30 -32 -30 -36 0 -12 -56 -92 -79 -113 -12 -11 -21 -24 -21 -31 0 -7 -9 -20 -20 -30 -11 -10 -20 -23 -20 -30 0 -6 -13 -24 -30 -40 -16 -16 -30 -34 -30 -40 0 -7 -9 -20 -20 -30 -11 -10 -20 -23 -20 -30 0 -6 -13 -24 -30 -40 -16 -16 -30 -34 -30 -40 0 -7 -9 -20 -20 -30 -11 -10 -20 -23 -20 -30 0 -6 -12 -22 -26 -36 -14 -13 -30 -33 -35 -44 -20 -42 -38 -68 -68 -99 -17 -17 -31 -36 -31 -40 0 -5 -12 -23 -27 -41 -16 -19 -35 -44 -44 -57 -10 -13 -21 -20 -25 -15 -4 4 -3 12 3 18 6 6 9 18 6 26 -3 7 2 22 11 32 9 10 13 20 10 24 -4 4 1 18 10 31 9 14 16 34 16 45 0 11 5 23 11 27 6 3 9 15 6 25 -3 10 2 24 9 30 8 7 13 18 10 25 -4 11 52 198 89 294 7 19 17 44 21 55 4 11 9 27 10 35 12 62 22 98 31 115 6 11 17 40 24 65 7 25 16 49 21 55 4 5 8 19 8 32 0 17 6 23 23 23 13 0 27 4 33 8 5 5 29 14 54 21 25 7 54 17 65 21 11 5 38 14 60 21 22 6 48 15 57 20 10 5 26 9 36 9 10 0 22 4 28 8 5 5 29 14 54 21 25 7 52 17 60 21 23 13 30 12 30 -8z m243 -14 c4 1 20 -4 36 -13 16 -8 31 -11 35 -8 3 3 14 -1 24 -10 10 -10 21 -14 25 -11 3 3 36 -4 74 -17 37 -13 73 -23 78 -24 10 -1 55 -19 87 -36 10 -5 26 -9 36 -9 25 0 68 -47 64 -70 -2 -10 2 -21 8 -25 5 -3 10 -17 10 -29 0 -13 7 -29 15 -36 9 -7 15 -20 14 -29 -1 -9 1 -23 4 -31 23 -56 30 -77 28 -91 -1 -9 5 -22 14 -29 8 -7 12 -16 9 -22 -3 -5 2 -20 11 -34 8 -13 15 -30 14 -37 -1 -6 0 -19 4 -27 14 -38 49 -144 51 -156 1 -8 7 -19 13 -25 6 -6 9 -17 6 -24 -2 -8 3 -25 12 -39 9 -14 14 -30 11 -35 -4 -5 -2 -12 4 -16 5 -3 10 -15 10 -26 0 -10 4 -27 9 -37 29 -57 40 -92 30 -98 -11 -7 -59 33 -59 49 0 5 -15 27 -32 48 -65 77 -88 107 -88 116 0 5 -13 22 -30 38 -16 16 -30 34 -30 40 0 6 -16 26 -35 45 -19 18 -32 36 -30 40 2 4 -9 20 -25 35 -17 16 -30 34 -30 40 0 6 -13 24 -30 40 -16 16 -30 34 -30 40 0 6 -16 26 -35 45 -19 19 -35 39 -35 45 0 6 -13 24 -30 40 -16 15 -27 31 -25 35 2 4 -9 20 -25 35 -17 16 -30 34 -30 40 0 6 -13 24 -30 40 -16 16 -30 33 -30 38 0 5 -15 27 -32 48 -78 91 -112 144 -102 160 3 5 15 4 27 -3 12 -7 26 -11 30 -10z m-103 -41 c0 -7 14 -26 30 -42 17 -16 30 -34 30 -40 0 -6 14 -24 30 -40 17 -16 30 -33 30 -38 0 -6 19 -32 43 -58 65 -74 102 -122 100 -129 -1 -4 11 -20 27 -35 17 -16 30 -34 30 -40 0 -6 14 -24 30 -40 17 -16 30 -34 30 -40 0 -6 14 -24 30 -40 17 -16 30 -34 30 -40 0 -6 16 -26 35 -45 19 -18 32 -36 30 -40 -2 -4 9 -20 25 -35 17 -16 30 -34 30 -40 0 -6 14 -24 30 -40 17 -16 30 -34 30 -40 0 -6 14 -24 30 -40 17 -16 30 -34 30 -40 0 -6 14 -24 30 -40 17 -16 30 -34 30 -40 0 -6 14 -24 30 -40 33 -32 38 -45 16 -45 -15 0 -58 28 -146 95 -25 18 -50 34 -56 34 -6 1 -21 12 -34 26 -13 14 -29 25 -35 25 -6 0 -24 14 -40 30 -16 17 -34 30 -40 30 -7 0 -20 9 -30 20 -10 11 -21 17 -25 15 -4 -2 -15 4 -25 15 -10 11 -23 20 -30 20 -6 0 -26 16 -45 35 -19 19 -37 35 -41 35 -7 0 -94 58 -189 126 -73 52 -69 38 -71 269 -2 276 -1 305 11 305 6 0 10 -6 10 -13z m-97 -264 c0 -255 -3 -283 -37 -283 -7 0 -27 -16 -46 -35 -18 -19 -36 -32 -40 -30 -4 2 -20 -9 -35 -25 -16 -17 -34 -30 -40 -30 -6 0 -22 -12 -36 -26 -13 -14 -33 -30 -44 -35 -11 -5 -40 -25 -65 -44 -25 -19 -61 -46 -80 -59 -19 -13 -41 -31 -49 -40 -7 -9 -19 -16 -25 -16 -7 0 -25 -13 -41 -30 -16 -16 -33 -30 -38 -30 -9 0 -40 -22 -101 -72 -19 -16 -37 -28 -42 -28 -4 0 -23 -14 -41 -32 -43 -41 -56 -28 -15 15 18 18 32 38 32 43 0 6 9 19 20 29 11 10 20 22 20 28 0 9 22 39 88 116 17 21 32 41 32 44 0 11 58 92 79 111 12 11 21 24 21 31 0 7 9 20 20 30 11 10 20 23 20 30 0 6 14 24 30 40 17 16 30 34 30 40 0 7 9 20 20 30 11 10 20 23 20 30 0 6 13 24 30 40 16 15 27 31 25 35 -2 4 7 18 20 30 14 13 25 29 25 35 0 6 14 24 30 40 17 16 30 32 30 36 0 12 56 92 79 113 12 11 21 24 21 31 0 7 9 20 20 30 11 10 20 23 20 30 0 14 22 36 33 32 5 -1 9 -116 10 -254z m957 -773 c0 -5 -4 -10 -10 -10 -5 0 -10 5 -10 10 0 6 5 10 10 10 6 0 10 -4 10 -10z" fill="#000000" style="fill-opacity:1;stroke:none"/>
    <path d="M8365 14468 c-11 -7 -32 -13 -46 -15 -52 -5 -154 -61 -200 -110 -53 -55 -119 -154 -119 -177 0 -9 -4 -24 -9 -34 -22 -43 -28 -97 -26 -225 1 -75 5 -140 8 -144 4 -3 7 -20 7 -38 0 -17 5 -36 12 -43 9 -9 8 -15 -8 -27 -10 -8 -26 -15 -35 -15 -8 0 -26 -11 -39 -25 -12 -13 -26 -22 -30 -20 -4 2 -20 -9 -35 -25 -16 -17 -33 -30 -38 -30 -15 0 -79 -56 -218 -190 -71 -68 -129 -129 -129 -135 0 -7 -9 -20 -20 -30 -11 -10 -20 -23 -20 -30 0 -7 -9 -20 -20 -30 -11 -10 -20 -24 -20 -30 0 -7 -7 -18 -15 -25 -18 -15 -50 -80 -60 -123 -4 -15 -11 -30 -16 -33 -5 -3 -9 -14 -9 -25 0 -10 -4 -27 -9 -37 -18 -36 -31 -90 -31 -130 0 -22 -3 -43 -8 -46 -9 -6 -9 -237 1 -253 4 -6 9 -31 12 -55 8 -80 50 -246 66 -262 5 -6 9 -17 9 -27 0 -9 17 -50 39 -92 38 -75 49 -136 43 -239 l-2 -28 -130 0 c-143 0 -151 -2 -218 -65 -45 -42 -72 -85 -72 -116 0 -10 -4 -20 -8 -23 -12 -7 -7 -85 6 -98 6 -6 8 -16 6 -23 -7 -18 42 -94 69 -106 12 -5 36 -17 52 -27 24 -15 55 -19 150 -21 66 -1 122 -5 125 -8 3 -2 4 -39 2 -81 -2 -72 -20 -133 -42 -147 -6 -3 -19 -27 -31 -53 -26 -60 -50 -112 -60 -134 -5 -10 -9 -27 -9 -37 0 -11 -5 -23 -10 -26 -6 -3 -7 -17 -4 -30 3 -13 -1 -37 -9 -54 -17 -34 -22 -228 -7 -246 5 -7 11 -35 14 -64 2 -29 7 -55 10 -58 3 -4 6 -21 6 -39 0 -18 5 -36 10 -39 6 -3 10 -17 10 -30 0 -13 5 -27 10 -30 6 -3 10 -15 10 -26 0 -11 7 -30 15 -43 9 -13 15 -28 14 -32 -3 -12 11 -46 27 -64 7 -8 13 -17 13 -20 0 -6 9 -35 23 -72 11 -28 4 -63 -10 -54 -14 8 -105 -14 -124 -31 -10 -9 -28 -21 -40 -27 -13 -6 -28 -21 -34 -34 -6 -12 -18 -30 -27 -40 -10 -10 -14 -21 -11 -25 4 -4 0 -17 -7 -29 -15 -23 -18 -92 -5 -105 3 -3 6 -15 6 -25 0 -45 100 -158 140 -158 10 0 22 -5 25 -10 4 -7 37 -9 85 -7 110 6 114 2 116 -154 0 -66 4 -122 8 -126 3 -3 6 -43 6 -87 0 -45 5 -108 10 -141 6 -33 10 -107 11 -164 0 -58 4 -112 9 -122 5 -9 10 -64 11 -120 1 -57 6 -109 12 -116 5 -7 9 -68 9 -135 0 -74 4 -128 10 -136 7 -8 11 -60 11 -130 0 -64 4 -122 9 -129 5 -7 9 -66 9 -131 -1 -85 2 -122 11 -130 9 -7 13 -41 11 -114 0 -56 3 -110 8 -119 4 -9 9 -68 10 -130 1 -63 6 -122 11 -131 5 -10 11 -71 14 -135 13 -291 20 -381 29 -394 6 -8 10 -60 10 -119 -1 -58 2 -109 6 -115 4 -5 9 -64 11 -130 2 -66 8 -127 12 -134 5 -8 8 -60 7 -116 -1 -56 3 -114 8 -128 6 -15 11 -80 13 -144 1 -70 7 -128 14 -142 8 -15 12 -61 12 -120 -1 -53 3 -105 8 -116 6 -11 9 -69 8 -130 -2 -60 2 -115 6 -120 5 -6 11 -65 13 -131 1 -66 7 -125 11 -133 5 -7 9 -65 10 -129 1 -65 6 -124 11 -132 5 -8 10 -62 11 -120 2 -58 7 -132 13 -165 5 -33 7 -86 4 -117 -4 -39 -1 -69 10 -97 12 -29 15 -57 10 -105 -3 -36 -1 -91 5 -123 6 -32 12 -103 13 -158 1 -55 5 -111 10 -125 12 -38 32 -294 29 -392 -1 -47 3 -96 9 -107 6 -11 13 -74 15 -141 2 -66 6 -123 10 -127 17 -18 4 -61 -30 -94 -20 -18 -40 -43 -45 -54 -5 -11 -15 -29 -21 -40 -64 -99 -67 -111 -72 -265 -3 -91 0 -119 11 -132 8 -9 12 -21 9 -26 -6 -10 29 -79 75 -148 25 -37 68 -78 119 -114 21 -15 22 -23 26 -285 3 -148 7 -274 8 -280 2 -5 4 -14 5 -20 1 -5 10 -19 20 -30 10 -11 21 -28 24 -37 4 -10 13 -18 20 -18 8 0 20 -7 27 -15 15 -19 68 -45 90 -45 9 0 20 -3 24 -7 11 -11 65 -12 72 -2 3 5 14 9 25 9 10 0 29 6 42 12 33 19 107 90 107 104 0 6 7 17 15 24 9 7 14 19 11 26 -2 6 2 20 10 31 11 14 14 66 13 257 0 233 0 239 22 262 12 13 27 24 34 24 6 0 33 23 60 50 27 28 45 50 40 50 -4 0 2 11 14 24 29 31 71 121 71 151 0 13 4 26 9 30 15 9 6 195 -12 245 -9 25 -17 51 -17 58 0 13 -15 35 -71 105 -14 18 -28 40 -32 50 -4 9 -13 17 -21 17 -9 0 -22 10 -30 23 -13 19 -13 32 -1 92 7 39 13 102 12 140 0 39 5 80 12 93 8 15 12 54 10 110 -2 49 2 96 8 107 6 11 9 47 8 80 -1 33 2 85 7 115 5 30 10 99 12 152 2 53 7 102 12 109 4 7 8 57 9 111 2 54 7 104 13 111 5 6 10 55 9 108 0 52 4 102 9 110 5 7 10 64 10 124 1 61 3 110 4 110 5 0 30 241 36 340 3 55 9 105 13 110 5 6 9 48 10 95 2 124 20 351 28 364 4 6 9 54 10 106 2 52 6 102 10 110 7 15 17 135 28 340 3 58 9 112 12 120 3 8 8 60 10 115 3 55 8 105 12 110 4 6 7 46 6 90 -1 44 4 98 11 120 7 22 11 78 10 124 -1 51 3 93 10 107 7 14 11 43 8 67 -3 23 0 74 6 112 6 39 13 113 15 165 3 52 8 102 11 110 4 8 8 59 10 113 2 53 6 102 9 107 4 6 8 55 10 109 1 55 7 105 11 113 5 7 10 62 11 121 1 60 7 115 13 122 6 7 10 51 8 106 -1 52 2 101 7 109 5 8 10 49 12 90 2 109 23 342 32 360 4 8 9 62 10 120 2 58 6 110 9 115 4 6 7 53 7 105 0 52 4 101 9 109 9 14 26 216 30 351 1 41 8 85 15 98 7 13 11 37 9 54 -3 27 1 33 24 39 15 4 57 5 93 3 57 -3 72 0 106 21 21 14 42 25 47 25 14 0 43 36 68 85 45 90 24 203 -55 289 -33 35 -64 49 -121 52 -25 1 -53 2 -62 3 -22 1 -23 27 -3 61 15 27 38 75 34 75 -1 0 8 17 20 39 12 21 29 59 37 85 8 25 18 53 21 61 3 8 7 26 9 39 2 13 6 31 10 40 4 9 8 29 10 44 2 16 9 37 14 48 6 11 9 23 7 27 -3 4 -1 32 4 62 18 110 20 161 8 176 -6 8 -13 40 -14 72 -4 60 -30 170 -46 187 -5 5 -9 17 -9 27 0 10 -12 37 -27 60 -91 137 -93 140 -93 225 l0 73 73 1 c39 1 88 1 107 1 48 -1 88 19 131 65 36 37 76 103 63 103 -3 0 1 12 11 26 19 29 17 43 -14 124 -22 57 -97 144 -141 162 -14 6 -60 12 -103 13 -43 2 -81 6 -84 9 -3 3 -6 37 -6 76 0 65 3 74 30 103 27 29 80 126 83 152 1 6 7 17 13 25 22 28 37 60 37 79 0 11 4 22 9 25 5 3 9 17 9 31 0 14 5 38 12 55 7 16 10 41 8 55 -3 14 0 29 7 35 13 11 15 256 1 278 -4 7 -9 34 -10 60 -1 27 -5 52 -7 57 -3 6 -11 30 -18 55 -17 57 -31 90 -50 113 -8 9 -11 17 -7 17 3 0 -5 18 -18 39 -14 21 -23 41 -20 43 2 3 -5 13 -16 23 -11 10 -20 23 -20 30 0 7 -9 20 -20 30 -11 10 -20 23 -20 30 0 6 -62 71 -139 145 -137 134 -191 180 -208 180 -18 0 -193 197 -193 218 0 5 -7 15 -15 22 -9 7 -25 33 -35 56 -11 24 -24 45 -29 48 -13 8 -53 87 -47 93 2 3 -3 19 -13 36 -9 18 -23 52 -30 77 -7 25 -17 53 -22 62 -13 25 -20 248 -10 285 16 54 5 71 -50 78 -27 4 -51 11 -55 16 -8 13 -125 11 -149 -3z m131 -91 c2 -2 -8 -28 -22 -58 -15 -30 -25 -55 -23 -55 2 -1 -4 -11 -14 -21 -9 -11 -14 -22 -11 -26 4 -4 -1 -18 -10 -31 -9 -14 -16 -34 -16 -45 0 -11 -4 -22 -9 -25 -12 -8 -22 -73 -25 -166 -2 -42 -7 -84 -13 -95 -10 -21 -11 -113 0 -155 4 -14 9 -56 11 -95 3 -38 10 -85 15 -104 6 -19 8 -38 5 -43 -4 -6 -2 -20 4 -31 24 -54 35 -84 38 -109 2 -16 15 -50 29 -78 14 -27 25 -58 25 -68 0 -10 5 -23 12 -30 6 -6 9 -15 5 -18 -8 -9 -37 15 -37 30 0 6 -27 38 -60 71 -33 33 -60 65 -60 71 0 6 -7 17 -15 24 -9 7 -25 33 -35 56 -11 24 -24 46 -30 49 -6 3 -19 25 -30 49 -10 23 -26 49 -35 56 -8 7 -15 18 -15 25 0 6 -9 20 -20 30 -11 10 -20 24 -20 30 0 7 -7 18 -15 25 -20 17 -55 93 -55 119 0 11 -4 22 -9 25 -18 12 -12 181 12 306 2 8 12 31 22 50 10 19 18 37 17 40 0 3 7 13 15 23 9 9 12 17 7 17 -4 0 14 23 41 50 27 28 54 50 61 50 6 0 17 7 24 15 7 8 16 13 20 10 5 -3 11 -1 15 5 3 5 19 10 34 10 15 0 36 6 46 14 16 12 110 14 121 3z m7 -309 c3 -18 4 -58 3 -88 -2 -30 2 -64 8 -75 6 -11 11 -49 12 -85 3 -72 34 -233 53 -269 7 -12 10 -29 7 -37 -3 -8 5 -32 19 -53 13 -21 21 -41 19 -44 -8 -7 104 -233 122 -248 8 -6 14 -17 14 -24 0 -7 45 -57 101 -112 104 -101 158 -170 189 -243 6 -14 19 -42 30 -63 11 -22 20 -48 20 -59 0 -10 4 -27 9 -36 26 -49 16 -283 -14 -329 -8 -12 -15 -31 -15 -42 0 -11 -5 -23 -10 -26 -6 -4 -8 -10 -5 -15 3 -4 -2 -13 -10 -20 -8 -7 -13 -16 -10 -20 2 -4 -7 -18 -20 -30 -14 -13 -25 -28 -25 -33 0 -12 -43 -67 -106 -133 l-50 -53 -65 4 c-35 2 -67 4 -71 4 -15 2 -8 36 13 70 11 18 18 39 15 46 -2 7 1 36 9 65 18 69 21 456 3 477 -6 8 -11 32 -10 54 2 21 -3 51 -11 66 -8 16 -13 42 -12 58 0 17 -2 35 -7 41 -4 6 -9 25 -11 42 -2 18 -7 35 -10 39 -4 3 -7 16 -7 28 0 11 -4 25 -9 30 -6 6 -13 25 -16 44 -3 19 -10 42 -15 51 -5 10 -16 37 -24 61 -8 24 -30 71 -48 104 -17 33 -33 67 -34 75 -1 8 -11 38 -22 67 -11 28 -18 54 -15 57 2 2 -3 15 -12 29 -10 16 -14 34 -10 50 4 15 1 35 -8 49 -18 30 -17 450 1 485 7 12 12 33 12 47 0 37 17 32 23 -6z m177 -468 c0 -11 -4 -20 -10 -20 -5 0 -10 9 -10 20 0 11 5 20 10 20 6 0 10 -9 10 -20z m-603 -62 c13 -12 23 -27 23 -33 0 -7 9 -20 20 -30 11 -10 20 -22 20 -28 0 -5 13 -28 28 -51 15 -22 35 -57 45 -77 9 -20 23 -42 32 -49 8 -7 15 -18 15 -24 0 -7 23 -34 51 -61 49 -48 109 -128 109 -144 0 -4 9 -16 20 -26 11 -10 20 -24 20 -30 0 -7 7 -18 15 -25 8 -7 29 -40 45 -74 17 -33 35 -68 40 -76 34 -57 95 -218 85 -228 -2 -3 0 -11 5 -17 14 -17 15 -407 1 -433 -6 -12 -11 -30 -11 -41 0 -11 -5 -33 -11 -48 -29 -69 -40 -93 -49 -98 -5 -3 -109 -6 -232 -6 -303 0 -288 -1 -288 15 0 7 -6 19 -14 26 -8 6 -12 18 -9 26 3 8 1 20 -4 27 -5 6 -15 32 -22 57 -7 25 -17 53 -22 62 -5 10 -9 31 -9 47 0 17 -4 33 -10 36 -5 3 -10 17 -10 29 0 13 -7 40 -16 61 -8 21 -13 43 -10 51 3 7 -2 30 -10 51 -9 21 -13 49 -10 66 4 17 1 36 -6 44 -26 32 -26 579 0 605 7 7 12 31 12 54 0 24 5 46 10 49 6 3 10 21 10 40 0 19 5 37 10 40 6 3 10 15 10 25 0 11 9 36 20 56 12 20 19 39 16 41 -3 3 6 25 19 49 14 24 22 44 19 44 -3 0 -2 5 1 10 9 15 16 13 42 -12z m643 -31 c13 -28 31 -60 39 -69 8 -10 10 -18 6 -18 -5 0 1 -10 12 -22 11 -13 23 -30 27 -38 18 -39 81 -133 100 -149 9 -7 16 -19 16 -25 0 -7 14 -25 30 -41 17 -16 30 -34 30 -40 0 -6 34 -44 75 -85 41 -41 72 -76 70 -79 -3 -2 8 -18 24 -35 32 -33 81 -124 81 -149 0 -9 5 -19 11 -22 6 -4 8 -14 5 -22 -4 -9 -2 -21 3 -27 9 -11 33 -105 36 -141 1 -11 -2 -49 -7 -85 -5 -36 -11 -80 -12 -98 -2 -18 -8 -38 -14 -44 -7 -7 -12 -20 -12 -30 0 -9 -4 -27 -9 -40 -34 -88 -47 -115 -61 -133 -10 -11 -26 -36 -36 -55 -26 -49 -95 -120 -116 -120 -21 0 -23 11 -6 28 7 7 8 12 3 12 -5 0 9 18 30 40 21 22 35 40 30 40 -5 0 2 11 14 24 28 29 91 153 91 177 0 10 5 21 10 24 6 3 10 17 10 30 0 13 4 27 10 30 11 7 8 280 -3 291 -4 4 -7 17 -7 28 0 12 -10 41 -22 66 -12 25 -20 49 -19 54 3 13 -27 72 -44 86 -8 7 -15 18 -15 25 0 6 -9 20 -20 30 -11 10 -20 23 -20 29 0 6 -45 56 -101 111 -55 55 -113 118 -127 140 -43 66 -112 204 -112 225 0 10 -4 22 -10 25 -5 3 -10 17 -10 30 0 13 -4 27 -10 30 -12 7 -14 45 -2 45 4 0 18 -24 32 -53z m170 -42 c30 -30 59 -55 65 -55 7 0 22 -11 35 -25 13 -14 28 -25 35 -25 6 0 33 -22 60 -50 27 -27 55 -50 62 -50 7 0 24 -17 37 -37 13 -21 40 -54 60 -72 20 -19 36 -40 36 -46 0 -7 9 -20 20 -30 11 -10 20 -24 20 -30 0 -7 7 -18 15 -25 18 -15 85 -150 85 -171 0 -8 4 -19 9 -24 5 -6 11 -23 13 -40 2 -16 9 -39 15 -50 6 -11 9 -33 8 -49 -2 -16 2 -37 9 -47 13 -19 13 -154 0 -219 -4 -19 -8 -51 -8 -70 -1 -19 -5 -42 -11 -50 -5 -8 -10 -28 -12 -44 -2 -17 -8 -35 -13 -40 -6 -6 -10 -17 -10 -25 0 -21 -88 -197 -106 -211 -8 -7 -14 -18 -14 -25 0 -14 -80 -28 -105 -19 -22 9 -18 34 9 63 26 28 97 157 90 164 -3 2 2 10 11 17 8 7 15 21 15 31 0 17 10 48 32 96 6 11 7 26 4 31 -3 6 0 28 7 49 15 45 14 201 -2 252 -6 19 -8 38 -5 43 3 5 -1 20 -10 33 -9 13 -16 32 -16 41 0 27 -79 180 -106 205 -13 12 -24 27 -24 34 0 6 -31 42 -70 80 -38 38 -70 74 -70 80 0 6 -14 24 -31 41 -38 36 -116 151 -152 225 -15 32 -34 62 -42 69 -16 13 -20 30 -7 30 4 0 32 -25 62 -55z m-990 6 c0 -6 -4 -13 -10 -16 -5 -3 -10 -17 -10 -30 0 -13 -5 -27 -11 -30 -6 -4 -8 -14 -5 -22 3 -8 -1 -25 -10 -38 -9 -13 -13 -29 -9 -34 3 -6 -1 -24 -10 -40 -8 -16 -12 -37 -9 -45 3 -8 -1 -29 -9 -45 -8 -16 -13 -40 -10 -53 2 -12 -1 -52 -7 -88 -14 -83 -19 -280 -8 -302 4 -9 9 -57 11 -105 1 -48 6 -94 11 -102 5 -7 10 -34 11 -60 1 -25 7 -58 13 -72 6 -15 8 -36 5 -48 -3 -12 0 -27 6 -34 6 -8 12 -27 14 -43 2 -16 9 -39 16 -52 7 -13 10 -30 7 -38 -3 -8 -2 -22 3 -32 36 -74 42 -92 37 -100 -4 -6 -2 -13 4 -17 5 -3 10 -16 10 -29 0 -12 6 -28 12 -34 22 -22 -5 -28 -107 -27 -113 2 -134 14 -129 73 1 20 -1 41 -5 47 -4 5 -13 28 -20 50 -8 22 -26 58 -40 79 -14 21 -30 46 -36 55 -5 8 -25 35 -43 61 -18 25 -40 58 -50 74 -9 15 -27 44 -39 63 -13 18 -23 42 -23 51 0 10 -5 23 -11 29 -6 6 -12 29 -13 51 -2 22 -7 45 -11 51 -4 7 -2 17 3 24 5 7 12 45 15 85 3 40 13 87 21 104 9 17 13 34 10 39 -3 5 2 23 10 41 9 17 16 39 16 49 0 10 5 21 11 24 6 4 8 13 5 20 -2 7 2 22 9 33 8 10 12 22 9 24 -4 5 6 29 45 108 31 62 54 94 116 158 38 39 74 72 79 72 6 0 22 12 37 26 42 41 89 64 89 45z m620 -381 c0 -5 -4 -10 -10 -10 -5 0 -10 5 -10 10 0 6 5 10 10 10 6 0 10 -4 10 -10z m-1176 -526 c3 -9 4 -20 1 -25 -3 -5 0 -19 6 -31 7 -13 13 -30 13 -38 1 -13 28 -67 72 -142 6 -10 21 -30 34 -43 13 -13 28 -33 34 -43 6 -11 30 -48 54 -83 23 -35 42 -72 42 -84 0 -12 4 -25 9 -31 12 -12 17 -86 7 -103 -6 -9 -25 -11 -68 -7 -33 2 -61 6 -62 8 -1 2 -13 26 -27 53 -13 28 -30 58 -38 68 -8 9 -11 20 -8 23 3 4 -1 20 -9 36 -9 17 -13 32 -10 36 3 3 1 10 -4 17 -5 6 -11 21 -13 33 -2 12 -6 25 -10 28 -4 4 -7 22 -7 39 0 18 -7 38 -15 45 -12 10 -14 24 -9 57 5 33 2 48 -9 61 -12 13 -14 31 -10 80 6 61 15 77 27 46z m1913 -728 c14 -6 18 -63 4 -84 -7 -11 -166 -13 -881 -13 -480 1 -875 3 -879 6 -4 2 -7 23 -6 47 l1 43 54 5 c71 6 1689 2 1707 -4z m271 -211 c17 -14 34 -25 39 -25 8 0 38 -57 38 -75 0 -5 4 -16 9 -23 5 -8 4 -18 -3 -25 -6 -6 -11 -25 -11 -42 0 -22 -10 -40 -34 -64 l-34 -33 -1191 1 c-1130 1 -1193 2 -1224 20 -17 10 -33 26 -35 37 -2 10 -8 29 -14 41 -11 22 -7 39 28 119 13 30 44 64 44 49 0 -4 7 -1 16 6 13 11 181 14 904 16 488 1 893 5 901 8 8 3 129 6 269 8 140 1 258 3 262 5 3 1 20 -9 36 -23z m-306 -407 c3 -13 5 -39 4 -58 l-1 -35 -872 -3 c-544 -1 -873 1 -873 7 0 6 5 13 11 17 6 3 8 17 4 31 -3 14 -3 33 0 44 6 19 28 19 865 19 l858 0 4 -22z m32 -201 c16 -6 106 -182 106 -207 0 -10 7 -23 15 -30 8 -7 12 -16 9 -21 -3 -5 0 -17 6 -28 12 -23 18 -296 7 -307 -4 -4 -32 17 -62 46 -30 30 -55 51 -55 48 0 -4 -19 0 -42 8 -28 10 -45 11 -52 4 -5 -5 -19 -10 -30 -10 -11 0 -30 -10 -43 -22 l-24 -22 -69 69 c-38 37 -77 69 -87 70 -10 0 -25 5 -33 10 -8 5 -37 10 -65 11 -39 3 -63 -3 -112 -28 -64 -31 -89 -32 -100 -1 -8 24 -54 73 -68 73 -7 0 -20 9 -30 20 -10 11 -22 17 -27 14 -5 -3 -19 0 -31 8 -31 19 -144 15 -193 -7 -21 -10 -60 -38 -86 -62 -52 -48 -56 -49 -84 -28 -10 8 -28 15 -40 15 -11 0 -23 2 -26 5 -3 3 -45 7 -94 8 -101 2 -150 -16 -215 -79 l-36 -35 -44 20 c-88 40 -84 39 -166 14 -63 -19 -115 -70 -139 -135 -9 -27 -18 -22 -35 20 -17 40 -18 144 -1 165 6 7 10 34 10 61 0 26 5 53 11 59 6 6 11 21 11 33 0 13 5 26 10 29 6 3 10 17 10 30 0 13 5 27 10 30 6 4 8 10 5 15 -3 4 2 13 10 20 8 7 15 16 15 21 0 17 61 98 77 101 28 5 1763 0 1777 -5z m-814 -384 c8 -4 18 -6 22 -5 3 1 12 -5 18 -13 7 -8 18 -15 24 -15 17 0 50 -38 70 -82 9 -20 20 -39 24 -42 4 -2 7 -25 6 -51 -1 -26 4 -58 10 -70 9 -17 10 -40 4 -77 -5 -29 -10 -71 -12 -93 -1 -22 -8 -56 -14 -75 -6 -19 -16 -55 -23 -80 -7 -25 -17 -51 -22 -57 -5 -7 -7 -19 -4 -28 4 -8 2 -17 -3 -20 -6 -4 -10 -14 -10 -23 -1 -43 -13 -47 -160 -48 l-140 0 -24 50 c-44 94 -82 232 -73 265 3 12 1 24 -4 27 -12 7 -12 81 1 89 5 3 9 33 9 66 -1 34 4 66 10 72 6 6 11 21 11 33 0 13 5 26 10 29 6 4 8 10 6 14 -8 12 99 113 138 131 34 15 91 16 126 3z m-407 -86 c22 -10 27 -18 27 -49 0 -40 -17 -132 -31 -163 -10 -24 -5 -148 9 -190 5 -16 8 -45 7 -63 -1 -18 2 -35 7 -38 4 -3 8 -16 8 -29 0 -13 5 -27 10 -30 6 -3 10 -15 10 -25 0 -11 9 -36 20 -56 12 -20 19 -38 16 -41 -2 -2 -57 -6 -121 -7 -117 -3 -118 -3 -151 26 -32 28 -106 162 -112 203 -8 51 -13 219 -6 233 3 10 8 30 10 47 3 16 9 34 14 39 6 6 10 19 11 31 1 28 30 75 61 98 46 34 145 41 211 14z m850 -14 c44 -24 106 -82 124 -117 17 -33 21 -138 6 -158 -5 -7 -9 -29 -7 -48 1 -19 -3 -41 -8 -48 -6 -7 -12 -24 -14 -39 -1 -15 -7 -36 -12 -47 -5 -12 -15 -39 -21 -61 -7 -22 -20 -56 -29 -75 -9 -19 -16 -43 -17 -52 -2 -28 -8 -30 -107 -35 -157 -8 -195 5 -169 55 5 9 15 37 22 62 7 25 17 51 22 57 5 7 6 20 3 29 -4 9 0 27 8 39 8 11 14 38 14 58 0 21 5 44 11 51 13 15 10 174 -3 195 -10 16 -15 76 -7 87 8 12 89 51 116 57 34 8 36 7 68 -10z m-1250 -65 c27 -13 36 -41 16 -54 -6 -3 -8 -15 -5 -27 3 -11 0 -29 -6 -40 -12 -23 -17 -256 -5 -264 4 -2 7 -19 7 -37 0 -19 7 -39 15 -46 8 -6 14 -15 13 -18 -3 -15 17 -49 46 -80 20 -22 27 -35 19 -40 -6 -4 -59 -7 -119 -7 -84 0 -109 4 -115 15 -53 105 -100 205 -102 219 -2 9 -9 26 -15 39 -7 12 -10 27 -7 32 3 5 1 11 -5 15 -5 3 -10 16 -10 28 0 24 22 93 33 103 4 4 7 17 7 29 0 12 3 25 8 29 4 4 7 11 7 14 1 13 28 57 48 80 17 18 31 22 82 22 33 0 73 -6 88 -12z m1650 -77 c16 -14 37 -45 48 -68 10 -23 23 -44 28 -47 14 -9 -28 -175 -51 -203 -6 -7 -8 -19 -5 -28 4 -8 2 -17 -3 -20 -5 -3 -27 -44 -50 -90 -23 -47 -49 -89 -58 -94 -10 -5 -40 -5 -72 1 -30 5 -68 10 -84 11 -30 2 -45 20 -27 32 6 3 11 15 11 25 0 11 9 35 20 55 11 20 20 49 20 65 0 16 5 32 10 35 6 4 8 10 6 14 -3 4 1 32 9 61 8 29 12 57 9 61 -3 5 2 22 10 38 9 16 15 52 15 81 -1 40 3 56 21 75 38 40 97 39 143 -4z m166 -665 c31 -28 56 -86 56 -131 0 -44 -36 -115 -58 -115 -7 0 -18 -5 -24 -11 -9 -9 -294 -12 -1055 -12 -955 -1 -1047 0 -1079 15 -40 19 -72 51 -75 76 -2 9 -6 29 -10 44 -4 18 1 43 16 75 40 88 -56 81 1146 80 1022 -2 1063 -3 1083 -21z m-1610 -372 c2 -1 3 -79 4 -171 0 -92 4 -179 9 -192 5 -13 9 -96 10 -185 0 -89 5 -170 11 -180 5 -11 9 -90 9 -185 -1 -115 2 -169 11 -179 8 -10 11 -44 9 -101 -2 -47 1 -140 7 -206 6 -66 11 -185 12 -265 1 -99 5 -153 14 -170 10 -19 13 -71 13 -187 -1 -88 2 -164 5 -170 3 -5 7 -90 8 -189 0 -98 5 -184 10 -189 4 -6 10 -87 13 -180 10 -326 21 -530 29 -543 5 -6 8 -76 8 -155 0 -78 5 -163 10 -187 6 -25 11 -122 13 -217 1 -95 5 -175 9 -179 4 -4 7 -78 7 -165 0 -87 4 -169 10 -184 5 -14 11 -101 12 -193 1 -94 6 -173 12 -181 6 -7 11 -88 12 -185 1 -95 7 -192 14 -215 8 -29 9 -87 4 -182 -5 -102 -4 -142 5 -153 8 -10 12 -58 12 -148 -1 -73 5 -167 12 -210 9 -47 13 -132 11 -224 -2 -84 1 -153 6 -159 6 -7 12 -88 14 -181 3 -93 7 -176 10 -184 5 -11 -6 -20 -35 -33 -39 -17 -42 -17 -60 -1 -17 15 -19 32 -19 139 0 71 -4 125 -10 131 -6 6 -11 59 -12 120 0 60 -5 120 -10 133 -5 13 -10 72 -13 130 -2 58 -6 135 -9 171 -4 36 -11 115 -16 175 -6 61 -12 149 -14 196 -2 48 -7 92 -11 99 -5 7 -9 65 -11 129 -1 64 -5 123 -8 131 -3 8 -8 67 -10 130 -2 63 -6 122 -10 130 -3 8 -7 62 -9 120 -2 58 -6 110 -10 116 -3 6 -7 62 -8 125 -1 70 -6 124 -14 139 -8 15 -13 67 -14 135 0 61 -5 141 -10 178 -6 38 -9 97 -7 130 2 34 -1 67 -6 74 -5 6 -11 62 -13 122 -2 61 -6 114 -8 119 -3 4 -6 61 -8 127 -2 66 -7 126 -12 132 -5 7 -9 64 -9 125 0 62 -4 118 -10 125 -5 6 -10 67 -10 135 -1 68 -5 128 -10 134 -4 6 -10 62 -13 123 -2 61 -8 119 -14 128 -5 10 -7 63 -4 125 5 93 4 111 -11 127 -15 16 -17 35 -13 128 2 59 1 115 -4 124 -4 9 -10 70 -12 136 -3 67 -8 126 -11 132 -4 6 -8 60 -10 119 -1 59 -6 114 -11 122 -5 8 -8 56 -6 107 1 50 -3 110 -9 133 -6 23 -12 92 -14 154 -1 61 -5 117 -9 122 -3 6 -7 65 -8 132 -1 78 -5 125 -13 131 -7 6 -13 51 -14 118 -2 59 -7 128 -11 153 -4 25 -6 81 -5 125 1 44 -4 89 -9 100 -14 25 -18 226 -6 241 6 8 49 10 132 7 67 -3 124 -7 126 -9z m900 -1 c3 -2 -1 -9 -7 -15 -8 -8 -12 -63 -12 -174 0 -98 -4 -165 -10 -169 -6 -4 -10 -75 -10 -180 0 -96 -4 -176 -8 -179 -5 -3 -10 -78 -11 -168 -1 -90 -6 -197 -12 -238 -5 -41 -9 -120 -8 -175 0 -55 -4 -112 -9 -126 -6 -14 -11 -93 -12 -175 0 -82 -5 -180 -10 -219 -5 -38 -9 -125 -10 -192 0 -67 -4 -124 -10 -128 -5 -3 -8 -41 -6 -85 2 -43 0 -121 -5 -172 -5 -51 -10 -168 -12 -260 -2 -101 -8 -172 -14 -180 -7 -8 -11 -66 -9 -163 1 -99 -2 -158 -10 -175 -8 -16 -11 -77 -10 -175 1 -92 -2 -162 -9 -180 -7 -17 -12 -102 -14 -194 -1 -90 -5 -169 -8 -175 -4 -5 -8 -78 -10 -160 -2 -83 -7 -171 -13 -196 -5 -25 -9 -109 -8 -186 0 -78 -3 -148 -8 -155 -5 -8 -10 -91 -11 -186 -1 -95 -6 -180 -11 -190 -5 -10 -9 -84 -10 -165 0 -81 -3 -152 -7 -157 -3 -5 -5 -80 -6 -167 0 -105 -4 -167 -13 -188 -8 -20 -13 -89 -15 -195 -1 -91 -6 -172 -10 -180 -5 -9 -8 -85 -9 -168 0 -84 -4 -158 -9 -165 -4 -7 -9 -53 -9 -103 -2 -142 -1 -135 -32 -135 -43 0 -53 46 -52 238 1 111 -2 168 -10 177 -8 10 -12 72 -12 192 0 98 -4 183 -9 189 -4 5 -9 84 -10 174 0 115 -5 172 -14 190 -9 17 -13 70 -14 165 0 77 -5 194 -10 260 -6 67 -8 153 -5 192 3 41 1 80 -5 91 -5 10 -11 100 -12 200 -1 100 -5 185 -10 188 -5 3 -9 77 -9 164 0 92 -5 170 -11 187 -6 16 -12 100 -13 193 -1 91 -5 170 -9 176 -3 6 -7 92 -8 190 0 98 -4 183 -9 189 -4 5 -9 82 -11 170 -1 88 -6 171 -11 184 -5 13 -9 99 -10 190 0 102 -5 171 -11 179 -7 9 -12 85 -15 190 -1 98 -7 206 -11 242 -4 36 -7 117 -6 180 1 63 -2 120 -6 126 -5 6 -10 85 -11 175 -1 90 -6 172 -11 183 -5 10 -9 93 -9 184 0 91 -4 177 -9 189 -5 13 -10 97 -11 186 -1 89 -5 169 -9 178 -5 9 -10 92 -13 185 -2 93 -8 187 -13 209 -4 22 -7 97 -5 167 l4 128 361 2 c336 3 425 1 436 -9z m398 2 c12 -4 11 -12 -3 -52 -4 -10 -8 -61 -11 -113 -2 -52 -6 -102 -9 -110 -3 -8 -8 -59 -10 -113 -2 -55 -7 -104 -11 -110 -5 -7 -10 -61 -12 -122 -2 -60 -6 -117 -10 -125 -4 -8 -7 -51 -6 -95 1 -44 -3 -91 -9 -105 -11 -27 -24 -183 -28 -341 -2 -53 -8 -102 -14 -110 -6 -8 -11 -60 -12 -122 -1 -68 -5 -114 -13 -123 -8 -10 -10 -39 -5 -99 5 -62 3 -91 -6 -107 -7 -13 -14 -57 -14 -98 -3 -124 -23 -341 -33 -354 -5 -6 -9 -56 -7 -111 1 -55 -2 -109 -8 -120 -6 -11 -9 -60 -7 -108 2 -63 -1 -94 -11 -110 -10 -14 -15 -57 -17 -122 -1 -54 -6 -106 -10 -115 -5 -8 -7 -42 -6 -75 1 -33 -2 -80 -7 -105 -11 -47 -26 -245 -31 -390 -1 -47 -6 -91 -11 -98 -4 -8 -11 -59 -13 -115 -3 -56 -9 -107 -14 -113 -5 -6 -6 -33 -3 -60 3 -27 0 -76 -6 -109 -6 -33 -12 -96 -14 -140 -2 -44 -6 -109 -9 -145 -4 -36 -9 -97 -11 -136 -2 -39 -9 -81 -16 -93 -8 -15 -10 -49 -6 -103 4 -55 2 -87 -7 -106 -7 -15 -14 -70 -16 -122 -2 -52 -5 -99 -9 -104 -3 -5 -7 -57 -9 -115 -1 -58 -6 -113 -9 -121 -3 -8 -7 -58 -9 -111 -2 -53 -8 -106 -14 -117 -6 -11 -11 -63 -11 -116 0 -52 -4 -97 -9 -100 -5 -3 -8 -50 -8 -104 0 -54 -4 -105 -9 -113 -5 -8 -9 -62 -10 -120 0 -58 -4 -112 -9 -119 -4 -7 -10 -58 -12 -113 -1 -55 -7 -105 -12 -111 -5 -6 -9 -50 -8 -97 0 -47 -6 -107 -14 -133 -13 -45 -15 -47 -44 -42 -16 4 -33 10 -38 15 -13 13 -11 172 2 213 6 19 9 89 7 168 -1 74 2 149 7 165 5 17 10 100 11 186 1 103 6 162 13 171 8 9 13 75 16 188 9 444 12 517 24 531 8 10 14 73 17 179 11 365 18 516 27 526 5 6 9 81 8 167 0 86 4 164 10 174 5 11 9 90 8 179 0 88 3 166 8 174 5 8 11 91 12 184 2 94 8 175 12 181 5 5 9 82 10 169 0 87 5 164 11 171 5 6 7 53 5 106 -2 52 0 132 5 179 5 47 11 159 13 250 1 92 8 174 14 185 6 11 11 84 11 171 1 82 5 161 10 175 5 13 9 96 11 184 1 87 5 164 10 170 4 5 8 86 10 180 2 93 6 174 9 180 4 5 8 80 9 165 1 85 7 180 14 210 6 30 9 89 6 130 -3 41 -1 109 4 151 5 42 11 141 12 220 2 84 9 161 17 184 7 22 14 45 15 50 2 10 265 10 292 0z m-712 -6700 c61 -21 82 -30 96 -42 8 -7 20 -13 26 -13 6 0 17 -7 24 -16 7 -9 24 -20 36 -25 13 -5 28 -20 33 -33 5 -13 13 -27 18 -30 14 -8 62 -103 62 -121 0 -9 6 -26 14 -38 25 -40 6 -210 -27 -243 -4 -4 -7 -17 -7 -29 0 -12 -9 -30 -20 -40 -11 -10 -18 -21 -15 -25 12 -19 -151 -140 -190 -140 -11 0 -26 -5 -32 -11 -15 -15 -194 -15 -234 0 -158 61 -227 128 -276 270 -35 100 -9 296 47 356 11 12 20 26 20 31 0 18 63 69 115 94 28 13 57 29 65 36 32 25 190 38 245 19z m-95 -908 c63 0 123 4 133 8 18 8 19 -1 14 -216 -3 -123 -7 -234 -9 -247 -5 -29 -67 -92 -90 -92 -10 0 -27 -5 -37 -12 -11 -7 -26 -8 -37 -3 -11 5 -23 9 -29 10 -29 2 -73 32 -92 62 -22 33 -23 42 -23 270 l0 235 28 -8 c15 -4 79 -7 142 -7z" fill="#000000" style="fill-opacity:1;stroke:none"/>
    <path d="M3171 19684 c-35 -18 -111 -96 -111 -114 0 -29 -25 -70 -43 -70 -10 0 -30 -8 -45 -17 -42 -26 -112 -95 -106 -105 3 -5 -1 -19 -8 -31 -15 -22 -17 -71 -5 -84 4 -3 7 -15 7 -25 0 -26 77 -106 118 -124 20 -8 43 -12 53 -9 9 3 21 0 25 -7 8 -12 6 -509 -1 -516 -2 -2 -44 -4 -93 -4 -49 0 -96 -4 -103 -9 -9 -5 -16 -34 -19 -81 l-5 -73 -115 0 c-63 0 -120 -3 -125 -7 -7 -4 -10 -76 -9 -199 l1 -193 26 -7 c14 -4 119 -8 234 -8 114 -1 208 -3 210 -5 2 -2 3 -199 4 -439 0 -482 -2 -469 62 -451 l32 10 2 461 c1 253 -1 473 -6 489 l-7 29 -226 0 c-125 0 -229 3 -233 7 -4 4 -3 13 1 20 5 7 9 53 10 101 1 48 5 91 8 94 3 4 46 6 96 5 114 -2 144 8 137 46 -3 15 -2 43 2 62 l7 35 96 0 c54 1 101 4 105 9 12 12 14 698 2 713 -6 7 -36 11 -75 10 -57 -1 -67 2 -93 28 -37 35 -47 74 -28 112 27 50 51 65 111 65 31 0 59 5 63 11 3 5 7 28 8 51 5 86 49 139 111 134 31 -2 41 -9 56 -37 11 -19 20 -58 21 -90 l3 -56 47 3 c88 7 147 -42 147 -121 0 -33 -32 -77 -57 -77 -6 0 -16 -6 -22 -14 -8 -9 -27 -13 -60 -10 -48 3 -49 3 -55 -29 -3 -18 -5 -166 -5 -329 0 -357 -1 -352 86 -354 139 -3 133 -1 140 -34 3 -17 9 -32 13 -35 4 -3 6 -23 4 -45 -3 -32 0 -40 14 -41 9 -1 61 -3 115 -5 55 -1 101 -4 103 -6 8 -9 12 -194 4 -208 -7 -13 -38 -15 -202 -13 -106 2 -205 -1 -221 -5 l-27 -7 -1 -475 c-1 -261 -1 -480 0 -486 2 -17 39 -24 67 -14 l24 10 0 440 0 440 28 0 c15 1 113 2 219 3 105 1 194 5 198 8 9 10 13 361 4 386 -8 21 -14 22 -101 21 -139 -1 -128 -6 -128 56 0 35 -5 58 -15 66 -8 7 -15 18 -15 24 0 8 -30 12 -92 12 l-93 1 -6 95 c-3 51 -9 100 -14 108 -13 21 -18 270 -6 302 8 20 19 29 47 34 45 8 119 73 139 121 15 36 14 112 -3 153 -11 28 -67 83 -97 95 -11 5 -22 9 -25 10 -3 2 -15 6 -28 10 -20 7 -79 98 -74 116 0 3 -12 19 -28 34 -17 16 -30 25 -30 21 0 -5 -7 -3 -15 4 -20 16 -105 19 -134 4z" fill="#000000" style="fill-opacity:1;stroke:none"/>
    <path d="M920 18130 l0 -110 153 0 153 0 39 -40 c21 -22 44 -40 51 -40 6 0 83 -72 170 -160 87 -88 163 -160 169 -160 6 0 96 -85 200 -190 105 -104 195 -190 200 -190 6 0 101 -90 210 -200 110 -110 205 -200 210 -200 6 0 87 -76 180 -170 93 -93 175 -170 180 -170 11 0 95 -81 95 -91 0 -11 -102 -109 -114 -109 -6 0 -96 -86 -200 -190 -105 -105 -195 -190 -201 -190 -5 0 -82 -72 -170 -160 -88 -88 -164 -160 -170 -160 -6 0 -87 -76 -180 -170 -93 -93 -174 -170 -180 -170 -6 0 -91 -81 -190 -180 -99 -99 -184 -180 -190 -180 -5 0 -55 -45 -110 -100 l-99 -100 -113 0 -113 0 0 -140 0 -140 49 0 c28 0 53 5 56 10 4 6 70 10 165 10 95 0 161 -4 165 -10 4 -6 127 -10 336 -10 l329 0 0 140 0 139 -117 3 -118 3 -3 28 c-4 29 21 67 42 67 6 0 78 68 160 150 82 83 155 150 160 150 6 0 79 68 161 150 82 83 154 150 159 150 5 0 76 66 158 147 81 81 156 151 166 155 9 3 82 72 162 152 80 80 149 146 155 146 6 0 42 32 80 70 38 39 72 70 75 70 3 0 55 -49 115 -110 61 -60 115 -110 120 -110 6 0 64 -54 130 -120 66 -66 124 -120 130 -120 6 0 69 -58 140 -130 71 -71 135 -130 141 -130 5 0 64 -53 130 -119 65 -65 125 -120 132 -122 7 -2 65 -56 130 -120 64 -64 123 -118 129 -120 7 -2 51 -42 98 -89 75 -73 86 -88 83 -115 l-3 -30 -137 -3 -138 -3 0 -119 0 -120 214 0 c133 0 217 -4 221 -10 4 -6 127 -10 336 -10 l329 0 0 89 c0 50 -4 93 -10 96 -5 3 -10 22 -10 41 l0 34 -74 0 c-70 0 -76 2 -103 30 -15 17 -33 30 -38 30 -6 0 -74 63 -150 140 -77 77 -145 140 -150 140 -6 0 -78 68 -160 150 -82 83 -154 150 -160 150 -6 0 -78 68 -160 150 -82 83 -155 150 -162 150 -6 0 -78 68 -160 150 -82 83 -154 150 -159 150 -5 0 -73 63 -149 140 -77 77 -145 140 -150 140 -6 0 -53 43 -105 95 l-94 95 29 32 c46 48 79 77 90 78 6 0 87 77 180 170 93 94 174 170 180 170 5 0 82 72 169 160 88 88 165 160 170 160 6 0 88 77 181 170 93 94 174 170 179 170 5 0 85 75 177 167 93 92 177 170 186 174 10 4 51 41 92 83 l74 76 123 0 124 0 0 110 0 110 -530 0 -530 0 0 -84 c0 -47 -4 -88 -10 -91 -5 -3 -10 -15 -10 -26 0 -17 8 -19 95 -19 52 0 95 -3 95 -8 0 -11 -204 -212 -215 -212 -6 0 -104 -95 -219 -210 -116 -116 -215 -210 -220 -210 -6 0 -119 -108 -250 -240 -132 -132 -244 -240 -250 -240 -7 0 -54 -43 -105 -95 -52 -52 -97 -95 -101 -95 -3 0 -21 16 -40 35 -19 19 -39 35 -45 35 -6 0 -99 88 -206 196 -106 107 -202 199 -212 203 -9 3 -133 122 -275 262 -141 141 -263 258 -269 260 -16 5 -313 300 -313 311 0 4 29 8 65 8 l65 0 0 110 0 110 -550 0 -550 0 0 -110z" fill="#000000" style="fill-opacity:1;stroke:none"/>
    <path d="M3330 15780 c-11 -20 -8 -85 8 -250 5 -47 9 -267 9 -490 l0 -404 29 -8 c16 -5 45 -7 64 -6 19 1 63 1 96 0 l62 -2 4 -46 c4 -60 -5 -65 -135 -60 -57 2 -110 0 -117 -4 -8 -5 -10 -22 -6 -56 5 -37 2 -62 -14 -104 -12 -30 -23 -62 -26 -70 -8 -23 -54 -42 -71 -29 -7 6 -13 8 -13 4 0 -16 -31 19 -47 52 -11 24 -16 63 -17 119 0 67 -3 85 -16 88 -8 2 -69 4 -134 5 -66 1 -122 3 -124 6 -5 5 -4 86 1 91 1 2 60 4 131 5 123 3 128 4 137 26 4 12 8 270 9 572 l0 549 -33 5 c-17 2 -40 0 -50 -5 -16 -8 -17 -41 -17 -526 l1 -517 -127 -3 c-73 -1 -133 -7 -141 -13 -10 -9 -12 -42 -9 -141 2 -71 7 -132 10 -136 4 -3 64 -7 133 -9 70 -2 128 -5 130 -6 1 -2 4 -26 6 -53 7 -86 73 -192 124 -201 10 -1 32 -5 48 -8 43 -9 134 33 141 65 1 7 23 53 33 70 13 23 31 84 31 107 0 27 30 33 125 29 90 -5 148 3 137 18 -5 6 -8 66 -7 134 1 74 -3 126 -9 129 -5 4 -62 8 -125 10 -64 2 -117 5 -118 7 -1 1 -3 239 -3 529 -1 504 -2 527 -20 537 -32 17 -78 12 -90 -10z" fill="#000000" style="fill-opacity:1;stroke:none"/>
  </g>
</svg>
